<svg width="60" height="60" xmlns="http://www.w3.org/2000/svg" xmlns:xlink="http://www.w3.org/1999/xlink"><defs><path id="a" d="M0 0h28.804v48.453H0z"/></defs><g fill="none" fill-rule="evenodd"><path d="M56.386 9.901c-.076-1.439-1.318-2.531-2.744-2.465l-11.747.626a2.601 2.601 0 0 0-2.648 1.39 2.6 2.6 0 0 0-.257.846v.006c-.017.13-.021.259-.018.388 0 .046-.01.091-.007.138l.65 12.21a2.608 2.608 0 1 0 5.21-.276l-.353-6.628c3.744 3.75 5.94 8.889 5.94 14.299 0 11.148-9.069 20.217-20.217 20.217a2.609 2.609 0 0 0 0 5.217c14.025 0 25.435-11.41 25.435-25.434 0-6.58-2.588-12.835-7.013-17.507l5.303-.283a2.608 2.608 0 0 0 2.466-2.744" fill="#2EA2FF"/><g transform="translate(4 5)"><mask id="b" fill="#fff"><use xlink:href="#a"/></mask><path d="M17.38 45.667c.008-.041.018-.082.023-.123.013-.106.015-.21.015-.315 0-.054.01-.107.007-.162l-.64-12.212a2.608 2.608 0 1 0-5.21.274l.346 6.61c-3.746-3.75-5.943-8.889-5.943-14.304 0-11.148 9.07-20.217 20.217-20.217a2.609 2.609 0 0 0 0-5.218C12.17 0 .761 11.41.761 25.435c0 6.592 2.594 12.854 7.03 17.526l-5.318.278a2.609 2.609 0 1 0 .272 5.21l11.953-.625c.04 0 .08.013.119.013.958 0 1.88-.53 2.336-1.445.046-.09.074-.185.108-.278.007-.02.017-.04.024-.061a2.5 2.5 0 0 0 .095-.386" fill="#2EA2FF" mask="url(#b)"/></g></g></svg>