<svg width="60" height="60" xmlns="http://www.w3.org/2000/svg" xmlns:xlink="http://www.w3.org/1999/xlink"><defs><path id="a" d="M.545.65h20.218v50.872H.545z"/><path id="c" d="M.506.17h16.889v36.18H.506z"/></defs><g fill="none" fill-rule="evenodd"><g transform="translate(20.217 4.001)"><mask id="b" fill="#fff"><use xlink:href="#a"/></mask><path d="M3.155 51.522a2.609 2.609 0 0 1-2.479-3.424l15-45.652a2.608 2.608 0 1 1 4.956 1.629l-15 45.652a2.61 2.61 0 0 1-2.477 1.795" fill="#2EA2FF" mask="url(#b)"/></g><path d="M14.282 48.177c-.77 0-1.532-.339-2.047-.988L.565 32.464a2.608 2.608 0 0 1-.167-3.004l10.16-16.237a2.609 2.609 0 0 1 4.422 2.768L5.797 30.666 16.324 43.95a2.608 2.608 0 0 1-2.042 4.228" fill="#2EA2FF"/><g transform="translate(42.391 11.827)"><mask id="d" fill="#fff"><use xlink:href="#c"/></mask><path d="M3.113 36.35a2.608 2.608 0 0 1-2.043-4.23l10.529-13.28L2.415 4.164a2.608 2.608 0 1 1 4.423-2.768l10.16 16.236c.585.936.518 2.14-.168 3.004L5.16 35.361a2.604 2.604 0 0 1-2.047.989" fill="#2EA2FF" mask="url(#d)"/></g></g></svg>