<svg width="60" height="60" xmlns="http://www.w3.org/2000/svg"><path d="M16.652 12.217c-2.448 0-10.435.752-10.435 10.435 0 13.923 18.812 23.67 23.464 25.866 4.648-2.253 23.493-12.23 23.493-25.866 0-9.683-7.987-10.435-10.435-10.435-6.488 0-10.795 6.7-10.838 6.769a2.609 2.609 0 0 1-4.407.006c-.062-.096-4.426-6.775-10.842-6.775M29.696 54c-.344 0-.689-.068-1.013-.204C27.553 53.319 1 41.923 1 22.652 1 11.84 8.861 7 16.652 7c6.039 0 10.548 3.695 13.044 6.405C32.19 10.695 36.7 7 42.739 7c7.791 0 15.652 4.84 15.652 15.652 0 18.894-26.526 30.64-27.655 31.131a2.61 2.61 0 0 1-1.04.216" fill="#2EA2FF" fill-rule="evenodd"/></svg>