<svg width="340" height="340" xmlns="http://www.w3.org/2000/svg"><g fill="none" fill-rule="evenodd"><path fill="#DAE0EC" d="M165.674 193.796v.007l8.592-.007z"/><path fill="#DAE0EC" d="M169.964 198.098h.006l-.006-8.592z"/><path fill="#DAE0EC" d="M169.964 198.098h.006l-.006-8.592z"/><path fill="#DAE0EC" d="M174.267 198.099h-4.296l-.003-4.296h-4.294l4.294-.005-.003-4.292.006 4.292 4.296-.002z"/><path d="M282.977 80.79c-.417-.417-1.361-.297-1.781-.708-.421-.412-.425-1.253-.85-1.66-.425-.406-1.306-.328-1.735-.731-.43-.402-.884-.77-1.317-1.167-.434-.398-.36-1.352-.798-1.745-.438-.393-.705-.984-1.147-1.372-.443-.388-.805-.877-1.251-1.26-.447-.383-1.191-.422-1.641-.801-.451-.378-.71-.994-1.164-1.367-.455-.374-.837-.844-1.296-1.212-.46-.37-1.385-.153-1.847-.516-.464-.363-1.086-.516-1.553-.874-.467-.358-.946-.692-1.416-1.045-.471-.354-.966-.665-1.44-1.013-.475-.348-.534-1.266-1.012-1.61-.48-.342-1.317-.174-1.8-.512-.481-.337-.865-.81-1.35-1.142-.486-.332-1.052-.538-1.542-.866-.49-.326-.844-.852-1.337-1.173-.493-.322-1.134-.406-1.631-.721-.497-.317-.835-.877-1.335-1.187-.501-.31-1.158-.358-1.661-.663-.504-.303-1.02-.58-1.526-.878-.507-.298-.542-1.408-1.052-1.701-.51-.294-1.01-.618-1.523-.905-.513-.287-1.495.272-2.012-.01-.517-.281-1.01-.598-1.528-.874-.52-.276-.59-1.415-1.112-1.684-.523-.271-1.515.377-2.04.114-.526-.265-.77-1.094-1.3-1.352-.528-.26-1.28-.051-1.811-.303-.532-.252-1.068-.487-1.602-.733-.535-.246-.743-1.211-1.28-1.451-.538-.24-1.064-.518-1.604-.752-.54-.234-1.504.526-2.046.299-.543-.23-1.058-.505-1.603-.728-.545-.221-1.017-.61-1.565-.826-.547-.216-1.107-.388-1.657-.598-.55-.21-.92-.893-1.472-1.097-.552-.203-1.18-.197-1.735-.395-.554-.197-.968-.8-1.524-.99-.557-.191-1.152-.276-1.711-.461-.56-.184-1.036-.633-1.596-.811-.561-.18-1.39.497-1.952.325-.563-.173-.99-.787-1.555-.954-.564-.166-1.158-.23-1.725-.39-.566-.16-1.128-.335-1.696-.488-.567-.154-.98-.91-1.55-1.058-.57-.146-1.28.249-1.851.108-.571-.14-1.25.176-1.823.042-.573-.134-.951-1.122-1.525-1.25-.574-.127-1.292.397-1.868.276-.575-.122-1.044-.771-1.621-.886-.576-.115-1.13-.38-1.708-.488-.578-.11-1.227.154-1.807.052-.58-.103-1.193-.003-1.774-.1-.58-.095-1.058-.852-1.64-.94-.581-.09-1.304.76-1.887.677-.582-.083-1.154-.216-1.737-.293-.583-.077-1.158-.195-1.743-.265-.584-.071-1.101-.723-1.687-.787-.584-.064-1.22.348-1.805.29-.585-.057-1.137-.491-1.723-.541-.586-.051-1.216.437-1.803.392-.587-.044-1.171-.071-1.76-.11-.586-.037-1.125-.886-1.713-.918-.587-.031-1.192.198-1.78.173-.587-.026-1.194.449-1.783.429-.588-.018-1.177.164-1.766.15-.588-.012-1.165-.621-1.754-.628-.588-.006-1.178.568-1.767.568-.59 0-1.178-.48-1.766-.473-.59.006-1.17.377-1.758.389-.59.013-1.166.27-1.754.289-.59.02-1.18-.14-1.766-.115-.588.026-1.177-.033-1.764-.002-.588.032-1.188-.173-1.775-.135-.588.038-1.201-.27-1.787-.225-.587.045-1.134.59-1.72.64-.586.052-1.222-.42-1.807-.362-.586.058-1.192-.04-1.777.024s-1.181.082-1.765.152c-.585.07-1.17.18-1.753.256-.584.077-1.08.813-1.661.897-.583.083-1.202-.081-1.783.008-.582.09-1.121.445-1.701.542-.581.096-1.284-.511-1.863-.408-.58.102-.964 1.276-1.542 1.385-.58.109-1.193.008-1.77.124-.577.115-1.245-.216-1.82-.095-.576.122-1.224-.071-1.798.057-.574.128-1.158.238-1.731.373-.573.133-1.046.699-1.617.839s-1.246-.117-1.816.03c-.57.147-.884 1.262-1.451 1.416-.57.153-1.362-.511-1.928-.351-.566.159-1.008.756-1.572.922-.565.167-1.12.36-1.681.534-.563.172-1.203.098-1.763.277-.561.178-1.11.399-1.668.584-.56.185-1.131.332-1.687.523-.557.19-.996.717-1.55.914-.554.198-1.09.44-1.641.644-.552.203-1.171.224-1.721.434-.55.209-1.123.355-1.671.57-.547.217-1.224.115-1.77.336-.544.223-.944.798-1.486 1.027-.543.228-.933.805-1.473 1.04-.54.234-1.482-.444-2.02-.204-.536.24-.772 1.15-1.306 1.397-.535.246-1.123.374-1.655.626-.532.253-.91.818-1.44 1.076-.528.258-1.144.333-1.67.598-.525.264-1.36-.074-1.883.196-.523.27-.636 1.324-1.156 1.599-.52.276-1.298.069-1.814.35-.517.283-1.006.62-1.52.907-.512.287-.698 1.148-1.208 1.44-.51.294-1.464-.177-1.971.122-.507.299-.843.887-1.347 1.192-.503.303-.824.904-1.324 1.214-.5.31-.976.652-1.473.967-.496.316-1.52-.185-2.013.136-.493.32-.693 1.093-1.183 1.42-.49.326-1.044.559-1.53.89-.486.333-.86.83-1.341 1.168-.482.337-.657 1.103-1.136 1.446-.478.343-1.067.523-1.542.87-.475.349-.881.782-1.352 1.136-.47.352-1.085.51-1.552.869-.466.358-1.134.457-1.597.82-.463.363-1.037.59-1.496.959-.458.368-1.087.536-1.541.91-.455.373-.275 1.512-.726 1.89-.45.38-1.183.423-1.63.807-.446.382-.532 1.177-.975 1.565-.442.389-1.105.522-1.543.915-.438.393-1.271.352-1.705.75-.434.398-.46 1.238-.888 1.642-.43.4-1.09.56-1.514.968-.425.407-.631 1.04-1.052 1.453-.421.41-1.038.624-1.455 1.04-.416.418-.38 1.278-.791 1.699-.412.42-1.233.44-1.64.866-.407.426-.864.806-1.266 1.234-.402.43-.982.7-1.38 1.133-.397.435-.875.802-1.267 1.24-.393.438-.527 1.11-.915 1.553-.39.443-.98.713-1.363 1.159-.383.447-.33 1.267-.707 1.717-.38.45-1.055.655-1.428 1.11-.374.455-.194 1.357-.562 1.816-.37.459-.84.832-1.202 1.295-.363.463-.681.956-1.04 1.423-.358.467-.565 1.042-.918 1.51-.353.473-.824.849-1.172 1.324-.348.474-1.102.653-1.445 1.132-.342.478-.57 1.039-.906 1.52-.338.483-.624 1-.956 1.485-.332.487-1.04.72-1.366 1.209-.326.49.074 1.458-.247 1.952-.321.493-.821.866-1.136 1.362-.316.497-.587 1.016-.897 1.517-.311.5-1.39.532-1.694 1.035-.304.504-.593 1.023-.892 1.53-.3.508.359 1.57.066 2.08-.293.512-1.1.728-1.387 1.24-.288.514-.186 1.24-.468 1.757-.282.517-.943.826-1.22 1.347-.275.519-.713.956-.983 1.478-.27.524.129 1.385-.135 1.91-.264.527-1.164.736-1.423 1.264-.258.529-.095 1.26-.347 1.79-.253.533-.888.885-1.134 1.419-.246.535-.234 1.187-.474 1.724-.241.537-.921.882-1.155 1.422-.234.54.298 1.406.069 1.948-.228.543-1.167.789-1.39 1.334-.221.545-.381 1.118-.597 1.666-.216.547-.644 1.015-.854 1.565-.21.55-.04 1.245-.244 1.798-.204.552-.383 1.113-.581 1.667-.197.555-.04 1.232-.23 1.788-.191.557-1.041.89-1.226 1.449-.185.559.328 1.344.15 1.906-.18.56-.243 1.15-.416 1.714-.172.562-1.26.85-1.427 1.415-.166.564-.065 1.209-.225 1.775-.16.566-.657 1.044-.811 1.612-.153.568-.157 1.18-.304 1.75-.147.57-.217 1.163-.358 1.736-.14.57.5 1.329.366 1.902-.134.572-.695 1.045-.823 1.619-.128.574-.718 1.05-.84 1.626-.121.576.466 1.298.35 1.875-.115.577-.191 1.158-.3 1.736-.11.579-.297 1.139-.4 1.719-.101.579-.492 1.109-.588 1.69-.096.58-.47 1.119-.558 1.7-.09.582-.297 1.15-.38 1.733-.083.582.554 1.265.478 1.848-.077.583-.971 1.065-1.042 1.65-.07.584.79 1.276.727 1.86-.064.586-.125 1.167-.183 1.753-.057.585-.358 1.145-.41 1.732-.05.586-.052 1.175-.097 1.762-.044.586-.255 1.16-.293 1.748-.038.587.128 1.185.096 1.773-.031.587-.817 1.14-.843 1.729-.025.587 1.009 1.216.99 1.803-.02.588-.713 1.157-.725 1.746-.013.587.713 1.186.707 1.775-.007.588-.132 1.17-.132 1.76 0 .589-.514 1.177-.508 1.764.007.589-.367 1.187-.354 1.774.013.589 1.053 1.148 1.072 1.735.019.588-.916 1.212-.89 1.799.025.588.048 1.18.08 1.767s0 1.183.039 1.77 1.04 1.105 1.085 1.69c.045.587-.57 1.227-.52 1.812.053.586.32 1.152.378 1.737.058.586-.2 1.205-.136 1.79.065.585.442 1.135.512 1.718.07.584.36 1.139.437 1.722.077.583.249 1.15.332 1.73.084.584.32 1.139.41 1.72.09.58-.671 1.298-.574 1.878.096.58 1.019 1.018 1.122 1.597.103.58.159 1.162.269 1.74.109.578-.517 1.299-.401 1.875.115.576 1.148.963 1.27 1.538.122.575-.574 1.327-.446 1.9.129.575.196 1.165.33 1.738.136.573.172 1.173.313 1.744.14.57.828 1.006.976 1.574.147.569-.14 1.255.014 1.822.154.569.418 1.109.578 1.674.16.566.46 1.094.626 1.657.166.565.618 1.042.79 1.604.173.562.686 1.014.865 1.573.179.56-.382 1.359-.197 1.917.185.559.704 1.004.895 1.56.19.556-.224 1.327-.027 1.88.198.555 1.07.866 1.274 1.417.204.552.304 1.14.513 1.69.21.55.712.982.928 1.529.216.547-.514 1.475-.292 2.019.222.545.963.879 1.19 1.42.229.543.376 1.12.61 1.66.234.539.175 1.21.415 1.748.24.537.74.96.986 1.494s.358 1.134.61 1.665c.252.532 1.187.733 1.445 1.263.258.528-.345 1.483-.082 2.009.264.525.703.967.972 1.49.27.523 1.063.773 1.338 1.293.275.519-.003 1.337.278 1.853.28.517.862.87 1.149 1.384.286.514.127 1.283.419 1.794.293.51.892.847 1.19 1.355.299.505 1.074.728 1.378 1.23.304.505.844.857 1.154 1.357.309.5.62.992.936 1.488.315.497.064 1.352.384 1.846.32.493.724.932 1.05 1.42.325.492.562 1.04.894 1.527.33.486.816.865 1.153 1.347.336.483.542 1.057.884 1.536.342.478 1.036.699 1.384 1.174.347.475.267 1.263.62 1.734.352.47.944.76 1.3 1.227.359.467.23 1.313.592 1.777.363.463 1.06.664 1.429 1.123.367.459.38 1.209.754 1.664.372.454 1.353.407 1.73.858.378.45.134 1.43.517 1.876.382.446.902.782 1.289 1.225.388.442 1.053.64 1.446 1.079.392.438.95.724 1.348 1.159.396.434.677.974 1.079 1.404.433.463 1.216.426 1.719.785.51.367.885.767 1.454 1.02.57.254.98.894 1.594 1.028.605.132 1.235.333 1.868.343.63.017 1.248-.252 1.853-.362.615-.112 1.434.28 2.009.046.573-.234.916-1.043 1.435-1.391.51-.343 1.357-.377 1.802-.822.628-.628.199-1.057.828-1.686.628-.628 1.029-.226 1.657-.855.628-.627-.044-1.3.584-1.927.628-.628.94-.316 1.568-.944.629-.63 1.015-.242 1.644-.87s.61-.646 1.24-1.274c.628-.63.568-.69 1.197-1.318.628-.628.189-1.068.817-1.697.629-.628 1.09-.168 1.72-.796.628-.63.223-1.035.852-1.664.628-.628.785-.471 1.414-1.101.629-.63.305-.953.934-1.582.628-.628.85-.405 1.478-1.033.629-.63.918-.34 1.547-.97.629-.63.669-.59 1.298-1.22.63-.63.65-.608 1.279-1.238.63-.63.076-1.184.706-1.814.63-.63 1.148-.113 1.779-.744.63-.631.04-1.221.67-1.852.46-.46.575-.747.575-1.351 0-.603.079-1.084-.381-1.544-.686-.685-.68-.691-1.365-1.378-.686-.685-.69-.682-1.375-1.368-.46-.46-.943-.753-1.547-.753-.603 0-1.612-.232-2.072.228-.628.628-.196 1.06-.824 1.689-.63.628-.33.927-.957 1.556-.628.627-1.215.04-1.843.668-.628.628-.655.6-1.282 1.229-.63.629-.197 1.062-.826 1.69-.628.629-.957.3-1.585.928-.63.628-.278.979-.907 1.608-.63.629-.517.74-1.146 1.368-.63.629-1.248.01-1.877.64-.628.629-.5.758-1.128 1.386-.63.629-.175 1.083-.804 1.71-.63.63-.656.604-1.285 1.233-.628.628-1.17.087-1.797.715-.63.629.043 1.3-.586 1.929-.63.63-.75.51-1.38 1.139-.63.63-.423.835-1.053 1.465-.63.63-1.343-.083-1.973.547-.631.63-.13 1.13-.761 1.762-.631.63-.726.535-1.357 1.166-.138.139-.43-.296-.628-.293-.145-.003-.75.696-.934.499-.406-.434-.395-1.258-.796-1.697-.401-.438-.42-1.22-.814-1.662-.396-.444-1.213-.512-1.603-.96-.391-.448-1.186-.553-1.571-1.005-.385-.453-.35-1.264-.73-1.72-.38-.458-1.002-.718-1.376-1.18-.375-.461-.498-1.127-.867-1.593-.37-.466-1.108-.646-1.471-1.116-.364-.471.116-1.585-.241-2.06-.36-.473-1.592-.295-1.944-.773-.353-.48-.064-1.426-.41-1.908-.347-.483-1.35-.502-1.69-.99-.341-.486.085-1.504-.25-1.995-.335-.491-.497-1.091-.826-1.587-.33-.494-1.131-.673-1.455-1.171-.323-.5-.603-1.026-.921-1.528-.317-.502-1.157-.681-1.47-1.187-.311-.506-.338-1.191-.643-1.7-.306-.51-.386-1.154-.686-1.667-.3-.514-.351-1.166-.645-1.683-.293-.518-.957-.825-1.244-1.346-.287-.52-.113-1.29-.394-1.812-.281-.524-1.393-.61-1.668-1.135-.275-.527-.308-1.184-.577-1.713-.268-.53.226-1.44-.036-1.973-.262-.533-1.375-.653-1.63-1.19-.256-.535-.375-1.14-.624-1.68-.25-.538-.05-.865-.292-1.407.645-.574.728-.155 1.526-.485.797-.331.78-.37 1.578-.701.798-.331.587-.84 1.385-1.171.796-.33.795-.332 1.592-.662.797-.331 1.02.208 1.817-.123.799-.33.778-.38 1.576-.71.799-.332.609-.79 1.407-1.121.799-.33.609-.787 1.408-1.118.8-.331.995.14 1.794-.192.8-.331.929-.021 1.729-.352.6-.25.923-.998 1.154-1.555.23-.558-.193-1.014-.442-1.616-.371-.895.238-1.148-.133-2.044-.371-.895-.388-.888-.76-1.784-.248-.601-.678-1.427-1.235-1.658-.558-.231-1.452.034-2.054.283-.796.33-.574.867-1.371 1.198-.797.33-.804.312-1.602.642-.797.33-1.021-.211-1.82.119-.795.33-.545.933-1.341 1.263-.797.33-1.115-.44-1.912-.108-.798.33-.693.583-1.491.914-.798.33-.68.617-1.478.947-.798.33-.744.46-1.542.792-.8.33-1.086-.36-1.885-.028-.8.33-.583.973-1.446 1.03-.208-.544-.873-.92-1.074-1.467-.201-.547.076-1.27-.12-1.818-.194-.55-.661-1.005-.85-1.557-.188-.551.356-1.347.174-1.9-.182-.554-.666-1.006-.841-1.562-.176-.555-.122-1.178-.291-1.735-.17-.558-1.131-.88-1.293-1.441-.163-.558.508-1.355.352-1.916-.156-.561-.87-.97-1.02-1.533-.15-.562.28-1.274.138-1.84-.143-.564-1.266-.887-1.402-1.454-.136-.566-.217-1.152-.347-1.721-.13-.567.429-1.291.306-1.86-.123-.57-.087-1.17-.204-1.74-.116-.57-.813-1.026-.923-1.6-.11-.57-.04-1.177-.143-1.752-.103-.573-.154-1.156-.25-1.73-.097-.575.043-1.187-.047-1.763-.09-.575-.456-1.108-.54-1.685-.082-.577-.583-1.098-.66-1.676-.076-.577.233-1.207.164-1.786-.07-.578-.205-1.151-.268-1.731-.064-.578.379-1.21.323-1.79-.057-.58-.356-1.134-.406-1.715-.05-.58-.548-1.126-.591-1.708-.043-.58.253-1.187.217-1.768-.036-.582.329-1.184.3-1.767-.03-.581-.574-1.138-.597-1.721-.023-.582.186-.924.169-1.507.817-.28.779-.374 1.642-.374.862 0 .862.405 1.724.405s.862-.202 1.725-.202c.86 0 .86.382 1.722.382s.862-.042 1.724-.042c.863 0 .863-.616 1.726-.616.862 0 .862.405 1.724.405.863 0 .863-.78 1.726-.78s.863.874 1.725.874c.864 0 .864-.145 1.727-.145.863 0 .863-.055 1.726-.055s.863-.054 1.726-.054c.864 0 .864-.291 1.728-.291.863 0 .863.339 1.727.339.863 0 .863.252 1.725.252.864 0 .864.158 1.727.158.864 0 .864-.338 1.728-.338s.864-.41 1.728-.41c.865 0 .865.03 1.73.03.866 0 .866.153 1.73.153.652 0 .928-.514 1.355-.94.426-.427.475-.703.475-1.355 0-.97.21-.97.21-1.938 0-.97.447-.97.447-1.94 0-.65-.07-1.563-.495-1.99-.427-.427-1.34-.196-1.991-.196-.863 0-.863-.26-1.725-.26-.863 0-.863-.478-1.725-.478-.862 0-.862 1.145-1.724 1.145s-.862-.574-1.723-.574c-.862 0-.862-.32-1.724-.32-.863 0-.863.7-1.726.7-.862 0-.862-.921-1.725-.921-.863 0-.863-.06-1.726-.06-.862 0-.862.456-1.725.456-.863 0-.863-.208-1.727-.208-.863 0-.863.28-1.725.28-.864 0-.864.51-1.727.51-.864 0-.864-.56-1.727-.56-.864 0-.864-.471-1.728-.471-.862 0-.862.053-1.725.053-.864 0-.864 1.04-1.727 1.04-.864 0-.864-.591-1.728-.591s-.864-.061-1.728-.061c-.865 0-.865-.005-1.731-.005-.865 0-.813.143-1.632-.135.016-.583.349-.86.372-1.442.023-.583-.504-1.188-.474-1.77.029-.582.153-1.16.189-1.741.036-.582.58-1.127.624-1.708.043-.581-.281-1.19-.232-1.77.05-.58-.37-1.205-.314-1.785.056-.58.799-1.091.86-1.67.064-.58.152-1.152.22-1.731.07-.58-.201-1.2-.125-1.777.076-.578-.327-1.224-.245-1.802.083-.577.404-1.123.493-1.698.089-.576.735-1.062.83-1.637.097-.575.284-1.13.386-1.704.103-.574-.063-1.194.046-1.766.109-.572-.28-1.245-.163-1.816.116-.571 1.146-.951 1.268-1.52.123-.57-.31-1.26-.18-1.827.13-.57.44-1.094.576-1.66.136-.568.673-1.032.816-1.597.142-.565-.17-1.243-.02-1.807.149-.563.197-1.154.352-1.716.156-.561-.157-1.258.005-1.818.162-.561 1.326-.823 1.495-1.381.168-.558-.447-1.356-.272-1.912.175-.556.644-1.02.825-1.573.182-.554.133-1.186.32-1.737.189-.552.336-1.122.53-1.67.195-.55.565-1.038.766-1.585.2-.547.509-.964.717-1.51.862.057.94-.086 1.739.245.8.33.56.91 1.359 1.24.8.332.952-.034 1.75.297.799.33.58.859 1.378 1.19.799.33.918.044 1.717.375.8.33.805.318 1.605.65.8.33.835.246 1.635.577.8.332.76.426 1.562.758.8.332.919.046 1.72.378.802.332.624.762 1.426 1.094.6.249 1.303-.162 1.86-.392.558-.23 1.63-.32 1.879-.921.37-.895.202-.965.574-1.861.37-.896-.408-1.218-.037-2.114.249-.601.958-1.218.727-1.776-.231-.557-1.181-.463-1.782-.712-.8-.331-.596-.82-1.395-1.151-.8-.331-.948.028-1.747-.303-.8-.332-.577-.87-1.376-1.201-.798-.331-.685-.605-1.483-.935-.8-.331-1.17.565-1.97.234-.8-.331-.416-1.255-1.216-1.586-.8-.331-1.026.214-1.826-.117-.8-.332-.961.054-1.761-.278-.801-.332-.494-1.074-1.295-1.406-.802-.332-1.382.586-2.034.014.238-.532 1.116-1.224 1.36-1.753.246-.53.573-1.013.824-1.54.25-.526-.335-1.456-.078-1.98.257-.522.386-1.116.649-1.636.263-.52 1.087-.756 1.356-1.273.269-.517.562-1.02.837-1.534.275-.514.746-.92 1.028-1.43.28-.51.243-1.197.53-1.704.287-.507 1.142-.685 1.436-1.19.292-.502-.217-1.48.082-1.98.298-.5.872-.836 1.177-1.333.305-.496 1.037-.724 1.348-1.218.31-.493.615-.984.932-1.473.316-.49-.167-1.502.155-1.99.322-.484 1.049-.703 1.376-1.184.327-.482.509-1.066.842-1.545.333-.478.756-.896 1.095-1.37.338-.474.92-.773 1.264-1.243.344-.47.247-1.268.597-1.735.349-.465 1.043-.673 1.398-1.135.355-.462.706-.927 1.066-1.386.36-.457.78-.867 1.145-1.321.365-.455.383-1.194.753-1.644.37-.45 1.076-.622 1.452-1.067.375-.446.308-1.273.689-1.714.38-.441 1.079-.61 1.465-1.046.386-.437.739-.904 1.13-1.337.39-.432.505-1.122.9-1.55.396-.428.932-.017 1.333-.441.773.38.486.483 1.095 1.093.61.609.6.619 1.21 1.229.61.609 1.042.178 1.652.787.609.61.47.748 1.079 1.358.61.609 1.109.11 1.718.72.61.61-.226 1.447.384 2.057.61.61.617.602 1.227 1.213.61.61 1.047.173 1.658.783.61.61.46.759 1.07 1.369.612.61.82.4 1.432 1.012.61.61.503.717 1.113 1.327s.695.526 1.306 1.137c.61.61.236.985.847 1.595.609.61 1.267-.048 1.876.56.61.61.267.956.877 1.566.61.61.575.647 1.186 1.258.61.612.376.847.987 1.458.61.612.58.643 1.192 1.253.612.612.778.446 1.39 1.059.613.612.453.772 1.065 1.385.46.459 1.354-.164 1.957-.164.604 0 1.475.6 1.935.14.685-.685.81-.561 1.495-1.247.686-.686-.106-1.478.579-2.163.46-.461 1.079-.664 1.079-1.267 0-.603.005-1.43-.455-1.89-.61-.61-.871-.347-1.48-.955-.61-.611-.241-.98-.85-1.59-.61-.61-.684-.535-1.294-1.146-.61-.61-1.151-.066-1.76-.676-.61-.61-.101-1.12-.711-1.728-.61-.61-1.153-.067-1.763-.678-.61-.61-.535-.684-1.145-1.294-.611-.61-.637-.584-1.247-1.194-.61-.61.03-1.251-.58-1.86-.61-.612-.62-.602-1.23-1.212-.61-.611-.677-.544-1.287-1.155-.61-.611-.743-.478-1.353-1.088-.611-.611-.863-.36-1.474-.97-.61-.61-.611-.608-1.22-1.217-.611-.61-.713-.51-1.323-1.12-.611-.61-.54-.682-1.15-1.293-.611-.611-.22-1.003-.83-1.614-.612-.612-.933-.29-1.544-.902-.613-.612-.444-.78-1.057-1.392-.612-.613-1.376-.125-1.758-.903.423-.4 1.068-1.22 1.495-1.615.428-.396.95-.691 1.384-1.082.432-.391 1.298-.293 1.735-.68.437-.384.705-.958 1.146-1.338.44-.381 1.043-.568 1.488-.943.446-.376.457-1.27.907-1.64.45-.372 1.037-.576 1.49-.941.455-.365 1.058-.541 1.516-.9.459-.361.668-1.04 1.13-1.395.463-.355 1.02-.587 1.486-.936.466-.35.81-.866 1.28-1.21s.847-.826 1.32-1.164c.475-.338.926-.72 1.404-1.052.478-.333 1.198-.32 1.68-.647.482-.328 1.089-.465 1.575-.788.486-.322 1.006-.586 1.496-.901.489-.316 1.145-.362 1.638-.673.494-.31.608-1.226 1.104-1.531.497-.305 1.214-.244 1.714-.543.5-.3.665-1.168 1.168-1.461.504-.293 1.352.013 1.859-.274.507-.288.992-.606 1.503-.887.51-.281.619-1.305 1.133-1.58.513-.276 1.26-.117 1.777-.387.517-.27 1.348.082 1.868-.181s.779-1.043 1.302-1.3c.523-.256.802-1.022 1.328-1.273.526-.251 1.309.038 1.838-.206.529-.245 1.47-.918 2.002-1.156.57.65.228 1.044.559 1.843.33.798.558.705.889 1.504.33.8-.124.989.207 1.789.33.797.382.776.713 1.574.33.8.48.737.81 1.537.332.8-.131.99.2 1.79.332.802 1.01.52 1.343 1.32.332.8.204.854.535 1.654.332.8.337.799.669 1.6.332.803.393.777.725 1.579.249.6.38.946.938 1.177.557.23.972.268 1.573.019.896-.372.862-.454 1.758-.825.896-.37 1.196.354 2.092-.017.6-.25.763-1.145.994-1.701.23-.558.809-1.331.559-1.932-.331-.8-.277-.82-.608-1.62-.331-.8-.924-.554-1.256-1.353-.331-.8-.087-.901-.418-1.7-.331-.8-.813-.6-1.144-1.396-.331-.8-.37-.783-.701-1.582-.331-.8-.072-.908-.403-1.707-.332-.8-.3-.814-.631-1.614-.331-.801-.774-.617-1.106-1.417-.332-.802.264-1.05-.068-1.85-.332-.802-1.274-.672-1.331-1.538.545-.207 1.802-.165 2.349-.367.547-.201 1.178-.153 1.728-.347.549-.195.784-1.291 1.335-1.48.552-.187 1.355.377 1.909.196.554-.182 1.075-.451 1.63-.625.557-.176 1.16-.178 1.719-.346.558-.17.989-.755 1.549-.917.56-.162 1.005-.737 1.567-.892.56-.155 1.136-.28 1.699-.428.563-.15 1.215.034 1.78-.108.565-.142 1.02-.745 1.587-.881s1.262.268 1.83.138c.568-.13 1.195.018 1.765-.106.57-.122 1.074-.548 1.645-.665.57-.116 1.046-.735 1.619-.844.572-.11 1.249.335 1.823.232.573-.102 1.06-.717 1.636-.812.575-.096 1.232.305 1.808.216.576-.088 1.143-.235 1.72-.318.577-.082 1.226.387 1.804.312.578-.077 1.023-1.207 1.602-1.277.579-.068 1.268.827 1.848.764.579-.063 1.147-.187 1.728-.243.579-.056 1.079-1.012 1.66-1.061.58-.05 1.23.778 1.813.735.58-.043 1.124-.643 1.706-.68.58-.034 1.205.706 1.787.676.582-.03 1.126-.863 1.709-.886.582-.023 1.592.08 2.176.063.278.817-.78 1.006-.78 1.869 0 .862.338.862.338 1.724s-.423.862-.423 1.725c0 .86.442.86.442 1.722 0 .863-.534.863-.534 1.725 0 .862.198.862.198 1.726 0 .862.2.862.2 1.724 0 .863.029.863.029 1.726 0 .862.642.862.642 1.725 0 .864-.901.864-.901 1.727 0 .863.902.863.902 1.726s-.02.863-.02 1.726c0 .864-.824.864-.824 1.728 0 .863.91.863.91 1.727 0 .862-.385.862-.385 1.726 0 .863-.316.863-.316 1.726 0 .865.707.865.707 1.728 0 .864-.698.864-.698 1.728 0 .866.295.866.295 1.73 0 .866-.046.866-.046 1.732 0 .65.055 1.296.48 1.722.428.427 1.073 1.04 1.723 1.04.97 0 .97-.047 1.94-.047.969 0 .969-.032 1.939-.032.65 0 .996-.834 1.423-1.26.426-.427.67-.772.67-1.423 0-.863.15-.863.15-1.725 0-.863.024-.863.024-1.725 0-.862.35-.862.35-1.725 0-.861-.437-.861-.437-1.722 0-.862.502-.862.502-1.724 0-.863-.313-.863-.313-1.726s-.511-.863-.511-1.724c0-.863.309-.863.309-1.727 0-.862.128-.862.128-1.724 0-.863.574-.863.574-1.728 0-.862-1.055-.862-1.055-1.725 0-.864.95-.864.95-1.727 0-.863-.156-.863-.156-1.726 0-.865-.171-.865-.171-1.728 0-.862-.421-.862-.421-1.726 0-.863-.251-.863-.251-1.727 0-.863.367-.863.367-1.727 0-.864.812-.864.812-1.728 0-.865-.213-.865-.213-1.731 0-.865-1.053-1.047-.774-1.867.582.017 1.543.729 2.125.752.582.023 1.214-1.043 1.796-1.014.582.03 1.123.809 1.704.846.582.036 1.164.028 1.745.07.58.044 1.156.136 1.736.186.58.05 1.19-.226 1.77-.17.58.058 1.185-.092 1.764-.028.579.063 1.077.83 1.655.9.579.07 1.153.137 1.73.214.578.077 1.133.284 1.709.368.577.083 1.295-.771 1.87-.681.576.09 1.144.258 1.718.355.575.097.985 1.13 1.558 1.234.574.104 1.318-.716 1.89-.606.572.109 1.134.29 1.705.408.57.117 1.18.069 1.75.192.57.123 1.066.592 1.634.722.568.13 1.102.406 1.668.543.567.137 1.007.773 1.57.915.566.144 1.309-.407 1.872-.257.563.15 1.135.274 1.696.43.562.156 1.046.587 1.605.75.56.163.989.754 1.546.923.557.169 1.095.383 1.65.559.556.175 1.243-.07 1.796.112.554.18.945.835 1.496 1.023.552.189 1.102.359 1.65.553.55.195 1.18.15 1.726.353.547.2 1.468.124 2.012.33-.055.86-.205.94-.535 1.737-.33.796-.96.535-1.29 1.33-.33.798-.397.77-.727 1.566-.33.795-.116.883-.445 1.678-.33.796-.352.787-.682 1.583-.33.797-.188.856-.52 1.653-.33.796-.755.62-1.086 1.417-.33.796.13.988-.2 1.785-.33.798-.864.577-1.195 1.375-.33.798-.24.836-.571 1.634-.25.602.676 1.19.907 1.747.23.558.136 1.283.737 1.532.896.37.815.567 1.71.938.896.37.915.326 1.81.697.602.25 1.503.468 2.06.237.558-.231 1.33-.903 1.58-1.504.329-.796.415-.76.745-1.556.33-.797-.545-1.16-.215-1.955.329-.797 1.19-.44 1.52-1.236.33-.795.27-.82.6-1.614.329-.796.366-.782.696-1.578.33-.796-.471-1.127-.141-1.924.33-.797.496-.73.826-1.526.33-.797.699-.644 1.03-1.441.33-.8-.171-1.006.16-1.805.33-.798.37-.811.94-1.461.533.238.86.789 1.39 1.033.529.245.978.646 1.504.896s1.55-.531 2.074-.274c.523.255.565 1.479 1.085 1.742.52.262 1.42-.22 1.938.049.517.269 1.129.369 1.642.643.514.274.922.755 1.433 1.036.51.28 1.145.349 1.652.635.507.286.909.769 1.413 1.06.504.293.76 1.009 1.26 1.307.5.298 1.092.445 1.589.75.497.304 1.039.536 1.532.847.493.309.944.689 1.433 1.005.49.314 1.073.49 1.559.81.486.323 1.179.343 1.66.669.484.327.84.848 1.318 1.18.479.332.89.766 1.366 1.103.474.337.564 1.208 1.035 1.55.47.344 1.342.144 1.808.492.467.348.45 1.334.913 1.688.463.353 1.363.14 1.822.499.458.358.987.635 1.44 1 .455.364.989.638 1.44 1.008.45.369.66 1.03 1.107 1.406.445.375.528 1.173.97 1.553.44.38 1.284.296 1.72.68.438.386.742.92 1.175 1.31.432.392 1.293.316 1.722.712.427.394.968 1.453 1.392 1.853-.38.774-1.277.195-1.886.804-.61.609-.355.864-.965 1.475-.61.609-.7.519-1.31 1.13-.61.608-.366.85-.976 1.46-.61.609-1.055.164-1.665.773-.61.61-.544.677-1.154 1.287-.61.609-.512.708-1.121 1.317-.611.61-.248.973-.86 1.583-.61.61-.843.376-1.453.986-.611.61-.404.817-1.014 1.429-.611.61-1.144.077-1.754.686-.611.61-.72.5-1.331 1.112-.61.61-.366.855-.976 1.465-.61.61-.698.522-1.308 1.13-.61.61-.262.959-.872 1.569-.611.612-.522.702-1.133 1.312-.611.61-.952.27-1.563.882-.611.61-.166 1.055-.778 1.667-.612.612-1.02.206-1.631.818-.612.612-.47.756-1.081 1.367-.46.46-1.031.982-1.031 1.585s.46 1.235.92 1.696c.686.685.34 1.03 1.026 1.716.686.686 1.379-.007 2.065.678.46.46.744 1.105 1.347 1.105s.99-.54 1.45-1.001c.61-.61.532-.687 1.14-1.296.61-.61 1.189-.031 1.799-.642.609-.61.75-.468 1.36-1.078.61-.61.44-.777 1.05-1.387.61-.61.065-1.154.675-1.764.61-.611.77-.45 1.38-1.06.61-.61 1.098-.123 1.707-.733.61-.611.225-.996.835-1.607.61-.61.882-.338 1.492-.948.61-.61-.003-1.225.608-1.835.61-.61.623-.597 1.234-1.206.61-.611 1.213-.01 1.823-.62.61-.61.337-.883.948-1.494.609-.61.984-.235 1.594-.844.61-.61.58-.641 1.19-1.251.61-.611.079-1.144.69-1.755.61-.61.78-.44 1.392-1.052.612-.611.566-.657 1.177-1.268.612-.612.67-.555 1.282-1.167s.393-.986 1.169-1.37c.4.425 1.176.759 1.57 1.186.397.429.456 1.166.847 1.599.39.432.897.763 1.282 1.199.387.437.284 1.297.664 1.738.38.442 1 .673 1.377 1.119.376.445 1.109.592 1.48 1.042.37.45.612 1.007.978 1.46.366.456.903.776 1.263 1.234.36.458.287 1.253.642 1.716.355.462.973.723 1.323 1.189.349.467.828.84 1.172 1.31.344.47.686.947 1.024 1.42.339.475.882.81 1.215 1.289.333.478-.105 1.488.223 1.969.328.483 1.369.486 1.69.97.323.486.753.908 1.069 1.398.317.49.133 1.3.444 1.795.31.493 1.156.658 1.46 1.154.305.497-.24 1.51.059 2.01.299.5 1.008.756 1.3 1.26.294.504.139 1.262.427 1.77.287.507 1.113.71 1.394 1.222.282.509.526 1.043.802 1.556.275.514.868.863 1.137 1.38.27.518.462 1.08.726 1.6.263.519.16 1.224.418 1.748.257.522.29 1.152.54 1.678.252.527 1.087.78 1.332 1.308.245.529.496 1.702.734 2.233-.65.57-1.114.086-1.913.417-.8.33-.731.495-1.53.826-.8.33-.761.424-1.561.755-.798.332-1.14-.495-1.938-.165-.8.332-.614.778-1.413 1.109-.8.332-.848.215-1.648.547-.8.33-.86.186-1.66.517-.8.332-.842.23-1.642.56-.802.333-.46 1.16-1.26 1.493-.802.332-1.02-.194-1.822.137-.601.25-.557.896-.788 1.454-.23.557-.416.858-.167 1.46.37.895-.503 1.258-.132 2.153.37.896.923.667 1.294 1.563.249.6.664 1.156 1.22 1.387.558.23 1.217.066 1.818-.183.799-.331.665-.656 1.464-.987.799-.331.976.097 1.776-.234.799-.331.789-.355 1.589-.686.798-.331 1.01.182 1.808-.15.799-.33.49-1.073 1.29-1.404.8-.331.92-.042 1.719-.373.8-.332.799-.334 1.599-.666.8-.331.834-.25 1.634-.581.802-.332.548-.945 1.35-1.277.8-.332.904-.558 1.77-.616.207.545.932 1.332 1.133 1.879.2.547.443 1.086.637 1.636.195.549-.04 1.252.148 1.803.188.55-.06 1.248.122 1.8.18.555.296 1.126.47 1.682.177.556.31 1.119.479 1.677.169.557.913.943 1.075 1.504.162.559-.42 1.327-.264 1.888.155.562.793.989.942 1.552.149.563.924.968 1.066 1.533.142.565-.138 1.238-.003 1.805.136.566.249 1.14.378 1.708.129.568-.033 1.2.09 1.769.122.57.549 1.076.665 1.648.116.57-.062 1.199.047 1.77.109.574.373 1.117.475 1.69.103.574.337 1.125.433 1.7.096.574.196 1.15.285 1.727.089.575.5 1.106.582 1.683.083.577-.864 1.294-.788 1.872.076.577.355 1.124.424 1.703.07.579.088 1.159.15 1.739.063.579-.044 1.17.012 1.75.056.58.102 1.154.152 1.735.049.58 1.03 1.085 1.073 1.667.042.58.02 1.17.057 1.752.036.58.287 1.155.317 1.737.029.582-1.046 1.213-1.023 1.796.023.582.659 1.177.675 1.76-.816.278-.875-.071-1.738-.071-.862 0-.862.053-1.725.053-.862 0-.862.289-1.724.289s-.862.11-1.724.11-.862-.51-1.724-.51c-.863 0-.863-.321-1.726-.321s-.863-.01-1.725-.01c-.863 0-.863.256-1.726.256s-.863-.352-1.726-.352-.863.662-1.727.662c-.863 0-.863-.053-1.726-.053s-.863.145-1.727.145c-.863 0-.863-.486-1.727-.486-.864 0-.864.022-1.728.022-.863 0-.863.407-1.726.407-.864 0-.864-.527-1.727-.527-.864 0-.864-.054-1.728-.054s-.864.482-1.728.482c-.866 0-.866-.054-1.732-.054-.865 0-.865-.153-1.731-.153-.65 0-.98.654-1.406 1.08-.426.427-1.372.756-1.372 1.406 0 .97.68.97.68 1.94 0 .969-.801.969-.801 1.938 0 .652.837 1.209 1.264 1.636.426.427.985.992 1.635.992.863 0 .863-.112 1.726-.112.862 0 .862-.655 1.725-.655.862 0 .862.204 1.724.204s.862.738 1.724.738.862-.18 1.724-.18c.863 0 .863-.706 1.726-.706.862 0 .862.356 1.724.356.864 0 .864.45 1.727.45.863 0 .863-.154 1.725-.154.864 0 .864-.127 1.727-.127.863 0 .863-.497 1.726-.497.864 0 .864.433 1.727.433.864 0 .864-.301 1.728-.301.863 0 .863-.031 1.727-.031.863 0 .863.38 1.726.38s.863-.353 1.727-.353c.864 0 .864-.126 1.728-.126s.864.5 1.728.5c.866 0 .866-.05 1.73-.05.867 0 1.102-.874 1.92-.596-.015.583.07 1.733.047 2.315-.024.583.088 1.176.058 1.757-.03.582-.627 1.134-.663 1.715-.037.582-.16 1.155-.203 1.736-.044.58.145 1.18.095 1.76-.05.58-.49 1.124-.546 1.703-.057.58.273 1.199.21 1.778-.064.579-.32 1.135-.39 1.713-.07.58-.181 1.15-.257 1.728-.077.577.24 1.21.158 1.786-.083.577-.824 1.054-.914 1.629-.09.576-.1 1.159-.195 1.734-.097.575-.125 1.158-.228 1.73-.103.574-.327 1.12-.437 1.692-.11.573-.002 1.185-.12 1.755-.115.57-.227 1.14-.35 1.71-.123.569.509 1.309.379 1.877-.13.568-1.275.899-1.411 1.465-.137.566-.027 1.189-.17 1.755-.142.564.058 1.218-.092 1.78-.15.565-.635 1.036-.791 1.597-.156.56.033 1.22-.13 1.78-.162.56-.1 1.19-.27 1.747-.168.558-1.05.895-1.225 1.45-.175.556.36 1.34.179 1.895-.182.554-.964.907-1.153 1.458-.188.552-.281 1.134-.476 1.682-.195.55.263 1.337.062 1.884-.201.547-.985 1.35-1.192 1.894-.861-.056-.752-.826-1.55-1.156-.796-.33-.921-.03-1.718-.36-.798-.331-.563-.897-1.361-1.227-.796-.33-.78-.37-1.575-.701-.796-.33-1.063.314-1.86-.016-.798-.33-.522-.996-1.32-1.327-.798-.33-.822-.274-1.62-.604-.798-.331-.746-.456-1.544-.787-.8-.331-.748-.453-1.548-.784-.8-.332-1.214.669-2.013.338-.602-.25-1.135-.851-1.693-.62-.557.23-.492 1.04-.741 1.642-.3.719-.992.432-1.29 1.152-.3.718.305.969.007 1.688-.298.722-1.027.419-1.326 1.14-.298.72-1.02 1.105-.674 1.804.396.8 1.458-.354 2.282-.012.823.34.755.507 1.578.848.824.34.856.265 1.68.606.825.342.447 1.254 1.27 1.595.824.34 1.118-.37 1.94-.028.824.34.954.028 1.778.368.825.342.535 1.042 1.359 1.383.825.342.827.338 1.652.68s.92.11 1.745.452c.826.343.608.87 1.434 1.212.827.343 1.147-.353 1.822.235-.243.542-.29 1.12-.538 1.66-.25.54-.438 1.112-.694 1.648-.255.537-.562 1.052-.824 1.585-.262.533-.98.839-1.248 1.369-.27.53-.212 1.226-.487 1.753-.275.526-.277 1.2-.558 1.725-.281.523-1.032.793-1.32 1.313-.287.52-.851.88-1.145 1.398-.293.517-.043 1.344-.343 1.858-.3.513-1.135.707-1.441 1.217-.306.509.282 1.563-.03 2.069-.311.506-.838.885-1.156 1.387-.317.502-.662.992-.986 1.49-.323.499-.416 1.155-.746 1.65-.33.495-1.566.378-1.901.87-.335.49-.39 1.17-.73 1.658-.341.486-.313 1.236-.66 1.718-.347.483-.52 1.098-.873 1.577-.352.478-1.501.363-1.86.838-.357.474-.226 1.32-.59 1.79s-1.142.614-1.511 1.08c-.37.465-.161 1.394-.536 1.856-.374.46-1.15.596-1.53 1.053-.38.457-.74.928-1.126 1.38-.385.453-.456 1.177-.847 1.626-.391.448-1.025.683-1.421 1.127-.396.443-1.128.58-1.53 1.018-.4.439-.221 1.412-.628 1.847-.184.197-.637.16-.782.163-.196.006-.257-.33-.396-.467-.628-.63-.521-.735-1.15-1.364-.628-.628-.988-.27-1.616-.897-.627-.627-.594-.661-1.221-1.29-.63-.627-.264-.992-.892-1.62-.628-.63-.844-.412-1.473-1.041-.628-.63-.566-.691-1.194-1.32-.628-.628-.755-.501-1.384-1.13-.63-.628-.708-.55-1.336-1.178-.63-.63-.736-.523-1.365-1.152-.628-.63-.077-1.181-.705-1.81-.63-.628-1.367.11-1.996-.52-.63-.628-.477-.78-1.106-1.41-.628-.627-.647-.608-1.275-1.236-.63-.63-.284-.973-.913-1.602-.63-.63-.858-.402-1.487-1.031-.63-.63-.46-.801-1.09-1.43-.63-.63-.54-.72-1.17-1.35-.63-.63-.451-.808-1.082-1.44-.631-.63-.903-.36-1.533-.99-.461-.46-1.088-1.03-1.691-1.03s-1.623.178-2.083.639c-.685.686-.013 1.357-.7 2.043-.684.686-.866.504-1.552 1.19-.46.46-.707.989-.707 1.592 0 .604.19 1.189.65 1.649.629.629.357.9.985 1.529.628.628 1.02.236 1.648.865.628.627.292.963.92 1.59.628.629.513.743 1.14 1.37.63.63.795.465 1.424 1.094.628.628.62.636 1.249 1.264.629.628.819.438 1.448 1.067.628.629.235 1.02.864 1.65.628.629 1.176.082 1.805.71.628.63.43.828 1.058 1.457.63.629.856.403 1.485 1.032.629.628.427.83 1.056 1.46.628.627.23 1.025.859 1.653.629.629.755.502 1.384 1.13.63.63.617.643 1.247 1.272.63.63.606.654 1.236 1.283.63.63.516.745 1.145 1.373.63.63.888.374 1.519 1.005.63.63.515.747 1.146 1.378.435.436.923.925 1.422 1.26.508.342 1.245.375 1.805.607.56.233 1.266-.09 1.865.028.59.116 1.12.057 1.737.057.052 0 .098-.003.15-.004.635-.011 1.198.115 1.802-.018.614-.134 1.062-.503 1.632-.756.57-.254 1.42.046 1.93-.32.504-.361 1.31-.501 1.744-.964.402-.43.068-1.542.465-1.976.397-.433 1.503-.227 1.895-.665.392-.438.824-.85 1.21-1.292.389-.443.299-1.302.682-1.75.382-.446.527-1.091.905-1.542.378-.451.958-.73 1.33-1.185.373-.455.989-.715 1.356-1.173.368-.46.298-1.265.66-1.728.363-.463 1.203-.556 1.56-1.023.359-.467.665-.976 1.017-1.446.353-.472.42-1.154.768-1.627.348-.476.944-.771 1.285-1.25.342-.478.109-1.361.445-1.843.337-.482 1.33-.51 1.66-.996.333-.486-.046-1.448.28-1.938.325-.49 1.468-.441 1.789-.934.32-.493-.151-1.494.164-1.99.315-.498.745-.916 1.054-1.416.31-.5 1.455-.492 1.759-.995.304-.504.564-1.041.862-1.547.298-.508.455-1.103.747-1.613.293-.511.537-1.053.824-1.566.287-.513.247-1.21.528-1.726.28-.516 1.073-.761 1.348-1.281.276-.521.607-1.018.877-1.54.269-.524.533-1.056.797-1.582.264-.525-.515-1.567-.258-2.096.258-.53 1.544-.563 1.796-1.095.252-.531-.223-1.405.023-1.94.246-.533.92-.873 1.16-1.41.24-.536.38-1.12.614-1.66.234-.54.667-.997.895-1.54.228-.541-.277-1.386-.055-1.931.222-.545 1.145-.808 1.36-1.354.217-.547.376-1.121.586-1.67.21-.55-.228-1.341-.024-1.893.204-.552 1.237-.803 1.434-1.356.198-.554-.146-1.3.046-1.856.19-.557.379-1.112.565-1.671.185-.557.685-1.014.864-1.574.179-.561-.175-1.287-.003-1.85.173-.562.908-.955 1.074-1.518.167-.565.346-1.128.506-1.694.16-.566-.341-1.314-.187-1.882.154-.568.132-1.176.28-1.745.147-.57 1.138-.924 1.279-1.495.14-.571.47-1.101.605-1.673.135-.573.137-1.18.266-1.754.128-.575-.103-1.23.019-1.804.122-.575.458-1.107.573-1.685.116-.576-.216-1.24-.106-1.818.109-.577.063-1.181.166-1.76.103-.578.916-1.035 1.012-1.615.097-.58-.01-1.195.08-1.777.09-.58-.053-1.198.03-1.78.084-.582.714-1.09.79-1.673.078-.583-.11-1.204-.038-1.788.07-.583-.406-1.23-.342-1.814.064-.584.616-1.117.673-1.702.058-.585-.63-1.237-.58-1.823.053-.586.329-1.148.374-1.735.045-.586-.128-1.182-.09-1.77.039-.586.294-1.155.326-1.742.032-.587.884-1.134.91-1.722.026-.588-.753-1.207-.734-1.795.02-.587.434-1.163.447-1.751.013-.588-.04-1.178-.033-1.766.007-.588-.417-1.175-.417-1.764 0-.59.35-1.177.344-1.765-.006-.59.588-1.19.575-1.777-.013-.59-.797-1.158-.816-1.746-.02-.59.067-1.18.042-1.767-.026-.588-.384-1.156-.416-1.743-.032-.59.227-1.191.189-1.777-.038-.587.237-1.197.192-1.784-.045-.587 0-1.182-.051-1.768-.051-.587-.883-1.1-.94-1.685-.058-.586 1.015-1.29.95-1.874-.063-.585-.182-1.17-.252-1.754-.07-.585-1.276-1.025-1.353-1.608-.077-.584.786-1.295.703-1.878-.083-.582-.521-1.114-.611-1.695-.09-.582.419-1.263.323-1.843-.096-.581-1.276-.978-1.38-1.557-.101-.58.604-1.305.495-1.884-.11-.578-.946-1.015-1.061-1.591-.115-.578-.187-1.16-.308-1.736-.122-.575.153-1.235.025-1.81s-.242-1.153-.376-1.726c-.135-.573-.33-1.132-.47-1.703-.141-.571.127-1.248-.02-1.818-.147-.57-.313-1.14-.467-1.708-.153-.568-.666-1.04-.825-1.606-.16-.566-.64-1.04-.806-1.604-.167-.565-.531-1.065-.704-1.627-.172-.564-.396-1.104-.575-1.664-.18-.561.092-1.265-.093-1.824-.185-.558-.806-.966-.997-1.523-.191-.557.582-1.45.385-2.005-.198-.555-.38-1.12-.584-1.673-.203-.552-1.406-.728-1.616-1.278-.21-.55-.185-1.187-.401-1.733-.216-.548-.712-.978-.934-1.523-.223-.545.576-1.513.348-2.055-.228-.542-1.101-.811-1.336-1.351-.234-.54-.488-1.07-.73-1.606-.24-.537-.863-.895-1.11-1.43-.245-.534-.137-1.23-.39-1.76-.252-.532-.18-1.22-.44-1.748-.257-.528-.572-1.031-.836-1.557s-.542-1.046-.812-1.568c-.27-.523-.517-1.06-.792-1.58-.276-.52-.558-1.037-.84-1.554-.282-.517-1.105-.731-1.392-1.245-.288-.513-.565-1.025-.858-1.536-.293-.51-.472-1.082-.771-1.59-.298-.506-.484-1.076-.79-1.58-.303-.503-.79-.89-1.101-1.391-.31-.5-.025-1.372-.34-1.87-.316-.495-1.06-.717-1.38-1.21-.321-.493-.193-1.282-.52-1.772-.326-.49-.645-.99-.977-1.474-.332-.486-.76-.91-1.097-1.392-.337-.482-1.222-.575-1.565-1.053-.342-.478-.15-1.343-.497-1.818-.348-.474-.88-.813-1.233-1.285-.353-.47-.737-.917-1.096-1.384-.358-.466-.443-1.146-.806-1.61-.363-.462-1.37-.413-1.737-.872-.37-.46-.377-1.206-.751-1.661-.373-.454-.714-.935-1.093-1.386-.38-.45-1.178-.54-1.561-.986-.384-.446-.242-1.345-.63-1.788-.388-.442-.85-.821-1.242-1.258-.393-.438-.653-.998-1.051-1.433-.397-.433-1.025-.655-1.427-1.085-.402-.43-1.104-.57-1.511-.996-.407-.425-.29-1.356-.701-1.777-.412-.42-.79-.88-1.206-1.295" fill="#DAE0EC"/><path d="M233.846 193.802c0-35.278-28.599-63.878-63.877-63.878-35.279 0-63.878 28.6-63.878 63.878s28.6 63.877 63.878 63.877 63.877-28.6 63.877-63.877" fill="#2EA2FF"/><path d="M173.544 185.112c-2.924-1.203-57.373-19.83-99.492-34.209-3.787-1.293-6.024 4.146-2.423 5.892 40.044 19.42 91.84 44.497 94.764 45.7 4.801 1.974 10.293-.317 12.267-5.116 1.975-4.8-.316-10.292-5.116-12.267" fill="#252B3A"/><path d="M167.73 193.802a2.238 2.238 0 1 0 4.477 0 2.238 2.238 0 0 0-4.476 0" fill="#FFF"/></g></svg>