<svg width="340" height="340" xmlns="http://www.w3.org/2000/svg" xmlns:xlink="http://www.w3.org/1999/xlink"><defs><path id="a" d="M0 .899h234.914v36.228H0z"/><path id="c" d="M.99.153h233.53v233.531H.99z"/></defs><g fill="none" fill-rule="evenodd"><path d="M108.075 134.514c-.796.013-.259-1.404-.822-1.967-.563-.563-.731-.396-1.294-.96-.564-.563-.658-.469-1.222-1.032-.565-.565-.22-.91-.784-1.474-.564-.564-1.117.069-1.108-.729.008-.816.432-.31 1.01-.886.576-.577.214-.938.79-1.515.579-.577.897-.259 1.474-.836.576-.578.047-1.107.623-1.684.579-.578 1.082-.076 1.66-.653.577-.578.345-.81.923-1.387.577-.577.877-.277 1.454-.854.576-.577.336-.818.913-1.394.576-.576.145-1.008.723-1.585.577-.577.629-.525 1.206-1.102.576-.578.69-.465 1.267-1.042.578-.577 1.192.036 1.768-.542.578-.578-.04-1.196.537-1.774.578-.578.47-.684 1.048-1.26.578-.579 1.015-.14 1.592-.718.578-.576.47-.684 1.048-1.262.578-.577.81-.344 1.386-.922.578-.578.03-1.126.607-1.704.577-.578.545-.612 1.121-1.19.578-.577.88-.275 1.458-.852.577-.577.36-.795.937-1.372.578-.578.796-.359 1.374-.937.579-.578.639-.517 1.216-1.096.577-.578.608-.546 1.186-1.124.578-.577.686-.469 1.263-1.047.577-.578.532-.624 1.11-1.202.575-.576.68-.472 1.256-1.047.576-.577.521-.632 1.098-1.208.577-.578.616-.539 1.194-1.116.578-.577.75-.405 1.328-.984.578-.576.342-.811.92-1.388.576-.578.202-.95.78-1.528.577-.576.89-.263 1.468-.84.579-.577.707-.449 1.285-1.027.577-.577.772-.384 1.35-.962.577-.577.272-.881.849-1.459.578-.578.434-.723 1.01-1.301.58-.578.926-.23 1.505-.81.578-.577.028-1.127.606-1.704.579-.579 1.007-.15 1.586-.728.58-.578.807-.35 1.385-.929.577-.577-.14-1.295.438-1.874.58-.58.544-.615 1.123-1.193.579-.578 1.002-.154 1.58-.733.58-.578.396-.762.975-1.34.577-.577.315-.84.893-1.417.578-.58 1.323.166 1.901-.413.58-.579.385-.773.965-1.352.58-.579.188-.971.766-1.55.58-.58 1.128-.032 1.708-.61.579-.58-.001-1.162.578-1.742.58-.58.61-.602 1.431-.614.797-.012.669.173 1.233.736.563.564.722.405 1.285.968.565.563.4.73.962 1.293.565.565.802.328 1.366.892.564.565.822.672.812 1.47-.008.814-.455.72-1.032 1.296-.577.577-.833.321-1.41.898l-1.152 1.155c-.578.577-.129 1.026-.706 1.603-.578.578-.859.298-1.436.876-.577.577-.994.16-1.572.737-.577.578-.036 1.12-.613 1.697-.577.575-1 .152-1.578.73-.576.577-.142 1.01-.719 1.587s-1.025.13-1.602.707c-.576.577.007 1.16-.57 1.738-.578.578-1.062.094-1.64.672-.576.578-.257.897-.834 1.475-.578.577-.907.247-1.485.825-.576.577-.773.382-1.35.958-.577.578-.466.689-1.044 1.267-.578.575-.291.86-.87 1.438-.577.578-.261.893-.84 1.471-.577.578-1.053.102-1.63.68-.579.578-.662.494-1.239 1.072-.577.577-.731.424-1.308 1-.578.577-.281.874-.86 1.451-.577.58-.13 1.026-.708 1.604-.577.578-.924.232-1.502.81-.576.577-.223.931-.8 1.51-.576.577-.978.176-1.556.754-.576.576-.409.744-.985 1.32-.575.576-.984.168-1.56.744-.578.577-.699.457-1.275 1.035-.58.578-.312.844-.89 1.423-.577.576-.17.984-.746 1.561s-.917.238-1.494.814c-.576.577-.381.774-.958 1.35-.578.578-.911.245-1.49.823-.577.577-.444.712-1.02 1.29-.578.577-.827.328-1.404.906-.577.578-.18.975-.758 1.552-.58.579-.365.793-.944 1.372-.576.577-.762.392-1.34.97-.578.579-.464.694-1.04 1.272-.58.579-.587.571-1.165 1.15-.579.578-.563.593-1.142 1.172-.578.579-1.173-.016-1.75.562-.58.579-.444.715-1.023 1.294-.578.578-.063 1.093-.642 1.671-.578.578-.819.337-1.397.915-.577.578-.553.602-1.132 1.18-.58.58-.35.808-.929 1.387-.58.58-1.09.07-1.668.65-.58.578-.595.563-1.175 1.142-.58.58-.873.478-1.257 1.203-.506.964-.04 1.83-.86 1.843m179.117 15.09c-.583.57-.424.22-1.24.22-.815 0-.815-.338-1.631-.338-.816 0-.816.432-1.632.432s-.816.04-1.631.04c-.817 0-.817.457-1.634.457-.815 0-.815.093-1.632.093-.815 0-.815-.876-1.631-.876-.816 0-.816.201-1.632.201s-.816-.182-1.631-.182c-.815 0-.815.417-1.632.417-.815 0-.815-.336-1.63-.336-.816 0-.816.476-1.632.476s-.816-.45-1.63-.45c-.817 0-.817-.27-1.632-.27-.817 0-.817.773-1.633.773-.816 0-.816-.545-1.632-.545s-.816.747-1.632.747c-.817 0-.817.045-1.633.045-.817 0-.817-1.017-1.632-1.017l-1.632-.001c-.816 0-.816.198-1.631.198-.816 0-.816.396-1.631.396-.817 0-.817-.592-1.632-.592-.816 0-.816.861-1.632.861-.815 0-.815-.154-1.632-.154-.816 0-.816-.66-1.632-.66-.817 0-.817.364-1.633.364-.817 0-.817.351-1.633.351-.817 0-.817-.324-1.631-.324-.816 0-.816.01-1.633.01-.815 0-.815.061-1.631.061-.816 0-.816.47-1.632.47s-.816-.46-1.632-.46-.816.503-1.632.503-.816-.366-1.633-.366c-.817 0-.817.007-1.633.007-.816 0-.816.083-1.631.083-.817 0-.817.185-1.633.185-.816 0-.816-.5-1.632-.5-.814 0-.814.383-1.63.383-.814 0-.814-.227-1.63-.227-.813 0-.813.169-1.627.169-.815 0-.815-.253-1.63-.253s-.815.134-1.63.134c-.814 0-.814-.126-1.63-.126-.815 0-.815.069-1.63.069s-.815.379-1.632.379c-.816 0-.816-.387-1.633-.387-.817 0-.817-.486-1.633-.486-.815 0-.815.038-1.631.038-.816 0-.816.752-1.632.752-.814 0-.814-.275-1.63-.275-.815 0-.815-.403-1.63-.403-.816 0-.816-.096-1.63-.096-.817 0-.817.89-1.632.89s-.815-.801-1.631-.801c-.816 0-.816-.085-1.633-.085-.817 0-.817-.09-1.633-.09-.818 0-.818.538-1.633.538-.816 0-.816.433-1.632.433s-.816-.89-1.632-.89c-.815 0-.815.563-1.63.563-.817 0-.817-.19-1.633-.19-.815 0-.815-.09-1.631-.09-.817 0-.817.112-1.634.112s-.817.348-1.635.348c-.815 0-.815-.404-1.631-.404-.817 0-.817.572-1.632.572-.817 0-.817-.103-1.632-.103-.816 0-.816-.87-1.633-.87-.817 0-.817.966-1.634.966s-.817-.625-1.633-.625c-.817 0-.817.398-1.633.398-.816 0-.816.258-1.634.258-.816 0-.816-.496-1.632-.496-.817 0-.817-.067-1.635-.067-.817 0-.817.012-1.633.012-.817 0-.817-.153-1.633-.153-.817 0-.817.032-1.634.032s-.817.043-1.634.043c-.818 0-.818.296-1.634.296s-.816-.437-1.634-.437c-.817 0-.817-.29-1.634-.29s-.817.625-1.634.625c-.818 0-.818-.189-1.634-.189-.817 0-.817.567-1.634.567s-.817-.727-1.634-.727-.817.62-1.632.62c-.817 0-.817-.55-1.633-.55-.816 0-.816.194-1.633.194-.816 0-.816.568-1.634.568-.817 0-.817-.635-1.633-.635-.818 0-.818.318-1.635.318-.817 0-.817.272-1.634.272s-.817.033-1.635.033c-.818 0-.818-.536-1.635-.536-.818 0-.818.268-1.635.268-.818 0-.818-.352-1.637-.352-.817 0-.817.12-1.634.12-.818 0-.818-.282-1.635-.282-.818 0-.818-.164-1.636-.164s-.818.355-1.636.355c-.819 0-.819.377-1.636.377-.82 0-.82-.294-1.64-.294s-.863.328-1.45-.243c-.571-.555.117-.602.117-1.4 0-.796-.552-.796-.552-1.592 0-.797.182-.797.182-1.593 0-.8-.286-.8-.286-1.597 0-.8-.19-1.008.38-1.566.583-.57.785-.108 1.6-.108.817 0 .817-.106 1.632-.106.817 0 .817.238 1.632.238.816 0 .816-.14 1.633-.14.816 0 .816-.43 1.633-.43.815 0 .815-.043 1.631-.043.816 0 .816.721 1.632.721.817 0 .817-.041 1.631-.041.816 0 .816.394 1.632.394s.816-.172 1.632-.172c.814 0 .814-.648 1.63-.648s.816.606 1.632.606c.815 0 .815-.008 1.631-.008.815 0 .815.13 1.632.13.816 0 .816-.987 1.631-.987.816 0 .816.39 1.632.39.817 0 .817-.19 1.634-.19.815 0 .815-.128 1.631-.128.816 0 .816.256 1.633.256.816 0 .816.146 1.63.146.817 0 .817-.288 1.632-.288.817 0 .817.15 1.633.15.814 0 .814-.256 1.631-.256.815 0 .815.833 1.632.833.816 0 .816-.723 1.631-.723.817 0 .817.798 1.633.798.817 0 .817-.598 1.633-.598.815 0 .815.435 1.632.435.816 0 .816-.372 1.633-.372.815 0 .815.409 1.63.409.817 0 .817-.313 1.632-.313.817 0 .817.256 1.633.256.815 0 .815-.317 1.631-.317.816 0 .816-.16 1.633-.16.817 0 .817.426 1.632.426.817 0 .817.27 1.633.27.816 0 .816.072 1.633.072.815 0 .815-.882 1.631-.882.816 0 .816.857 1.632.857s.816-.399 1.63-.399.814-.532 1.629-.532c.815 0 .815.399 1.63.399.813 0 .813-.429 1.629-.429.813 0 .813.006 1.63.006.814 0 .814.028 1.63.028.814 0 .814.032 1.63.032s.816.76 1.63.76c.819 0 .819-.04 1.634-.04.816 0 .816-.169 1.633-.169.816 0 .816-.476 1.633-.476.814 0 .814.156 1.63.156s.816.009 1.63.009c.817 0 .817.38 1.631.38.815 0 .815.193 1.63.193.816 0 .816-.81 1.631-.81.816 0 .816.157 1.63.157.818 0 .818.28 1.634.28.817 0 .817-.104 1.634-.104.816 0 .816.282 1.633.282.816 0 .816-.328 1.633-.328.814 0 .814-.294 1.63-.294s.816-.055 1.632-.055c.815 0 .815 1.013 1.631 1.013.816 0 .816-.519 1.633-.519.816 0 .816.416 1.632.416.817 0 .817-.413 1.634-.413s.817.463 1.633.463c.816 0 .816-.71 1.632-.71s.816-.216 1.632-.216c.817 0 .817.94 1.633.94.816 0 .816-.972 1.633-.972.817 0 .817.985 1.634.985s.817.019 1.634.019c.815 0 .815-.509 1.631-.509.817 0 .817.44 1.634.44.818 0 .818-.92 1.635-.92.815 0 .815.277 1.633.277.816 0 .816.18 1.632.18.818 0 .818-.45 1.635-.45.818 0 .818.524 1.634.524s.816-.281 1.634-.281c.816 0 .816-.081 1.633-.081.818 0 .818-.017 1.634-.017.817 0 .817-.092 1.634-.092s.817.811 1.635.811c.817 0 .817-.567 1.634-.567.816 0 .816-.428 1.633-.428.817 0 .817.307 1.634.307.815 0 .815-.063 1.632-.063.815 0 .815.044 1.631.044.82 0 .82.268 1.636.268.817 0 .817.032 1.633.032.816 0 .816.202 1.635.202.816 0 .816-.726 1.633-.726.818 0 .818.944 1.636.944s.818-.905 1.634-.905c.817 0 .817.41 1.636.41.817 0 .817.203 1.635.203.819 0 .819.11 1.637.11.817 0 .817-.751 1.634-.751s.817.835 1.635.835c.82 0 .82-.618 1.636-.618.818 0 .818.074 1.637.074.82 0 .82.045 1.639.045.82 0 .96-.335 1.548.237.572.554-.244.703-.244 1.499 0 .796.381.796.381 1.593 0 .797-.196.797-.196 1.594 0 .798.032.805.095 1.601.053.656.235.634-.336 1.192" fill="#DAE0EC"/><path d="M100.204 160.542c-.81.009-.792-.484-1.365-1.057-.572-.571-.405-.738-.977-1.31-.571-.572-.765-.377-1.338-.95-.571-.571-.652-.49-1.225-1.063-.573-.573-.288-.857-.861-1.43-.572-.57-.503-.64-1.076-1.212-.571-.573-.303-.841-.876-1.414-.572-.572-1.139-.006-1.711-.578-.572-.57-.672-.471-1.243-1.043-.572-.572-.27-.874-.841-1.446-.574-.574-.343-.804-.916-1.377-.573-.574-.981-.165-1.554-.739-.573-.571-.327-.819-.9-1.391-.575-.575-.706-.443-1.28-1.017-.574-.574-.268-.88-.842-1.453-.568-.568-.554-.584-1.121-1.153-.57-.568-.865-.272-1.435-.842-.57-.57-.067-1.071-.637-1.64-.57-.57-1.293.153-1.863-.416-.57-.571.15-1.29-.419-1.86-.57-.571-.67-.471-1.242-1.042-.57-.571-.518-.623-1.09-1.194-.57-.57-1.208.067-1.778-.503-.57-.57-.133-1.01-.705-1.58-.57-.572-1.069-.073-1.64-.644-.572-.571.043-1.185-.529-1.755-.572-.572-.435-.708-1.006-1.28-.572-.57-1.083-.06-1.655-.63-.572-.572-.515-.63-1.086-1.2-.57-.57-.461-.68-1.032-1.25-.57-.572-.45-.692-1.022-1.264-.572-.571-.547-.595-1.119-1.168-.572-.572-1.121-.022-1.693-.595-.572-.571-.143-1-.715-1.572-.572-.574-.437-.71-1.01-1.283s-1.425-.129-1.42-.94c.005-.82.637-.59 1.218-1.171.58-.581.613-.547 1.194-1.128.58-.58.608-.553 1.19-1.133.58-.581.701-.46 1.282-1.041.581-.581.302-.86.882-1.442.583-.58.675-.489 1.257-1.07.581-.582.34-.824.922-1.406.581-.582.8-.365 1.38-.947.581-.581.944-.22 1.525-.8.582-.582-.1-1.264.482-1.845.58-.58 1.106-.054 1.687-.636.581-.581.167-.994.748-1.576.582-.581.72-.442 1.3-1.024.582-.58.7-.464 1.28-1.045.583-.58.564-.599 1.146-1.18.582-.583.448-.715 1.03-1.296.581-.584.77-.395 1.353-.977.58-.582.183-.981.764-1.562.582-.583 1.145-.02 1.726-.601.583-.58.11-1.052.693-1.632.581-.582.843-.32 1.425-.901.581-.582.772-.39 1.354-.973.581-.582.616-.546 1.197-1.128.582-.583.197-.969.779-1.55.58-.582.576-.59 1.157-1.171.582-.582 1.018-.147 1.6-.728.582-.582-.036-1.2.545-1.782.58-.582.988-.174 1.57-.757.581-.58.427-.736 1.009-1.317.58-.583.572-.593 1.154-1.175.583-.581.953-.212 1.534-.795.582-.58.213-.95.795-1.533.582-.58.41-.753.992-1.335.58-.582.897-.267 1.48-.849.583-.583.28-.883.864-1.464.582-.583.903-.262 1.484-.844.582-.582.283-.882.865-1.464.582-.582.988-.176 1.57-.76.583-.58.198-.965.78-1.548.582-.58.84-.322 1.422-.903.58-.58.154-1.01.735-1.59.583-.584 1.1-.067 1.68-.649.583-.58.602-.563 1.183-1.144.58-.581.748-.414 1.33-.995.581-.582.337-.826.918-1.407.582-.582.912-.254 1.494-.837.582-.581.55-.615 1.13-1.196.582-.582-.113-1.278.469-1.86.583-.582 1.003-.16 1.586-.743.582-.583.247-.918.83-1.501.582-.582.81-.355 1.392-.936.583-.583.915-.251 1.498-.833.582-.584.496-.669 1.08-1.252.582-.583.067-1.098.65-1.681.583-.582.688-.478 1.27-1.06.583-.583.789-.38 1.372-.962.583-.582.887-.277 1.471-.861.581-.582.58-.583 1.162-1.164.584-.584.134-1.033.717-1.615.583-.583.77-.397 1.353-.981.584-.584.308-.86.892-1.442.584-.585.643-.525 1.227-1.109.584-.585.371-.798.957-1.38.584-.586 1.05-.12 1.634-.705.393-.392.981-.578 1.377-.963.398-.388.33-1.257.73-1.637.404-.381 1.327-.201 1.734-.575.409-.375.457-1.14.87-1.51.414-.368.871-.686 1.29-1.05.417-.362.708-.877 1.13-1.233.423-.357.865-.696 1.293-1.048.428-.351.707-.891 1.14-1.237.433-.346 1.184-.29 1.622-.627.438-.339.772-.814 1.214-1.146.444-.333.69-.935 1.138-1.26.448-.328 1.04-.458 1.492-.778.452-.32 1.144-.293 1.6-.607.458-.313.58-1.12 1.04-1.428.46-.306 1.216-.167 1.68-.468.466-.3.91-.63 1.379-.925.468-.293 1.076-.354 1.55-.643.473-.285.443-1.419.921-1.699.478-.28 1.43.261 1.912-.012.482-.274 1.008-.452 1.495-.718.485-.267.513-1.38 1.003-1.64.49-.258.976-.54 1.468-.792.492-.251.997-.497 1.493-.742.497-.245 1.375.292 1.875.054.499-.238 1.055-.341 1.559-.573.503-.231.825-.854 1.331-1.078.506-.224 1.15-.12 1.66-.339.51-.217.71-1.17 1.223-1.38.505-.208.949-.577 1.456-.777.506-.2 1.189.043 1.697-.15.51-.193.917-.67 1.43-.855.511-.186 1.036-.35 1.55-.528.516-.178 1.299.438 1.816.266.517-.172.848-.906 1.367-1.07.52-.166 1.154.05 1.675-.106.522-.157 1.095-.124 1.618-.273.523-.15.987-.494 1.512-.637.526-.142.904-.852 1.43-.988.528-.134 1.08-.183 1.61-.31.53-.128 1.041-.345 1.573-.465.53-.12 1.088-.137 1.621-.25.533-.113 1.166.272 1.701.167.535-.106.972-.722 1.507-.818.536-.098 1.197.526 1.733.437.537-.09 1.063-.212 1.601-.294.54-.083.997-.693 1.536-.769.54-.076 1.156.462 1.697.395.54-.068 1.024-.577 1.565-.637.541-.06 1.024-.708 1.567-.76.54-.054 1.1.012 1.643-.034.543-.045 1.156.867 1.7.829.543-.038 1.024-1.066 1.568-1.097.543-.03 1.13.846 1.676.824.543-.023 1.083.028 1.627.013.544-.015 1.08-.17 1.624-.178.545-.006 1.085-.737 1.629-.737.559 0 1.11.86 1.667.868.56.007 1.122-.393 1.68-.376.557.016 1.115.013 1.672.037.558.024 1.12-.05 1.678-.02.556.032 1.117.03 1.673.068.558.04 1.138-.186 1.694-.138.557.047 1.026 1.007 1.582 1.063.555.056 1.203-.771 1.758-.708.555.064 1.088.325 1.641.397.555.071 1.09.277 1.643.355.552.08 1.021.688 1.573.775.55.088 1.278-.883 1.827-.787.55.095 1.02.663 1.569.766.547.102 1.094.222 1.64.333.548.111 1.044.458 1.59.576.544.119 1.061.351 1.604.477.545.128 1.155-.035 1.697.098.541.135.856.174 1.396.316-.353.74-.527.514-1.107 1.094-.58.579-.397.76-.977 1.34-.58.58-.51.65-1.09 1.228-.58.58-.49.67-1.07 1.25-.577.58-.456.7-1.036 1.28-.58.58-.965.193-1.545.773-.58.58-.577.583-1.156 1.163-.58.578-.235.924-.815 1.504-.579.58-.926.234-1.505.814-.58.58-.843.316-1.423.896-.58.581.118 1.28-.462 1.86-.58.58-1.145.015-1.725.595-.58.58-.22.94-.8 1.52-.58.579-.988.172-1.568.75-.58.58-.098 1.063-.678 1.643-.579.58-.916.243-1.496.823-.579.58-.772.385-1.352.965-.58.58-.106 1.054-.686 1.634-.58.58-.775.382-1.355.962s-.575.585-1.155 1.165c-.58.578-.52.638-1.1 1.218-.58.58-.298.861-.878 1.441-.58.58-.67.488-1.25 1.068-.58.58-.554.608-1.133 1.187-.58.58-.956.205-1.536.786-.58.58-.626.533-1.206 1.114-.581.58-.568.592-1.149 1.172-.579.58-.633.526-1.213 1.106-.58.58-.218.943-.798 1.522-.58.58-.454.704-1.034 1.284-.58.58-.852.31-1.432.89-.578.578-.675.482-1.255 1.062-.58.58-.71.45-1.29 1.03-.579.58-.587.572-1.167 1.152-.58.58.034 1.193-.546 1.773-.58.58-.572.587-1.152 1.167-.581.58-1.137.023-1.717.603-.58.58-.68.482-1.259 1.062-.58.58-.705.456-1.285 1.035-.58.58-.375.785-.954 1.365-.58.579-.058 1.101-.638 1.681-.579.579-1.083.075-1.662.654-.579.579-.672.486-1.25 1.065-.58.579-.676.483-1.255 1.062-.579.578-.175.981-.754 1.56-.578.579-.386.77-.965 1.35-.578.577-.457.698-1.036 1.277-.579.58-.932.226-1.511.805-.578.579-.973.183-1.552.76-.579.58.015 1.174-.564 1.752-.58.58-1.005.154-1.584.733-.58.579-.668.491-1.247 1.07-.58.58-.35.81-.93 1.389-.578.579-.515.643-1.095 1.223-.579.58-.365.795-.945 1.374-.581.58-.417.744-.997 1.325-.581.58-.906.255-1.486.835s-.716.445-1.296 1.025c-.58.58-.8.359-1.38.938-.58.58-.124 1.036-.702 1.616-.58.579-.474.686-1.052 1.266-.58.579-1.212-.054-1.792.525-.578.58-.16 1-.738 1.58-.58.578-.718.44-1.298 1.018-.58.58-.38.78-.96 1.36-.58.577-.476.68-1.056 1.26-.58.58-1.065.095-1.645.674-.58.58-.096 1.064-.677 1.644-.581.581-.566.595-1.148 1.175-.58.58-.743.419-1.324.999-.58.58-.532.628-1.112 1.208-.58.58-.542.617-1.122 1.198-.58.579-.562.598-1.142 1.178-.58.579-.642.517-1.222 1.097-.58.579-.827.331-1.406.911-.581.58-.307.853-.887 1.433-.58.58-.406.754-.987 1.334-.58.58-1.245-.085-1.826.495-.58.58-.17.993-.75 1.574-.58.58-.834.325-1.415.906-.58.58-.385.775-.967 1.355-.58.58-.618.541-1.2 1.121-.58.58-.816.342-1.396.922-.581.58.035 1.197-.545 1.777-.58.581-.899.262-1.479.842-.58.581-.385.777-.966 1.358-.58.581-.45.712-1.03 1.292-.58.58-.981.18-1.561.76-.581.582-.552.61-1.133 1.19s-.183.978-.763 1.558c-.58.58-1.116.044-1.697.625s-.595.567-1.177 1.148c-.58.58-.215.946-.796 1.527-.58.58-1.127.033-1.707.614-.581.58-.073 1.087-.654 1.668-.58.581-1.03.132-1.61.713-.581.58.136 1.298-.446 1.879-.58.58-.59.571-1.17 1.152-.581.58-.818.345-1.399.926-.58.58-.422.739-1.003 1.32-.58.578-.796.362-1.375.94-.579.58-.988.172-1.567.752-.58.58-.555.607-1.136 1.187-.58.582-.299.862-.881 1.444-.58.58-.822.337-1.403.917-.58.58-.469.69-1.05 1.27-.579.581-.499.66-1.08 1.241-.58.581-.416.747-.997 1.328-.58.58-.67.491-1.25 1.073-.581.58-.194.967-.775 1.548-.58.58-.855.306-1.436.887-.58.581-.406.756-.988 1.338-.581.581-1.143.019-1.724.6s-.166.998-.748 1.579c-.58.581-1.095.066-1.676.648-.583.581-.276.887-.858 1.469-.581.582-.444.72-1.025 1.3-.582.583-.59.576-1.171 1.158-.581.582-.46.703-1.042 1.285-.581.581-.649.513-1.23 1.094-.582.58-.95.211-1.532.793-.584.581-.03 1.134-.613 1.717-.582.581-.716.449-1.297 1.03-.583.584-.463.703-1.046 1.286-.583.582-1.26.034-1.69.737-.487.793-.099 1.439-.923 1.446M239.04 4.806c-.53-.097-1.087-.013-1.619-.103-.53-.09-.956-.819-1.487-.902-.533-.083-1.035-.39-1.569-.466-.533-.076-1.042-.376-1.576-.446-.535-.069-1.18.745-1.714.683-.536-.064-1.066-.14-1.601-.196-.536-.055-.995-.92-1.53-.969-.539-.048-1.086-.04-1.623-.082-.538-.042-1.12.515-1.658.48-.537-.034-1.05-.537-1.586-.565-.54-.027-1.084.007-1.622-.013-.54-.022-1.101.774-1.64.76-.54-.013-1.06-.838-1.6-.845-.538-.005-1.08-.142-1.62-.142-.547 0-1.096.23-1.642.238-.549.007-1.09.256-1.638.27-.548.014-1.096-.023-1.642-.003-.548.022-1.076.389-1.621.418-.548.028-1.134-.607-1.68-.571-.546.035-1.042.753-1.588.796-.546.044-1.116-.235-1.66-.185-.546.05-1.046.508-1.591.565-.544.057-1.149-.439-1.69-.375-.545.065-1.039.52-1.58.591-.544.07-1.053.348-1.595.425-.542.078-1.202-.628-1.74-.542-.542.086-1.051.377-1.59.47-.54.094-1.073.234-1.61.332-.538.1-1.166-.246-1.703-.138-.536.106-.864 1.229-1.4 1.344-.533.113-1.23-.51-1.763-.388-.534.12-1.066.258-1.599.386-.533.127-.886.971-1.417 1.106-.53.135-1.24-.43-1.77-.29-.528.142-.94.71-1.467.858-.526.149-1.159-.072-1.683.084-.525.154-1.025.397-1.548.56-.522.16-1.037.354-1.557.523-.521.17-1.085.21-1.603.385-.52.176-.878.808-1.394.992-.517.183-1.158.012-1.671.202-.514.19-1.007.435-1.518.631-.51.196-1.09.223-1.597.427-.51.202-.922.64-1.429.851-.505.209-1.093.224-1.596.44-.504.216-.704 1.117-1.205 1.34-.499.222-1.374-.39-1.872-.16-.497.227-.855.76-1.349.996-.493.236-.928.59-1.42.834-.49.24-1.006.432-1.493.68-.488.25-1.149.168-1.633.423-.484.253-.844.745-1.325 1.006s-.73.939-1.208 1.206c-.476.268-1.406-.258-1.88.016-.473.274-.656 1.05-1.127 1.33-.47.279-.821.753-1.287 1.039-.467.285-1.19.156-1.653.45-.463.292-.686.958-1.144 1.256-.46.298-1.298.023-1.753.327-.456.304-.874.67-1.325.98-.452.31-.661.97-1.109 1.286-.447.315-.904.615-1.347.937-.443.321-.886.641-1.325.97-.438.326-.56 1.066-.995 1.4-.434.333-.854.673-1.283 1.013-.43.338-1.07.405-1.496.75-.424.344-1.259.193-1.68.543-.42.35-.439 1.18-.856 1.535-.416.355-1.25.232-1.66.593-.412.36-.631.944-1.038 1.311-.406.365-.738.816-1.14 1.189-.402.37-.449 1.116-.846 1.493-.397.377-.804.736-1.197 1.118-.391.381-.846.694-1.233 1.081-.58.58-.434.727-1.014 1.307-.579.578-1.303-.144-1.883.436-.58.58-.09 1.07-.669 1.649-.579.58-.842.317-1.422.897-.579.579-.34.819-.919 1.398-.58.578-.96.197-1.54.777-.58.58-.373.785-.953 1.364-.58.58-.54.619-1.12 1.199-.58.578-.945.213-1.525.792-.58.58-.313.848-.893 1.428-.58.58-.181.978-.761 1.558-.581.58-1.17-.007-1.75.574-.58.581-.23.932-.81 1.512-.581.58-.318.844-.898 1.423-.58.58-.563.598-1.142 1.178-.58.58-.75.41-1.33.99-.58.58-.585.576-1.164 1.156-.58.58-.474.685-1.053 1.265-.58.58-1.17-.01-1.75.57-.58.58-.617.544-1.196 1.124-.581.581-.184.978-.765 1.558-.581.581-.858.304-1.44.884-.58.581-.141 1.02-.722 1.6-.58.581-.777.383-1.358.964-.58.58-.5.66-1.08 1.24-.58.58-.332.829-.912 1.409-.58.58-.515.645-1.095 1.226-.58.58-.994.167-1.573.747-.581.58-.665.497-1.247 1.078-.58.581-.708.454-1.289 1.034-.58.581-.306.856-.885 1.437-.581.58-.4.76-.981 1.34-.58.582-.912.25-1.493.83-.581.58-.84.321-1.421.903-.58.58-.594.567-1.175 1.147-.58.582.202 1.363-.379 1.945-.58.58-1.137.025-1.718.604-.58.581-.097 1.064-.679 1.645-.58.58-.7.46-1.28 1.04-.583.582-1.091.073-1.672.654-.581.581-.672.49-1.253 1.072-.58.58-.027 1.134-.608 1.715-.581.58-1.107.054-1.687.636-.578.58.091 1.249-.489 1.828-.58.58-.63.53-1.21 1.11-.58.58-1.082.078-1.662.66-.58.581-.091 1.07-.672 1.65-.58.582-.59.571-1.172 1.152-.579.58-.438.722-1.018 1.302-.58.58-.974.186-1.554.766-.581.58-.75.412-1.332.994-.58.58-.338.824-.92 1.404-.579.58-.326.833-.907 1.414-.581.582-1.198-.034-1.778.547-.582.58-.65.512-1.232 1.095-.58.58.02 1.18-.562 1.762-.581.58-.646.518-1.228 1.1-.58.58-.846.315-1.427.896-.582.583-.106 1.06-.687 1.642-.582.58-1.059.103-1.641.685-.582.582-.094 1.07-.675 1.651-.582.582-1.24-.075-1.822.507-.581.58-.568.592-1.15 1.173-.58.582-.662.502-1.243 1.084-.582.582.17 1.334-.412 1.916-.583.582-1.274-.108-1.856.475-.582.582-.083 1.081-.665 1.664-.583.585-1.024.143-1.609.726-.583.584-.788.576-.8 1.402-.011.803.576.424 1.143.991.568.569.373.764.94 1.332.568.567 1.008.127 1.575.696.568.566.5.633 1.067 1.2.567.568.533.6 1.1 1.17.569.566.371.763.94 1.332l1.135 1.134c.568.569.595.543 1.162 1.11.568.568.467.67 1.034 1.238.569.568.39.747.958 1.317.567.567.842.292 1.41.86.569.57.166.971.734 1.54.57.568.833.304 1.402.872.569.569.412.727.98 1.295.569.568.861.276 1.43.844.568.57.828.31 1.397.878.568.57.313.825.882 1.394.567.568.7.436 1.267 1.003.569.568.36.777.929 1.345.569.57.411.727.98 1.296.569.57.76.379 1.33.948.57.57.516.624 1.084 1.193.57.57.23.912.8 1.482.57.57.517.624 1.088 1.194.567.568 1.32-.184 1.888.383.568.57.275.863.844 1.432.57.57.36.779.929 1.348.57.57.95.19 1.52.759.57.57.219.92.788 1.49.57.57 1.034.107 1.605.677.57.57.488.653 1.058 1.224.574.573.684.463 1.258 1.036.574.574.04 1.109.613 1.682.573.574.737.411 1.31.985.574.572.653.493 1.226 1.066.573.574.756.39 1.33.964.573.574.321.825.896 1.4s.466.682 1.04 1.257c.576.574.397.752.971 1.326.576.575.667.485 1.243 1.06.575.575.747.404 1.323.978.568.57.851.286 1.42.855.57.568.637.503 1.205 1.072.57.57.498.64 1.067 1.21.57.57.24.9.81 1.47.571.57.383 1.667 1.19 1.66.818-.006.688-1.03 1.267-1.608.579-.58.774-.383 1.353-.96.58-.58.286-.875.865-1.453.577-.58.812-.345 1.392-.925.58-.579.018-1.139.598-1.718.58-.58.55-.608 1.13-1.188.579-.579.997-.161 1.575-.74.58-.58.22-.939.8-1.517.58-.579 1.037-.122 1.616-.7.58-.579.61-.547 1.19-1.126.579-.58.233-.925.812-1.504.58-.578.406-.75.984-1.329.58-.579 1.054-.105 1.633-.684.58-.578.713-.444 1.292-1.022.578-.58.667-.49 1.246-1.069.579-.578.35-.806.93-1.384.578-.579.609-.548 1.188-1.127.579-.58.236-.921.815-1.5.579-.58.792-.365 1.371-.944.58-.58.745-.413 1.324-.99.58-.58.247-.912.826-1.491.58-.58.745-.414 1.325-.993.579-.579.35-.807.93-1.387.577-.58.409-.748.989-1.328.58-.579.548-.61 1.127-1.19.58-.578.621-.537 1.2-1.116.58-.579.848-.31 1.427-.89.579-.58.956-.2 1.534-.78.58-.58.321-.837.9-1.416.58-.58.805-.355 1.382-.934.58-.578.433-.725 1.01-1.304.58-.58.04-1.12.619-1.698.579-.58 1.084-.075 1.662-.653.579-.579.398-.76.977-1.34.579-.579.962-.196 1.54-.775.58-.578.305-.853.885-1.431.579-.58.228-.93.807-1.51.58-.58 1.165.006 1.744-.574s-.028-1.187.551-1.767c.58-.579.706-.451 1.285-1.031.58-.58 1.156-.002 1.736-.581.58-.58.467-.693 1.044-1.272.58-.58.677-.48 1.257-1.06.58-.58.469-.69 1.048-1.268.579-.58.206-.95.786-1.53.579-.58.565-.592 1.144-1.171.58-.58.63-.528 1.21-1.107.579-.58.943-.215 1.522-.794.579-.58.438-.721 1.017-1.3.579-.58.119-1.041.697-1.62.58-.58 1.036-.122 1.616-.701.58-.58.17-.99.75-1.569.578-.578.777-.38 1.357-.959.576-.579.608-.548 1.187-1.127.577-.578.546-.609 1.125-1.188.578-.577.834-.323 1.412-.9.578-.578.15-1.006.73-1.583.577-.579.833-.323 1.41-.9.579-.579.27-.887.848-1.464.577-.579.668-.488 1.245-1.066.578-.578.548-.61 1.126-1.188.577-.577.88-.274 1.459-.852.578-.577.692-.462 1.27-1.04.58-.58.47-.689 1.047-1.267.578-.578.269-.888.847-1.467.579-.578.806-.351 1.385-.93.578-.578.356-.8.936-1.38.579-.58 1.202.044 1.782-.535.579-.58.046-1.113.625-1.693.58-.58.94-.22 1.52-.8.578-.58.353-.805.93-1.383.58-.58.408-.752.987-1.33.58-.58 1.126-.031 1.705-.61.58-.579.332-.826.91-1.404.579-.58.284-.874.863-1.453.578-.579.446-.711 1.023-1.29.58-.577 1.134-.025 1.712-.602.579-.58.255-.904.832-1.483.58-.578 1.065-.093 1.644-.672.58-.58.131-1.026.71-1.605.58-.58.623-.535 1.203-1.115.58-.58.377-.783.956-1.363.58-.58.997-.163 1.577-.743.578-.58.014-1.145.594-1.724.579-.579 1.173.015 1.752-.564.58-.578.213-.945.793-1.524.579-.579.488-.67 1.067-1.247.578-.58.928-.23 1.507-.81.58-.579.68-.479 1.258-1.058.58-.58.713-.445 1.293-1.024s.272-.888.85-1.468c.58-.58.283-.878.863-1.458.58-.58.503-.658 1.082-1.237.58-.58.837-.322 1.416-.902.58-.58.379-.78.959-1.36.579-.578 1.123-.035 1.7-.615.58-.579.394-.764.974-1.343.58-.58.098-1.062.678-1.642.58-.58.894-.266 1.474-.846.58-.578.654-.506 1.234-1.086.58-.58.616-.543 1.196-1.122.58-.58.352-.808.93-1.388.58-.58.45-.709 1.03-1.289.58-.58.563-.597 1.143-1.176.58-.58.9-.259 1.48-.84.58-.58.851-.31 1.431-.89.58-.58.698-.461 1.278-1.041.579-.58.23-.929.81-1.509.58-.58.372-.788.952-1.368.58-.58.786-.373 1.367-.954.58-.58.706-.454 1.286-1.034.58-.58.69-.47 1.27-1.05.58-.58.14-1.02.718-1.602.58-.578.969-.188 1.548-.765.578-.58.726-.432 1.304-1.01.58-.58.499-.663 1.079-1.243.58-.58.62-.54 1.2-1.12.579-.58.283-.876.863-1.456.579-.58.945-.211 1.525-.791.58-.58.17-.99.75-1.569.58-.58.92-.24 1.5-.82s.344-.817.925-1.397c.579-.58.123-1.035.703-1.615.58-.58 1.143-.017 1.723-.597.581-.581.4-.762.98-1.343.581-.581.31-.85.89-1.43.58-.582.692-.47 1.273-1.051.58-.581.593-.568 1.174-1.149.581-.58.879-.284 1.46-.864.58-.581.096-1.065.677-1.646.58-.581 1.07-.092 1.651-.673.581-.58.336-.826.917-1.406.58-.58.77-.39 1.35-.97.582-.582.382-.78.963-1.36.582-.583 1.087-.078 1.67-.658.58-.582.496-.667 1.077-1.248.581-.582.529-.634 1.11-1.216.584-.583-.057-1.223.525-1.806.583-.583 1.555.13 1.91-.613-.513-.197-1.431-.464-1.946-.653-.515-.19-.83-.942-1.347-1.123-.52-.183-1.103-.184-1.622-.36-.522-.175-1.3.433-1.82.266-.522-.17-.84-.983-1.362-1.146-.526-.162-1.098-.165-1.624-.32-.527-.154-.988-.54-1.515-.688-.529-.148-1.13-.034-1.66-.175-.53-.14-1.01-.482-1.541-.617-.533-.133-.993-.584-1.527-.711-.532-.126-1.117-.061-1.651-.18-.536-.12-1.134.037-1.67-.075-.538-.114-.974-.74-1.511-.845-.54-.105-1.257.728-1.795.63" fill="#DAE0EC"/><path d="M336.495 141.409c-.653-.452-.355-.883-1.01-1.334-.655-.45-.729-.343-1.383-.794-.656-.451-1.009.06-1.665-.391-.656-.45-.491-.69-1.147-1.141-.656-.45-.408-.812-1.064-1.264-.657-.452-.563-.588-1.22-1.04-.657-.453-1.09.175-1.746-.277-.687-.472-.814-.286-1.5-.757-.686-.474-.275-1.069-.96-1.54-.686-.474-.565-.649-1.25-1.12-.685-.473-1.271.377-1.957-.096-.686-.473-.464-.794-1.15-1.265-.686-.473-.646-.53-1.333-1.003-.685-.473-.791-.32-1.477-.792-.685-.472-.463-.795-1.15-1.266-.686-.473-.974-.055-1.66-.528-.684-.471-.286-1.051-.97-1.523-.686-.472-1.01-.003-1.696-.475-.686-.474-.56-.655-1.247-1.129-.686-.474-.838-.255-1.524-.727-.686-.473-.74-.396-1.426-.869-.69-.473-.78-.34-1.468-.816-.688-.473-.532-.7-1.22-1.174-.422-.29-.503-1.2-.96-1.421-.46-.224-1.132-.02-1.62-.17-.487-.152-.996-.24-1.5-.318-.504-.077-1.015.297-1.527.297-.818 0-.818-.47-1.635-.47-.818 0-.818.311-1.636.311-.817 0-.817-.488-1.634-.488-.818 0-.818.634-1.636.634-.817 0-.817-.015-1.636-.015-.817 0-.817-.04-1.636-.04-.818 0-.818-.154-1.636-.154-.819 0-.819-.394-1.636-.394-.818 0-.818-.257-1.637-.257-.817 0-.817.378-1.635.378-.819 0-.819.655-1.636.655-.818 0-.818-1.035-1.636-1.035-.817 0-.817.06-1.634.06-.82 0-.82-.016-1.636-.016-.82 0-.82-.084-1.636-.084-.818 0-.818.657-1.637.657-.818 0-.818-.618-1.636-.618s-.818-.095-1.636-.095-.818.189-1.637.189c-.817 0-.817.52-1.635.52-.819 0-.819.268-1.636.268-.818 0-.818-.485-1.637-.485-.816 0-.816-.184-1.634-.184-.82 0-.82.238-1.636.238-.82 0-.82.097-1.637.097-.818 0-.818.277-1.637.277-.818 0-.818-.808-1.636-.808-.819 0-.819-.087-1.636-.087-.818 0-.818.178-1.637.178-.817 0-.817.685-1.635.685-.817 0-.817-.281-1.634-.281-.815 0-.815-.384-1.633-.384-.816 0-.816.635-1.633.635-.817 0-.817-.757-1.633-.757-.818 0-.818.433-1.633.433-.817 0-.817-.52-1.635-.52-.817 0-.817.896-1.635.896-.818 0-.818-.374-1.635-.374-.818 0-.818-.41-1.637-.41-.818 0-.818.514-1.637.514-.817 0-.817.463-1.635.463-.818 0-.818-.292-1.636-.292-.817 0-.817-.693-1.635-.693-.816 0-.816.288-1.634.288-.816 0-.816.436-1.633.436-.819 0-.819-.455-1.636-.455s-.817.09-1.635.09c-.818 0-.818.395-1.636.395-.82 0-.82-.62-1.638-.62s-.818-.231-1.637-.231c-.818 0-.818.406-1.635.406-.819 0-.819.563-1.636.563-.818 0-.818-.13-1.635-.13-.818 0-.818-.678-1.636-.678s-.818.648-1.636.648c-.819 0-.819-.302-1.638-.302l-1.638-.001c-.818 0-.818.368-1.635.368-.818 0-.818-.646-1.636-.646s-.818.36-1.637.36c-.818 0-.818-.157-1.636-.157-.82 0-.82-.25-1.638-.25-.819 0-.819.355-1.638.355-.818 0-.818.546-1.635.546-.82 0-.82-.592-1.638-.592s-.818-.131-1.637-.131c-.82 0-.82.508-1.638.508-.82 0-.82-.017-1.638-.017s-.818-.095-1.637-.095c-.819 0-.819.11-1.638.11s-.819-.55-1.638-.55-.819.314-1.638.314c-.818 0-.818-.397-1.636-.397-.82 0-.82.593-1.64.593-.818 0-.818-.073-1.637-.073-.82 0-.82.11-1.638.11-.82 0-.82-.432-1.64-.432-.817 0-.817-.153-1.637-.153-.818 0-.818.226-1.636.226-.819 0-.819.591-1.636.591s-.817-.853-1.637-.853c-.82 0-.82-.03-1.638-.03-.82 0-.82.809-1.637.809-.82 0-.82-.933-1.64-.933-.818 0-.818-.088-1.637-.088-.82 0-.82.852-1.639.852-.819 0-.819-.615-1.639-.615-.82 0-.82.75-1.639.75-.82 0-.82-.941-1.64-.941s-.82.49-1.64.49c-.819 0-.819-.134-1.638-.134-.82 0-.82-.209-1.64-.209s-.82.094-1.64.094-.82.019-1.64.019c-.822 0-.822.357-1.643.357-.823 0-.816-.266-1.576.045-.744.304-.391.648-.959 1.217-.57.568-.77.367-1.338.936-.569.57-.228.911-.797 1.48-.57.57-1.183-.043-1.752.527-.57.57-.5.639-1.07 1.208-.571.57-.13 1.012-.7 1.582-.571.571-1.42-.024-1.1.717.324.75.492.546 1.31.546.817 0 .817.115 1.634.115s.817-.233 1.633-.233c.816 0 .816-.242 1.634-.242.816 0 .816-.505 1.634-.505.816 0 .816.487 1.631.487.818 0 .818-.357 1.634-.357.817 0 .817.478 1.634.478.815 0 .815-.31 1.633-.31.816 0 .816.197 1.633.197.817 0 .817.333 1.634.333.818 0 .818-.652 1.634-.652.817 0 .817.221 1.635.221.817 0 .817-.282 1.634-.282s.817.735 1.634.735c.816 0 .816-.748 1.633-.748.817 0 .817-.14 1.634-.14s.817.931 1.633.931c.817 0 .817-.626 1.633-.626.818 0 .818-.374 1.634-.374.817 0 .817.93 1.635.93.816 0 .816-.926 1.633-.926.818 0 .818.825 1.635.825.817 0 .817.29 1.635.29.817 0 .817-.566 1.633-.566.817 0 .817.314 1.634.314s.817-.726 1.634-.726.817.741 1.634.741c.816 0 .816-.6 1.634-.6.817 0 .817.7 1.633.7.819 0 .819-.245 1.636-.245s.817.239 1.634.239.817-.812 1.635-.812c.816 0 .816.108 1.633.108.818 0 .818-.253 1.633-.253.816 0 .816.461 1.632.461s.816.014 1.632.014c.814 0 .814-.482 1.63-.482s.816.745 1.63.745c.818 0 .818.111 1.633.111.815 0 .815-.75 1.632-.75.816 0 .816.524 1.634.524.815 0 .815-.16 1.632-.16.818 0 .818.385 1.635.385.817 0 .817-.608 1.635-.608.817 0 .817-.156 1.634-.156.816 0 .816.173 1.632.173.817 0 .817.37 1.633.37.816 0 .816-.178 1.632-.178s.816.032 1.633.032c.816 0 .816.526 1.631.526.818 0 .818-.952 1.634-.952.818 0 .818-.055 1.635-.055.818 0 .818.657 1.636.657s.818-.457 1.634-.457c.817 0 .817.034 1.634.034.818 0 .818.219 1.634.219.817 0 .817.28 1.633.28.816 0 .816-.136 1.633-.136.818 0 .818.422 1.635.422.818 0 .818.055 1.636.055.816 0 .816-.317 1.635-.317.817 0 .817-.181 1.634-.181s.817-.25 1.634-.25.817.715 1.635.715c.816 0 .816-.922 1.634-.922s.818.153 1.635.153c.819 0 .819.183 1.636.183s.817-.341 1.635-.341c.817 0 .817.308 1.634.308.818 0 .818-.278 1.635-.278.818 0 .818.896 1.637.896.818 0 .818-.695 1.636-.695.816 0 .816-.131 1.634-.131s.818.814 1.636.814.818-.091 1.636-.091.818-.454 1.635-.454c.819 0 .819-.277 1.635-.277.818 0 .818.31 1.637.31.818 0 .818-.468 1.635-.468.819 0 .819.398 1.637.398.819 0 .819.15 1.637.15.817 0 .817-.147 1.636-.147.816 0 .816.173 1.633.173.818 0 .818.096 1.635.096.817 0 .817.388 1.635.388.818 0 .818-.126 1.635-.126.818 0 .818-.827 1.635-.827.82 0 .82.171 1.638.171.817 0 .817-.172 1.636-.172.818 0 .818.398 1.637.398.819 0 .819-.058 1.637-.058.817 0 .817.584 1.636.584.82 0 .82-.689 1.638-.689.82 0 .82-.36 1.638-.36s.818.197 1.637.197c.818 0 .818-.166 1.637-.166.82 0 .82 1 1.638 1 .819 0 .819-.35 1.639-.35.82 0 .82-.082 1.64-.082s.82.204 1.642.204c.444 0 .984-.315 1.35-.06.68.473.788.316 1.47.786.682.47.642.526 1.323.997.683.47.636.536 1.318 1.008.683.468.463.787 1.144 1.257.683.47.703.44 1.386.91.683.47.874.193 1.556.662.682.47.241 1.112.923 1.582.684.47 1.066-.085 1.748.386.682.47.918.125 1.6.596.682.47.12 1.284.802 1.754.684.47.93.112 1.614.582.683.472.402.878 1.086 1.349.682.47 1.286-.405 1.97.065.684.47.152 1.243.837 1.714.684.471.795.311 1.48.783.661.456 1.075-.143 1.736.313.663.458.662.459 1.326.914.663.457.096 1.281.76 1.738.662.456.897.117 1.56.574.665.457.801.259 1.467.716.664.458.9.264.903 1.071 0 .805-.024.92-.688 1.375-.663.457-.673.442-1.336.899s-.936.06-1.6.516c-.664.458-.988-.013-1.65.443-.665.459-.297.994-.96 1.452-.665.457-.83.218-1.494.677-.682.47-.86.212-1.542.681-.682.47-.298 1.028-.979 1.497-.682.47-.813.28-1.496.749-.682.47-.765.35-1.447.819-.682.47-.803.295-1.485.766-.682.47-.594.598-1.276 1.067-.682.472-.762.357-1.444.828-.682.47-.495.743-1.178 1.212-.681.47-.905.145-1.586.614-.682.47-.589.607-1.27 1.077-.683.47-.582.618-1.265 1.088-.683.47-.635.541-1.318 1.01-.683.472-.951.082-1.636.552-.684.472-.675.484-1.36.955-.684.472-.373.922-1.059 1.394a2.36 2.36 0 0 1-1.29.394c-.821 0-.821.162-1.641.162-.82 0-.82-.648-1.64-.648s-.82.02-1.64.02-.82.077-1.64.077-.82-.159-1.638-.159c-.821 0-.821.605-1.64.605-.82 0-.82-.402-1.64-.402s-.82-.04-1.638-.04c-.82 0-.82.686-1.64.686-.819 0-.819.043-1.639.043-.82 0-.82-.764-1.64-.764-.819 0-.819.192-1.64.192-.819 0-.819-.247-1.639-.247-.82 0-.82.445-1.64.445s-.82-.25-1.64-.25-.82-.278-1.64-.278-.82 1.006-1.643 1.006c-.82 0-.82-.404-1.64-.404-.821 0-.821-.124-1.641-.124-.82 0-.82-.403-1.64-.403-.821 0-.821.665-1.641.665-.82 0-.82.075-1.64.075s-.82-.904-1.64-.904-.82.289-1.64.289-.82-.06-1.64-.06-.82.306-1.638.306c-.82 0-.82-.133-1.641-.133-.82 0-.82.385-1.64.385s-.82-.005-1.64-.005-.82-.235-1.641-.235c-.82 0-.82.542-1.64.542-.821 0-.821.019-1.642.019-.82 0-.82-1.092-1.641-1.092-.821 0-.821-.018-1.641-.018-.82 0-.82 1.06-1.64 1.06s-.82-.297-1.64-.297-.82.218-1.641.218c-.82 0-.82.06-1.64.06s-.82-.952-1.64-.952-.82.165-1.64.165-.82.41-1.64.41-.82.201-1.641.201c-.822 0-.822-.424-1.642-.424s-.82-.407-1.642-.407c-.82 0-.82.215-1.64.215-.822 0-.822.634-1.642.634s-.82.186-1.64.186-.82-.416-1.64-.416-.82.263-1.64.263-.82-.845-1.64-.845c-.822 0-.822.691-1.642.691s-.82.248-1.64.248c-.822 0-.822-.241-1.642-.241-.821 0-.821-.305-1.642-.305-.82 0-.82.537-1.641.537-.821 0-.821-.86-1.641-.86-.82 0-.82.882-1.64.882-.821 0-.821-.102-1.641-.102-.82 0-.82.085-1.641.085-.82 0-.82-.408-1.64-.408-.822 0-.822-.023-1.642-.023-.821 0-.821-.337-1.641-.337-.823 0-.823.584-1.643.584-.82 0-.82-.182-1.642-.182-.82 0-.82.101-1.64.101s-.82-.2-1.64-.2-.82-.162-1.639-.162c-.82 0-.82.221-1.637.221-.82 0-.82-.14-1.64-.14-.817 0-.817-.253-1.636-.253-.82 0-.82-.1-1.64-.1-.818 0-.818.309-1.64.309-.818 0-.818-.106-1.638-.106s-.82-.09-1.641-.09c-.82 0-.82-.054-1.641-.054-.821 0-.821-.136-1.642-.136-.82 0-.82.151-1.641.151-.82 0-.82.493-1.64.493s-.82-.233-1.64-.233-.82-.319-1.638-.319c-.82 0-.82.888-1.64.888s-.82.115-1.64.115-.82-.484-1.64-.484-.82-.54-1.641-.54c-.821 0-.821.981-1.642.981-.823 0-.823-.238-1.643-.238-.82 0-.82-.453-1.64-.453s-.82.645-1.64.645-.82-.297-1.642-.297c-.82 0-.82-.61-1.64-.61s-.82.797-1.64.797c-.822 0-.822-.684-1.643-.684-.822 0-.822.07-1.643.07-.82 0-.82.707-1.642.707-.82 0-.82-.728-1.64-.728s-.82-.3-1.641-.3c-.821 0-.821.553-1.641.553-.822 0-.822.066-1.644.066-.82 0-.82.13-1.641.13-.823 0-.823.356-1.643.356-.82 0-.82-.524-1.642-.524-.82 0-.82-.226-1.642-.226-.82 0-.82.569-1.644.569-.82 0-.82-.473-1.641-.473-.821 0-.821.038-1.642.038s-.821.115-1.642.115c-.823 0-.823-.04-1.644-.04-.822 0-.822.263-1.643.263-.822 0-.822-.765-1.643-.765-.82 0-.82.372-1.642.372s-.822.161-1.643.161c-.822 0-.822.25-1.644.25-.821 0-.821-.098-1.642-.098s-.821-.317-1.643-.317c-.822 0-.822-.234-1.642-.234s-.82.447-1.64.447c-.822 0-.822-.443-1.643-.443-.822 0-.822.882-1.643.882-.82 0-.82-.121-1.642-.121s-.822-.685-1.644-.685c-.821 0-.821-.205-1.642-.205-.823 0-.823.221-1.644.221-.823 0-.823.122-1.645.122-.822 0-.822-.113-1.644-.113s-.822.163-1.645.163c-.822 0-.822.331-1.644.331-.821 0-.821.183-1.644.183-.822 0-.822-.158-1.644-.158-.823 0-.823-.232-1.646-.232-.822 0-.822-.375-1.644-.375-.824 0-.824.449-1.649.449-.824 0-1.007.428-1.595-.15-.578-.57-.174-.758-.174-1.57s-.108-.812-.108-1.623c0-.813.097-.813.097-1.625s-.228-.812-.228-1.625.107-.813.107-1.624c0-.814.667-.814.667-1.625 0-.814-.795-.814-.795-1.627 0-.812.088-.812.088-1.625s.154-.813.154-1.624c0-.814.648-.814.648-1.626 0-.813-.028-.813-.028-1.626 0-.812-.25-.812-.25-1.627 0-.814-.45-.814-.45-1.629 0-.814.81-.991.501-1.745-.305-.743-1.157-.146-1.724-.715-.57-.569-.174-.964-.742-1.533-.57-.57-.747-.393-1.316-.963-.57-.57-.638-.501-1.207-1.072-.57-.57-.59-.55-1.16-1.12-.57-.572-.406-.736-.976-1.306-.57-.57-.217-1.056-.963-.749-.746.308-.596.401-.596 1.208 0 .806.019.806.019 1.612s.35.806.35 1.612.57.806.57 1.613c0 .806-.75.806-.75 1.611 0 .806.49.806.49 1.613 0 .804.26.804.26 1.61s-.022.806-.022 1.61c0 .806-.547.806-.547 1.611 0 .807-.274.807-.274 1.613 0 .805.499.805.499 1.61 0 .808.166.808.166 1.613 0 .806-.577.806-.577 1.614 0 .805.596.805.596 1.612 0 .806.125.806.125 1.613 0 .807.077.807.077 1.613 0 .807-.633.807-.633 1.613 0 .808.636.808.636 1.615 0 .806-1.076.806-1.076 1.613 0 .806.233.806.233 1.613 0 .808-.223.808-.223 1.614 0 .809.746.809.746 1.615 0 .808-.364.808-.364 1.618 0 .808-.252.85.323 1.418.583.575.623.086 1.443.086.82 0 .82.13 1.638.13.82 0 .82-.508 1.64-.508.819 0 .819.859 1.638.859.821 0 .821-.003 1.64-.003s.819-.049 1.639-.049c.819 0 .819-.78 1.638-.78.82 0 .82 1 1.639 1 .819 0 .819-.7 1.638-.7s.819.54 1.638.54c.818 0 .818-.751 1.637-.751.818 0 .818.247 1.638.247.818 0 .818-.308 1.637-.308.82 0 .82-.075 1.638-.075s.818.297 1.638.297c.818 0 .818.738 1.637.738.82 0 .82-.388 1.638-.388.819 0 .819.398 1.639.398.819 0 .819-.667 1.638-.667.82 0 .82-.236 1.638-.236.82 0 .82.32 1.64.32s.82-.067 1.638-.067c.82 0 .82-.205 1.64-.205s.82.644 1.64.644.82-.727 1.638-.727c.82 0 .82.758 1.64.758.818 0 .818-.687 1.636-.687.82 0 .82-.215 1.639-.215.819 0 .819.704 1.638.704s.819-.696 1.638-.696c.82 0 .82.643 1.638.643.819 0 .819-.358 1.639-.358.819 0 .819.19 1.638.19.82 0 .82.417 1.638.417.82 0 .82-.742 1.638-.742.821 0 .821.434 1.64.434.82 0 .82.359 1.64.359s.82-.427 1.64-.427.82.146 1.64.146c.818 0 .818-.201 1.638-.201s.82-.238 1.638-.238c.82 0 .82-.123 1.64-.123.818 0 .818.151 1.638.151.819 0 .819-.024 1.637-.024.819 0 .819.626 1.639.626.82 0 .82-.38 1.639-.38.82 0 .82-.19 1.639-.19.82 0 .82.44 1.64.44s.82.297 1.64.297.82-1.005 1.639-1.005c.82 0 .82.368 1.64.368.819 0 .819.602 1.638.602s.819-.418 1.64-.418c.819 0 .819.418 1.637.418.82 0 .82-.174 1.64-.174.818 0 .818-.34 1.638-.34s.82-.37 1.64-.37.82.93 1.64.93.82-.477 1.64-.477.82-.033 1.638-.033c.82 0 .82.027 1.64.027s.82.168 1.64.168.82-.223 1.638-.223c.82 0 .82-.17 1.64-.17s.82.543 1.638.543c.82 0 .82-.453 1.64-.453s.82.637 1.64.637.82-.74 1.64-.74c.819 0 .819-.185 1.64-.185.819 0 .819.208 1.638.208.82 0 .82-.039 1.64-.039.818 0 .818-.018 1.637-.018.818 0 .818.241 1.636.241.819 0 .819.447 1.636.447.818 0 .818-.82 1.637-.82.818 0 .818.44 1.636.44.819 0 .819-.149 1.638-.149.818 0 .818.137 1.638.137.819 0 .819-.177 1.638-.177.82 0 .82.184 1.64.184s.82-.229 1.64-.229.82.402 1.64.402.82.041 1.639.041c.818 0 .818-.5 1.638-.5.817 0 .817.115 1.636.115.82 0 .82.299 1.638.299.82 0 .82-.732 1.64-.732.818 0 .818.767 1.637.767.82 0 .82.334 1.64.334s.82-.73 1.64-.73c.821 0 .821-.255 1.64-.255.82 0 .82.778 1.64.778s.82-.312 1.638-.312c.82 0 .82.332 1.639.332.819 0 .819-.62 1.639-.62.82 0 .82-.144 1.639-.144.82 0 .82.178 1.64.178s.82-.063 1.642-.063c.82 0 .82-.01 1.64-.01.819 0 .819-.025 1.64-.025.819 0 .819.756 1.638.756.82 0 .82-.622 1.64-.622s.82.312 1.64.312c.822 0 .822-.564 1.642-.564s.82.012 1.641.012c.819 0 .819.855 1.639.855.82 0 .82.136 1.641.136.82 0 .82-.383 1.641-.383.821 0 .821-.498 1.641-.498.82 0 .82.318 1.641.318.82 0 .82-.262 1.64-.262s.82.598 1.642.598c.82 0 .82-.094 1.64-.094.821 0 .821-.581 1.641-.581.821 0 .821.479 1.641.479.821 0 .821.025 1.643.025.82 0 .82.384 1.642.384.82 0 .82-.263 1.64-.263s.82-.162 1.64-.162.82-.639 1.64-.639.82.161 1.64.161.82.44 1.64.44c.822 0 .822.427 1.642.427s.82-.015 1.64-.015c.822 0 .822-.953 1.642-.953.822 0 .822.13 1.642.13.821 0 .821.065 1.642.065s.821.14 1.642.14.821.462 1.643.462c.821 0 .821.161 1.642.161.823 0 .823-.484 1.645-.484.82 0 .82.24 1.64.24.822 0 .822.008 1.644.008.82 0 .82-.128 1.643-.128.822 0 .822-.425 1.644-.425.823 0 .823.18 1.647.18.823 0 .823-.378 1.646-.378.512 0 1.014.39 1.516.312.506-.075 1.032-.068 1.52-.219.486-.151.8-.692 1.26-.916.458-.223 1.266.14 1.688-.153.685-.473.522-.71 1.207-1.181.686-.472.823-.273 1.508-.745s.463-.795 1.147-1.267c.686-.472.933-.113 1.618-.586.686-.472.42-.858 1.105-1.33.687-.472.989-.033 1.674-.507.685-.471.47-.784 1.157-1.256.685-.472.767-.353 1.452-.826.687-.473.46-.803 1.146-1.275.685-.471.673-.487 1.358-.959.686-.472 1.06.07 1.747-.4.685-.473.21-1.164.896-1.636.686-.473 1.083.102 1.77-.371.686-.474.626-.562 1.312-1.035.687-.473.39-.904 1.078-1.378.688-.474.623-.567 1.31-1.042.655-.45 1.003.053 1.657-.398.656-.45.832-.195 1.486-.647.657-.452.389-.841 1.045-1.293.655-.452.37-.868 1.026-1.319.657-.452 1.02.076 1.676-.376.658-.452.248-1.048.906-1.5.657-.453 1.054.123 1.712-.33.448-.31 1.055-.536 1.383-.928.343-.413.215-1.158.423-1.635.214-.485.026-1.01.097-1.53.072-.522.456-.985.384-1.507-.072-.519-.42-.924-.633-1.41-.208-.476-.19-1.072-.532-1.484-.327-.393-.818-.624-1.269-.933" fill="#DAE0EC"/><g transform="translate(0 289.368)"><mask id="b" fill="#fff"><use xlink:href="#a"/></mask><path d="M33.606 37.127c-4.752 0-9.035-2.438-11.46-6.524l-2.772-4.67a8.159 8.159 0 0 0-6.986-3.979H3.416a3.418 3.418 0 0 1 0-6.834h8.972a15.024 15.024 0 0 1 12.863 7.324l2.773 4.67a6.433 6.433 0 0 0 5.582 3.18 6.436 6.436 0 0 0 5.582-3.18L50.87 7.424C53.296 3.337 57.58.899 62.331.899c4.752 0 9.035 2.438 11.46 6.525l11.346 19.12a6.436 6.436 0 0 0 5.582 3.18c2.314 0 4.4-1.189 5.583-3.18l11.29-19.025c2.423-4.086 6.707-6.525 11.46-6.525 4.75 0 9.034 2.44 11.458 6.526l2.623 4.42a6.517 6.517 0 0 0 5.582 3.18h92.782a3.417 3.417 0 0 1 0 6.834h-92.782a13.385 13.385 0 0 1-11.46-6.525l-2.623-4.422a6.433 6.433 0 0 0-5.58-3.179 6.433 6.433 0 0 0-5.583 3.179l-11.29 19.026c-2.425 4.087-6.709 6.524-11.46 6.524-4.751 0-9.034-2.437-11.46-6.524L67.913 10.911a6.435 6.435 0 0 0-5.582-3.178 6.435 6.435 0 0 0-5.582 3.178L45.065 30.603c-2.426 4.086-6.709 6.524-11.46 6.524" fill="#252B3A" mask="url(#b)"/></g><g transform="translate(35.79 105.158)"><mask id="d" fill="#fff"><use xlink:href="#c"/></mask><path d="M165.287 221.805L12.867 69.386c-15.837-15.838-15.837-41.516 0-57.355 15.84-15.837 41.518-15.837 57.355 0l152.42 152.42c15.838 15.838 15.838 41.516 0 57.354-15.839 15.84-41.517 15.84-57.355 0" fill="#2EA2FF" mask="url(#d)"/></g><path d="M336.564 150.723l-9.187 6.328a11.986 11.986 0 0 1-5.997-5.547 11.85 11.85 0 0 1-1.332-5.485c0-1.976.478-3.843 1.332-5.484a11.993 11.993 0 0 1 6.003-5.547l9.181 6.321c3.297 2.273 3.297 7.142 0 9.414" fill="#252B3A"/><path d="M84.241 145.115a7.66 7.66 0 1 0-15.318 0 7.66 7.66 0 0 0 15.318 0M239.156 300.03a7.657 7.657 0 0 0-7.658-7.659 7.657 7.657 0 0 0-7.66 7.658 7.657 7.657 0 0 0 7.66 7.658 7.657 7.657 0 0 0 7.658-7.658" fill="#FFF"/></g></svg>