<svg width="340" height="340" xmlns="http://www.w3.org/2000/svg" xmlns:xlink="http://www.w3.org/1999/xlink"><defs><path id="a" d="M0 .526h111.59V45.34H0z"/><path id="c" d="M.713.526h111.59V45.34H.713z"/></defs><g fill="none" fill-rule="evenodd"><path d="M106.005 243.656a3.242 3.242 0 0 1-3.089-2.265L55.796 92.16 8.673 241.39a3.241 3.241 0 0 1-4.065 2.114 3.241 3.241 0 0 1-2.113-4.065l50.21-159.014a3.24 3.24 0 0 1 6.18 0l50.21 159.014a3.24 3.24 0 0 1-3.09 4.216" fill="#252B3A"/><g transform="translate(0 235.913)"><mask id="b" fill="#fff"><use xlink:href="#a"/></mask><path d="M3.981.526H107.61c2.97 0 4.9 3.147 3.534 5.785-6.27 12.112-23.756 39.029-55.348 39.029-31.594 0-49.081-26.917-55.35-39.03C-.919 3.673 1.011.526 3.981.526" fill="#2EA2FF" mask="url(#b)"/></g><path d="M334.416 243.656a3.241 3.241 0 0 1-3.09-2.265L284.206 92.16l-47.123 149.23a3.242 3.242 0 0 1-4.065 2.114 3.241 3.241 0 0 1-2.114-4.065l50.212-159.014a3.24 3.24 0 0 1 6.179 0l50.21 159.014a3.24 3.24 0 0 1-3.09 4.216" fill="#252B3A"/><g transform="translate(227.697 235.913)"><mask id="d" fill="#fff"><use xlink:href="#c"/></mask><path d="M4.695.526H108.32c2.972 0 4.9 3.147 3.535 5.785C105.586 18.423 88.1 45.34 56.506 45.34 24.915 45.34 7.43 18.423 1.16 6.31-.206 3.673 1.723.526 4.695.526" fill="#2EA2FF" mask="url(#d)"/></g><path d="M162.192 26.927c.36-.664.538-.566.897-1.227.36-.663.523-.574.882-1.237.359-.661.371-.655.73-1.318.36-.661-.078-.899.282-1.561.359-.66.276-.706.634-1.368.36-.661.693-.48 1.053-1.142.358-.663.19-.754.551-1.416.359-.663.104-.8.465-1.464.36-.663.85-.397 1.211-1.058.36-.665.188-.758.548-1.422.361-.664-.2-1.66.555-1.663.753 0 .54.809.9 1.47.36.663-.1.911.26 1.574.36.661 1.074.273 1.434.935.359.663.22.739.579 1.4.36.662-.082.9.277 1.562.359.662.07.82.429 1.48.36.663 1.116.252 1.474.916.36.663.066.822.427 1.484.358.664.05.83.41 1.494.361.663.74.458 1.1 1.122.36.664.533.57.893 1.235.24.44-.291 1.19-.14 1.656.15.474.429.85.49 1.339.065.492-.123.926-.149 1.42-.028.493.038.928-.076 1.41-.115.48-.378.835-.579 1.288-.198.451.092 1.137-.19 1.548-.277.405-.417.987-.771 1.342-.542.542-.944.14-1.486.683-.542.542-.39.694-.933 1.236-.543.543-.736.35-1.279.893-.544.544-.372.715-.914 1.258-.544.544-.235.853-.778 1.397-.544.544-.61.293-1.38.294-.765.001-.904.325-1.446-.217-.543-.543-.348-.737-.891-1.28s-.67-.416-1.213-.958c-.543-.544.096-1.183-.447-1.725-.544-.544-.61-.479-1.153-1.022-.544-.545-.568-.52-1.11-1.064-.356-.354-.6-.706-.877-1.11-.28-.412-.952-.577-1.151-1.028-.2-.453-.648-.877-.763-1.358-.114-.48.668-1.092.641-1.586-.025-.494-.841-1.013-.779-1.506.063-.488.42-.965.574-1.439.15-.467.571-.827.81-1.267m105.839 300.64c-.737.247-.74-.21-1.518-.21s-.778-.185-1.555-.185c-.777 0-.777-.013-1.555-.013-.777 0-.777.499-1.554.499-.778 0-.778.095-1.555.095-.777 0-.777-.382-1.555-.382-.778 0-.778.192-1.556.192s-.778.29-1.556.29c-.777 0-.777-.56-1.555-.56-.777 0-.777.196-1.556.196-.778 0-.778.434-1.557.434-.778 0-.778-.04-1.557-.04-.777 0-.777-.521-1.555-.521-.778 0-.778.814-1.556.814s-.778-.159-1.556-.159c-.777 0-.777-.502-1.555-.502-.777 0-.777-.33-1.555-.33-.778 0-.778.861-1.555.861-.778 0-.778-.336-1.555-.336-.778 0-.778-.349-1.556-.349s-.778.432-1.555.432c-.777 0-.777.195-1.555.195-.778 0-.778-.785-1.556-.785s-.778.191-1.557.191c-.778 0-.778-.202-1.556-.202s-.778.128-1.556.128-.778-.138-1.557-.138c-.778 0-.778.588-1.557.588-.778 0-.778.264-1.555.264-.778 0-.778-.569-1.556-.569-.777 0-.777.215-1.555.215-.778 0-.778-.273-1.556-.273s-.778.242-1.555.242c-.778 0-.778.44-1.556.44-.777 0-.777-.914-1.556-.914-.778 0-.778 1.016-1.556 1.016-.779 0-.779-.274-1.557-.274-.778 0-.778.18-1.557.18-.778 0-.778-.903-1.556-.903s-.778.092-1.557.092c-.778 0-.778.034-1.555.034-.778 0-.778-.035-1.556-.035-.779 0-.779.51-1.556.51-.778 0-.778.29-1.556.29s-.778-.866-1.556-.866-.778.836-1.556.836c-.779 0-.779-.248-1.558-.248-.777 0-.777-.342-1.556-.342-.78 0-.78.22-1.556.22-.779 0-.779-.108-1.557-.108-.778 0-.778.584-1.557.584-.778 0-.778-1.006-1.555-1.006-.778 0-.778.455-1.556.455s-.778.303-1.557.303c-.778 0-.778-.557-1.557-.557-.778 0-.778.579-1.557.579-.778 0-.778-.794-1.556-.794s-.778.338-1.557.338c-.778 0-.778.436-1.556.436-.779 0-.779-.398-1.557-.398-.777 0-.777.195-1.552.195-.777 0-.777.124-1.554.124s-.777-.073-1.554-.073c-.778 0-.778-.53-1.554-.53-.777 0-.777.49-1.554.49-.778 0-.778.084-1.554.084-.778 0-.778-.57-1.556-.57s-.778.116-1.555.116c-.78 0-.78.124-1.558.124-.78 0-.78.687-1.557.687-.778 0-.778-.32-1.556-.32s-.778.204-1.556.204c-.777 0-.777-.638-1.554-.638-.778 0-.778.05-1.556.05-.776 0-.776.086-1.554.086s-.778.125-1.555.125c-.778 0-.778.16-1.556.16s-.778.137-1.557.137c-.778 0-.778-.389-1.557-.389-.779 0-.779.271-1.558.271-.777 0-.777.355-1.556.355-.778 0-.778-.223-1.556-.223-.777 0-.777-.508-1.555-.508-.778 0-.778-.16-1.557-.16-.778 0-.778.45-1.556.45-.78 0-.78.291-1.558.291s-.778-.397-1.557-.397c-.779 0-.779.343-1.557.343-.779 0-.779-.384-1.557-.384-.779 0-.779-.157-1.555-.157-.78 0-.78.68-1.558.68-.78 0-.78-.324-1.558-.324-.779 0-.779-.326-1.558-.326-.778 0-.778.14-1.557.14-.779 0-.779-.08-1.556-.08-.78 0-.78.335-1.558.335-.78 0-.78.214-1.558.214-.78 0-.78-.589-1.559-.589-.778 0-.778-.262-1.557-.262-.78 0-.78.364-1.559.364-.777 0-.777.341-1.557.341-.78 0-.78-.377-1.558-.377-.78 0-.78-.098-1.558-.098-.78 0-.78.344-1.558.344-.78 0-.78-.096-1.559-.096-.779 0-.779-.28-1.559-.28-.778 0-.778.42-1.558.42-.778 0-.778-.7-1.557-.7-.78 0-.78.627-1.558.627s-.778-.41-1.556-.41c-.779 0-.779.45-1.557.45-.78 0-.78-.055-1.558-.055-.78 0-.78-.044-1.558-.044-.78 0-.78-.515-1.559-.515-.779 0-.779.17-1.558.17-.78 0-.78.373-1.56.373s-.78-.329-1.559-.329c-.778 0-.778.19-1.558.19s-.78.56-1.561.56c-.78 0-.78-.865-1.56-.865s-.78.469-1.558.469c-.78 0-.78-.535-1.56-.535s-.78.433-1.56.433-.78-.5-1.56-.5c-.783 0-.783.209-1.565.209-.782 0-.655.028-1.396-.218.32-.413.207-.547.541-.947.334-.403.843-.665 1.19-1.054.346-.39 1.072-.429 1.431-.81.36-.378.703-.756 1.074-1.122.372-.368.595-.879.979-1.233.383-.355.844-.611 1.24-.953.395-.344.895-.542 1.3-.871.406-.33.365-1.225.78-1.54.415-.317 1.303.013 1.73-.29.425-.302.788-.669 1.224-.957.435-.288.75-.75 1.193-1.023.445-.275.752-.779 1.206-1.039.453-.258.95-.444 1.411-.688.462-.245 1.066-.2 1.535-.43.47-.23.897-.53 1.374-.743.475-.215.972-.361 1.456-.56.482-.199.796-.825 1.285-1.009.489-.182 1.208.292 1.702.125.495-.167.868-.687 1.368-.839.5-.15.996-.303 1.5-.438.504-.133.933-.58 1.443-.699.508-.118 1.081.044 1.593-.058.513-.102 1.036-.128 1.552-.214.514-.084 1.04-.06 1.559-.13.517-.067.996-.463 1.517-.515.518-.051 1.062.192 1.584.158.52-.034 1.02-.586 1.543-.603.522-.017 1.055.078 1.579.078.78 0 .78.068 1.558.068.78 0 .78.206 1.557.206.78 0 .78-.48 1.558-.48.779 0 .779.9 1.558.9s.779-.685 1.559-.685c.778 0 .778.538 1.557.538.78 0 .78.113 1.56.113.778 0 .778-.138 1.558-.138s.78-.392 1.557-.392c.779 0 .779.108 1.558.108.78 0 .78.469 1.559.469.778 0 .778-.062 1.555-.062.777 0 .777-.692 1.554-.692.778 0 .778.004 1.556.004s.778.727 1.556.727.778-.72 1.555-.72c.778 0 .778.423 1.555.423.78 0 .78.236 1.558.236.779 0 .779-.67 1.558-.67.78 0 .78.372 1.559.372.779 0 .779-.427 1.557-.427.78 0 .78.054 1.558.054.78 0 .78-.16 1.558-.16s.778 1.025 1.556 1.025.778-.24 1.557-.24c.778 0 .778-.121 1.556-.121s.778-.22 1.557-.22c.78 0 .78-.264 1.557-.264.779 0 .779.462 1.559.462.78 0 .78-.382 1.56-.382.779 0 .779-.036 1.558-.036.778 0 .778.466 1.557.466.78 0 .78.18 1.558.18.78 0 .78-.056 1.558-.056s.778-.651 1.557-.651c.779 0 .779.748 1.558.748.78 0 .78-.825 1.56-.825s.78.205 1.558.205c.78 0 .78-.132 1.56-.132.778 0 .778-.018 1.557-.018.78 0 .78.874 1.559.874.778 0 .778-.399 1.558-.399s.78.292 1.56.292.78-.013 1.56-.013c.778 0 .778-.289 1.557-.289.78 0 .78-.434 1.56-.434.779 0 .779.327 1.559.327.779 0 .779.076 1.559.076.78 0 .78.31 1.56.31s.78-.052 1.56-.052c.778 0 .778-.575 1.558-.575s.78-.21 1.56-.21.78.666 1.56.666.78-.052 1.559-.052c.78 0 .78-.384 1.56-.384s.78.741 1.56.741.78-.582 1.56-.582.78-.434 1.56-.434.78.085 1.56.085.78.173 1.558.173c.78 0 .78-.236 1.558-.236.78 0 .78.693 1.559.693.78 0 .78-.731 1.56-.731s.78.125 1.56.125.78-.069 1.56-.069.78.346 1.56.346.78-.213 1.56-.213c.781 0 .781-.075 1.561-.075.781 0 .781.025 1.561.025h1.562c.781 0 .781.643 1.562.643.779 0 .779.224 1.559.224.78 0 .78.003 1.562.003s.782-.195 1.562-.195.78.047 1.562.047c.783 0 .783-.682 1.566-.682.78 0 .78.262 1.564.262.523 0 1.031.492 1.552.51.524.016 1.039-.077 1.56-.041.522.034 1.017.219 1.537.27.52.051 1.151-.86 1.669-.793.518.068 1.027.299 1.54.383.517.086.945.677 1.456.78.513.1.988.346 1.496.464.51.117.967.394 1.471.529.504.133 1.264-.622 1.763-.47.5.15.792.971 1.286 1.138.495.167 1.112-.011 1.602.172.488.184 1.086.119 1.569.319.483.198.721.975 1.197 1.19.477.214.9.528 1.368.757.47.23 1.041.248 1.502.493.462.245.677.917 1.13 1.177.454.26 1.414-.336 1.86-.06.444.272.538 1.104.974 1.392.436.289.936.478 1.361.78.427.302.83.633 1.246.949.416.316.812.654 1.217.983.406.329.89.563 1.285.905.395.342.937.528 1.32.883.382.354.324 1.17.696 1.538.37.367.897.57 1.258.95.358.379.966.531 1.313.922.348.39.226 1.18.56 1.582.333.401.91.46 1.231.873m57.445-261.284c-.67-.308-.851.1-1.53.389-.677.29-.75.118-1.428.409-.68.288-.685.276-1.364.565-.679.29-.484.748-1.164 1.037-.679.29-.642.378-1.32.667-.68.29-.83-.06-1.511.23-.68.29-.606.467-1.286.756-.476.203-.842.668-1.32.862-.48.192-1.162-.141-1.645.042-.483.183-.894.543-1.38.716-.486.174-.833.753-1.323.917-.489.164-.997.288-1.488.441-.494.155-1.138-.197-1.632-.053-.498.144-.777 1.068-1.275 1.202-.5.134-1.047.111-1.547.235-.502.123-1.121-.247-1.625-.133-.504.114-1.072-.1-1.577.002-.505.104-.847 1.046-1.355 1.14-.508.092-1.078-.15-1.587-.068-.51.083-1.07-.185-1.58-.114-.514.072-.967.567-1.479.628-.513.061-1.01.314-1.523.365-.514.05-1.095-.685-1.61-.644-.514.04-1.009.266-1.525.296-.515.03-1.032-.148-1.548-.129-.515.02-1.02.161-1.536.17-.516.01-1.024-.124-1.541-.125-.515-.003-1.036.579-1.552.567-.516-.012-1.044.234-1.56.212-.516-.023-1.002-.618-1.518-.65-.514-.034-1.044.143-1.558.098-.514-.043-1-.364-1.513-.42-.513-.052-1.05.13-1.564.066-.51-.065-1.085.3-1.597.225-.51-.075-.877-1.057-1.386-1.142-.51-.085-1.195.826-1.703.731-.507-.095-.968-.465-1.474-.571-.505-.106-1.054-.043-1.557-.157-.503-.115-.794-1.114-1.295-1.24-.5-.124-1.013-.163-1.513-.3-.497-.134-.996-.24-1.492-.386-.496-.145-.97-.325-1.464-.482-.493-.153-1.138.171-1.628.006-.49-.164-1.077-.06-1.564-.234-.484-.174-.669-1.165-1.152-1.35-.482-.183-1.267.409-1.746.216-.477-.193-.867-.615-1.357-.808-.477-.188-.839-.696-1.33-.887-.48-.184-1.044-.166-1.537-.351-.482-.182-.93-.467-1.425-.648-.483-.18-1.17.19-1.665.011-.485-.174-.635-1.297-1.13-1.473-.487-.172-1.13.084-1.627-.088-.487-.169-1.077-.05-1.575-.22-.488-.164-.805-.858-1.303-1.023-.49-.163-1.165.225-1.666.063-.49-.16-.745-1.076-1.246-1.234-.491-.155-1.092.012-1.594-.144-.493-.151-1.117.112-1.62-.04-.494-.149-.88-.68-1.382-.828-.496-.146-1.05-.103-1.555-.248-.497-.142-1.03-.167-1.537-.308-.497-.14-.98-.348-1.484-.486-.5-.137-.866-.785-1.372-.92-.5-.134-1.131.208-1.637.078-.502-.13-1.026-.177-1.534-.306-.502-.126-.872-.807-1.38-.93-.502-.124-1.04-.134-1.548-.256-.503-.12-1.04-.117-1.55-.235-.506-.117-1.165.437-1.675.323-.506-.114-.943-.537-1.454-.65-.507-.109-1.056-.018-1.568-.127-.508-.106-.888-.835-1.4-.94-.508-.103-1.03-.157-1.543-.258-.508-.1-1.038-.114-1.552-.212-.508-.096-1.043-.069-1.556-.163-.51-.094-1.05-.028-1.564-.119-.51-.09-1.046-.043-1.56-.13-.512-.087-.96-.557-1.475-.64-.512-.084-1.07.101-1.586.021-.512-.08-1.079.193-1.596.116-.513-.077-.994-.372-1.511-.446-.514-.073-.96-.649-1.479-.718-.514-.07-1.011-.297-1.53-.364-.515-.066-1.09.316-1.608.252-.515-.063-1.065.164-1.586.104-.514-.06-.986-.512-1.504-.569-.516-.056-1.068.231-1.588.179-.516-.054-.994-.488-1.514-.537-.517-.05-1.022-.253-1.542-.299-.519-.045-1.095.59-1.616.547-.518-.043-1.01-.408-1.532-.446-.518-.04-1.015-.403-1.536-.439-.518-.035-1.048.072-1.57.04-.518-.032-1.034-.142-1.554-.17-.52-.03-1.058.278-1.58.254-.52-.025-1.048.165-1.572.143-.52-.022-1.017-.63-1.54-.647-.52-.019-1.036-.298-1.559-.312-.521-.015-.992.387-1.516.377-.254-1.123-.673-1.275-.326-2.372.228-.718.868-.377 1.4-.91.533-.532.6-.462 1.133-.995.533-.532.29-.775.823-1.307.532-.533.6-.467 1.133-.999.533-.534.73-.336 1.264-.87.534-.532.237-.829.77-1.361.534-.535 1.028-.04 1.563-.575.533-.534.091-.977.625-1.51.362-.362 1.012-.466 1.336-.853.328-.391.285-1.072.576-1.486.293-.417.605-.806.86-1.244.255-.441.527-.865.742-1.323.217-.46.894-.746 1.07-1.221.177-.477.181-1.044.316-1.531.136-.49-.109-1.078-.015-1.576.094-.5.492-.962.545-1.466.05-.506-.108-1.037-.1-1.545.01-.508-.559-.982-.593-1.49-.034-.506.771-1.1.694-1.6-.077-.503-.637-.92-.756-1.415-.119-.493.249-1.142.087-1.625-.16-.478-.752-.815-.957-1.283-.2-.464.015-1.158-.228-1.606-.373-.687-.556-.59-.93-1.277-.373-.687-.158-.804-.53-1.492-.373-.687-1.152-.264-1.526-.953-.372-.687-.183-.789-.557-1.477-.372-.686.075-.93-.298-1.616-.373-.688-.39-.678-.763-1.366-.373-.687-.563-.585-.936-1.273-.373-.688-.27-.744-.644-1.432-.373-.69-.224-.77-.597-1.458-.374-.69-1.017-.341-1.391-1.032-.374-.689.321-1.066-.054-1.755-.269-.497-.703-.974-1.05-1.407-.352-.438-.932-.726-1.352-1.09-.423-.368-1.04-.477-1.521-.762-.48-.285-.94-.592-1.465-.79-.52-.194-1-.65-1.553-.751-.545-.098-1.153-.064-1.718-.064-.566 0-1.169-.006-1.713.091-.554.1-.973.699-1.495.895-.525.195-1.347-.17-1.827.116-.48.285-.752.951-1.174 1.319-.42.365-.81.787-1.163 1.227-.346.43-.375 1.066-.645 1.563-.373.688-.62.554-.992 1.243-.372.687-.431.656-.804 1.343-.374.687-.462.64-.834 1.327-.373.688-.076.85-.449 1.538-.373.687-.624.55-.996 1.236-.373.688.089.938-.284 1.625-.373.689-.464.64-.838 1.329-.373.688-.434.655-.807 1.343-.375.688-.554.59-.928 1.279s.047.919-.327 1.608c-.374.69-1.166.26-1.54.949-.243.45.146 1.213-.055 1.675-.202.468-.887.75-1.047 1.23-.163.483-.419.967-.537 1.458-.12.496-.089 1.047-.165 1.548-.077.503.257 1.055.224 1.56-.035.508-.155 1.004-.146 1.512.01.508-.427 1.06-.376 1.564.052.505.19 1.032.285 1.532.094.498.885.838 1.019 1.328.136.489.28.947.457 1.423.176.475-.297 1.23-.08 1.69.216.457 1.09.577 1.346 1.017.254.438.166 1.086.46 1.503.29.414.423.977.752 1.368.324.386 1.161.308 1.523.67.532.532.269.795.801 1.329.533.532.835.23 1.365.761.534.533.496.57 1.028 1.104.533.531.647.42 1.18.952.532.533-.192 1.258.34 1.791.533.533.703.363 1.237.897.534.534.62.448 1.154.983.534.533 1.006.21 1.234.93.348 1.098.511 1.26.258 2.384-.522.01-1.346-.199-1.865-.184-.523.015-1.03.412-1.55.43-.522.018-1.04.074-1.559.096-.521.02-1.062-.423-1.581-.397-.522.024-1.052-.128-1.571-.1-.522.03-1.041.116-1.56.148-.52.032-.999.716-1.517.751-.521.035-1.094-.674-1.611-.636-.523.04-.978.904-1.497.946-.522.043-1.057-.116-1.576-.07-.521.045-1.027.224-1.545.273-.52.05-1.036.119-1.553.17-.521.054-1.132-.76-1.65-.704-.52.056-.996.512-1.512.57-.52.061-1.074-.168-1.59-.104-.519.063-1.038.141-1.553.207-.518.068-.999.423-1.514.493-.518.07-.974.573-1.489.647-.518.073-1.078-.175-1.592-.1-.518.078-1.045.081-1.558.16-.516.08-1.081-.14-1.594-.057-.516.084-1.023.22-1.535.307-.515.087-.932.743-1.443.832-.515.092-.988.39-1.498.484-.515.093-1.147-.465-1.656-.37-.515.099-1.017.249-1.526.349-.512.102-.948.58-1.455.682-.512.105-1.173-.515-1.68-.408-.513.107-.901.786-1.407.896-.51.11-.924.646-1.43.76-.511.114-1.034.147-1.54.264-.508.118-1.052.066-1.556.188-.51.12-.958.473-1.461.596-.509.124-1.18-.422-1.682-.295-.508.128-.83.964-1.332 1.094-.507.132-1.04.142-1.54.275-.507.135-.988.336-1.488.473-.505.138-1.097-.057-1.597.084-.503.14-.944.486-1.442.629-.504.145-.98.364-1.477.509-.501.148-1.004.273-1.5.421-.501.153-.996.303-1.49.456-.501.154-1.19-.302-1.683-.146-.5.16-1.066.104-1.558.262-.5.162-.998.323-1.489.486-.497.164-.931.517-1.42.683-.497.168-1.006.292-1.493.461-.496.171-.762.987-1.248 1.16-.495.175-1.073.105-1.556.28-.495.179-1.152-.096-1.634.082-.493.182-.941.476-1.422.656-.492.187-1.032.24-1.512.425-.492.188-.62 1.289-1.096 1.476-.489.194-1.025.242-1.5.433-.48.194-1.147-.089-1.63.095-.482.184-1.011.23-1.497.404-.486.174-1.02.194-1.508.358-.49.165-.692 1.214-1.184 1.368-.493.156-1.19-.356-1.686-.21-.496.144-.89.645-1.388.781-.5.135-.934.536-1.435.663-.5.125-1.15-.356-1.654-.241-.503.115-1.026.123-1.53.23-.506.104-.962.442-1.47.537-.507.096-1.095-.293-1.603-.207-.51.084-.866 1.155-1.376 1.23-.51.075-1.113-.498-1.626-.434-.512.064-1.01.249-1.522.302-.513.054-1.03.076-1.544.12-.514.043-1.03.06-1.544.093-.516.033-1.024.194-1.54.216-.516.024-1.028.264-1.544.276-.516.012-1.04-.613-1.556-.611-.516.001-1.029.232-1.545.223-.516-.01-1.044.321-1.56.301-.515-.02-1-.652-1.515-.682-.516-.03-1.064.446-1.579.404-.514-.04-1.04.015-1.554-.037-.514-.05-1.063.148-1.576.086-.512-.061-1.016-.254-1.527-.325-.51-.072-1.047-.043-1.557-.126-.509-.082-.941-.642-1.448-.736-.508-.093-.956-.48-1.462-.582-.505-.103-1.048-.02-1.552-.133-.503-.114-1.06-.005-1.56-.129-.502-.124-.847-.84-1.345-.974-.499-.133-1.2.464-1.696.32-.495-.144-.953-.427-1.447-.58-.491-.155-.863-.683-1.353-.847-.489-.164-1.15.165-1.636-.01-.486-.173-.944-.433-1.428-.618-.482-.183-.794-.801-1.273-.995-.478-.193-.848-.63-1.323-.833-.678-.289-1.052.589-1.729.3-.678-.29-.395-.955-1.073-1.244-.68-.29-.597-.481-1.277-.772-.679-.29-.782-.046-1.461-.336-.681-.288-.73-.172-1.41-.461-.68-.29-.913.257-1.594-.033-.68-.29-.557-1.473-1.23-1.167-.736.335-.107.942-.424 1.687-.318.744-.203.792-.52 1.537-.318.745-.652.603-.969 1.347-.318.746.018.889-.299 1.633-.318.747-.717.577-1.034 1.324-.32.745-.414.658-.147 1.424.242.696.39.253 1.066.542.68.288.6.475 1.279.763.679.29.545.605 1.224.894.679.29.99-.444 1.67-.154.68.29.658.342 1.337.631.68.29.517.673 1.197.964.681.29.537.63 1.217.92.483.206 1.142-.001 1.629.197.486.196 1.012.292 1.502.48.49.19.78.928 1.272 1.108.494.179 1.016.302 1.512.473.498.17.965.454 1.465.614.5.162 1.175-.22 1.677-.067.503.153 1.083.031 1.587.174.506.144.992.338 1.5.472.507.134.98.395 1.49.52.51.124 1.06.06 1.573.176.512.114.864.984 1.378 1.089.514.107 1.195-.628 1.711-.53.516.095.908.886 1.426.974.518.086 1.163-.641 1.683-.564.52.078 1.012.295 1.532.364.521.067.959.826 1.481.885.522.059 1.037.269 1.56.317.521.049 1.123-.838 1.648-.8.523.039 1.026.318 1.55.347.525.029 1.05-.052 1.575-.032.524.019 1.046-.101 1.572-.09.525.009 1.043.59 1.568.59.53 0 1.063.032 1.592.022.53-.009 1.046-.478 1.575-.498.53-.019 1.073.282 1.601.251.529-.029 1.042-.285 1.571-.324.527-.04 1.087.291 1.615.242.527-.05 1.05-.176 1.576-.234.527-.06.969-.79 1.494-.857.525-.07 1.068.042 1.59-.035.525-.08 1.125.331 1.647.244.523-.088 1.013-.358 1.534-.456.52-.096 1.045-.178 1.564-.285.519-.106 1.005-.358 1.522-.473.516-.116.995-.374 1.51-.5.515-.125.968-.468 1.48-.603.512-.135 1.254.573 1.764.43.509-.144.768-1.142 1.276-1.295.505-.152 1.012-.277 1.518-.439.503-.163 1.225.336 1.726.165.502-.172 1.056-.207 1.555-.387.497-.18.756-1.006 1.252-1.196.494-.188 1.124-.03 1.615-.227.473-.19.762-.864 1.249-1.056.475-.187 1.253.385 1.741.198.476-.185.91-.492 1.398-.676.478-.18.755-.918 1.245-1.099.48-.177 1.228.366 1.718.189.481-.173.986-.287 1.479-.46.483-.17.81-.793 1.304-.963.484-.167.939-.434 1.434-.6.486-.164 1.017-.202 1.513-.364.486-.161 1.004-.238 1.5-.399.488-.157.8-.887 1.297-1.043.49-.154 1.157.249 1.655.096.491-.15.938-.453 1.438-.603.491-.146 1.098.087 1.598-.057.494-.144.93-.496 1.429-.637.494-.141.83-.862 1.332-1.001.495-.137 1.153.307 1.655.172.498-.133.962-.396 1.465-.528.498-.13.997-.262 1.501-.39.499-.126.936-.51 1.44-.635.5-.124 1.069.028 1.574-.094.5-.12 1.002-.245 1.508-.362.5-.117.975-.363 1.48-.477.503-.113 1.114.255 1.621.145.502-.11 1.044-.036 1.553-.143.503-.107.966-.398 1.475-.501.504-.104 1.05-.001 1.56-.102.503-.099.842-1.058 1.351-1.155.506-.096 1.052.007 1.562-.086.506-.092.986-.35 1.497-.44.506-.09.985-.371 1.496-.457.508-.086 1.07.127 1.581.044.51-.082 1.13.545 1.644.467.509-.08.872-1.131 1.387-1.207.509-.076 1.065.14 1.58.068.51-.073 1.038-.036 1.552-.104.51-.069 1.042.009 1.558-.057.51-.065 1.015-.192 1.53-.255.513-.06 1.054.13 1.57.07.512-.056 1.006-.274 1.521-.328.513-.055.975-.617 1.491-.668.512-.05 1.1.662 1.617.614.514-.047.994-.458 1.511-.503.514-.043 1.025-.166 1.542-.206.514-.04 1.074.537 1.593.501.513-.036.96-1.08 1.478-1.113.514-.033 1.042.077 1.56.047.515-.03 1.033-.083 1.55-.109.517-.025 1.037-.048 1.556-.07.515-.022 1.055.49 1.574.472.516-.018 1.034.005 1.553-.01.517-.014 1.063-.232 1.583-.244.248.739-.147.79-.147 1.568 0 .779.113.779.113 1.558s-.277.779-.277 1.558c0 .777-.114.777-.114 1.556 0 .78.492.78.492 1.557 0 .778-.441.778-.441 1.557 0 .779.084.779.084 1.557 0 .779.515.779.515 1.558 0 .777-.362.777-.362 1.555 0 .78.374.78.374 1.558 0 .779.088.779.088 1.558 0 .778-.63.778-.63 1.556 0 .779.251.779.251 1.559 0 .778-.497.778-.497 1.557 0 .78.282.78.282 1.56 0 .777-.2.777-.2 1.556 0 .78.273.78.273 1.56s-.258.78-.258 1.56c0 .779.747.779.747 1.558 0 .78-.465.78-.465 1.558 0 .78.12.78.12 1.56 0 .778-.11.778-.11 1.557 0 .779.638.779.638 1.558s-.075.779-.075 1.558-.782.779-.782 1.558c0 .777.14.777.14 1.556 0 .78.713.78.713 1.558 0 .779-.648.779-.648 1.558s.323.779.323 1.557c0 .779-.112.779-.112 1.559 0 .778-.455.778-.455 1.557 0 .78.836.78.836 1.558 0 .78-.648.78-.648 1.558 0 .78-.251.78-.251 1.559 0 .78.03.78.03 1.56s.28.78.28 1.559L165 121.54c0 .78.03.78.03 1.56s.643.78.643 1.558c0 .779-.515.779-.515 1.559 0 .779-.422.779-.422 1.558s-.119.779-.119 1.559c0 .778 1.046.778 1.046 1.556 0 .78-.506.78-.506 1.56 0 .778.459.778.459 1.557 0 .779-.87.779-.87 1.558s.838.779.838 1.558c0 .78.083.78.083 1.559v1.558c0 .78-.566.78-.566 1.56s.48.78.48 1.56-.145.78-.145 1.558c0 .78-.667.78-.667 1.56 0 .779.308.779.308 1.559 0 .779.494.779.494 1.559 0 .777.03.777.03 1.557 0 .78-.986.78-.986 1.558 0 .78.658.78.658 1.56 0 .778-.654.778-.654 1.557 0 .78.996.78.996 1.559 0 .78-.767.78-.767 1.56s.326.78.326 1.558c0 .78.107.78.107 1.56s.162.78.162 1.56-.445.78-.445 1.558c0 .78.388.78.388 1.559 0 .78-.65.78-.65 1.56 0 .779.639.779.639 1.558s-.283.779-.283 1.558c0 .78-.038.78-.038 1.56s-.327.78-.327 1.56c0 .778.419.778.419 1.558s-.294.78-.294 1.56.136.78.136 1.56c0 .779-.16.779-.16 1.558 0 .78.796.78.796 1.56 0 .778-.497.778-.497 1.558s-.193.78-.193 1.56c0 .778-.318.778-.318 1.558s.37.78.37 1.56c0 .779.034.779.034 1.559 0 .78.546.78.546 1.56s-.398.78-.398 1.56.47.78.47 1.558c0 .78-.8.78-.8 1.56 0 .778-.154.778-.154 1.556 0 .779.51.779.51 1.557 0 .778.258.778.258 1.556s-.4.778-.4 1.556c0 .78-.379.78-.379 1.557 0 .779.295.779.295 1.557 0 .779-.325.779-.325 1.558 0 .78.303.78.303 1.56s.653.78.653 1.56c0 .778-.927.778-.927 1.56 0 .778.469.778.469 1.558s.042.78.042 1.559c0 .778.132.778.132 1.557 0 .779-.382.779-.382 1.558s-.308.779-.308 1.557c0 .78.367.78.367 1.557 0 .78-.273.78-.273 1.56 0 .779.105.779.105 1.559 0 .781.415.781.415 1.56 0 .78-.564.78-.564 1.56s.28.78.28 1.56.128.78.128 1.558c0 .78-.453.78-.453 1.558 0 .78.625.78.625 1.56s.26.78.26 1.559c0 .78-.152.78-.152 1.56s.15.78.15 1.56-.38.78-.38 1.562c0 .778.035.778.035 1.558s.247.78.247 1.56-.497.78-.497 1.56.098.78.098 1.56-.098.78-.098 1.56c0 .781.573.781.573 1.56 0 .78-.74.78-.74 1.56s.049.78.049 1.56c0 .782.43.782.43 1.562s-.143.78-.143 1.56-.309.78-.309 1.56c0 .781-.039.781-.039 1.56 0 .781.608.781.608 1.562s-.322.781-.322 1.561c0 .78.641.78.641 1.56 0 .781-.279.781-.279 1.562s.185.781.185 1.56c0 .78-.068.78-.068 1.562 0 .78-.719.78-.719 1.562 0 .78-.181.78-.181 1.56s.655.78.655 1.56-.126.78-.126 1.56-.327.78-.327 1.56.746.78.746 1.56c0 .781-.674.781-.674 1.561 0 .781.57.781.57 1.561 0 .781-.559.781-.559 1.56 0 .783-.084.783-.084 1.564 0 .78.158.78.158 1.56 0 .782.452.782.452 1.564 0 .78-.138.78-.138 1.562s-.512.782-.512 1.563c0 .78.113.78.113 1.562s.643.782.643 1.562c0 .782-.734.782-.734 1.564s.645.782.645 1.563c0 .783-.432.783-.432 1.566s.53.846-.026 1.398c-.559.556-.62-.2-1.409-.2-.788 0-.788-.155-1.574-.155-.788 0-.788.946-1.575.946-.786 0-.786-.943-1.573-.943-.789 0-.789.892-1.576.892-.788 0-.788-.644-1.576-.644-.786 0-.786-.207-1.574-.207s-.788.162-1.575.162c-.788 0-.788.51-1.575.51-.787 0-.787.059-1.575.059-.788 0-.788-.538-1.576-.538-.787 0-.787-.203-1.574-.203-.788 0-.788.028-1.576.028s-.788.677-1.576.677-.788-.388-1.575-.388c-.788 0-.788.562-1.576.562s-.788-.661-1.576-.661c-.787 0-.787.616-1.574.616s-.787-.604-1.574-.604-.787.234-1.574.234c-.788 0-.788-.283-1.576-.283-.787 0-.787.347-1.574.347-.789 0-.789.115-1.577.115-.787 0-.787-.064-1.574-.064-.79 0-.79-.19-1.577-.19-.789 0-.789-.31-1.577-.31-.787 0-.787.708-1.576.708-.788 0-.788-.585-1.576-.585-.79 0-.79-.227-1.578-.227s-.788.944-1.576.944c-.787 0-.787-.034-1.577-.034-.789 0-.789-.79-1.577-.79-.79 0-.79.464-1.578.464-.79 0-.79-.052-1.58-.052s-.79-.02-1.581-.02c-.524 0-1.035.412-1.555.426-.524.014-1.047-.217-1.568-.19-.523.028-1.036.11-1.555.153-.521.042-1.053-.075-1.571-.019-.52.057-1.005.367-1.52.438-.52.07-1.065-.081-1.58.002-.516.085-1.085-.12-1.597-.023-.513.099-1.038.179-1.547.29-.51.114-.977.432-1.482.558-.508.126-.944.514-1.447.652-.504.14-1.157-.225-1.655-.072-.5.153-1.066.136-1.56.302-.495.167-.686 1.208-1.175 1.387-.49.18-1.21-.247-1.696-.054-.485.192-.676 1.09-1.155 1.298-.48.205-1.27-.293-1.744-.073-.474.22-.618 1.122-1.086 1.354-.468.231-1.165.003-1.627.247-.462.243-.973.406-1.426.662-.454.257-.594 1.047-1.042 1.316-.447.269-1.253-.045-1.692.236-.44.28-.793.703-1.225.995-.433.293-1.093.271-1.517.575-.426.304-.537 1.042-.953 1.357-.416.315-.878.572-1.285.899-.407.326-.925.524-1.323.86-.398.339-.512 1.004-.9 1.353-.389.348-.82.643-1.2 1.001-.38.358-1.038.43-1.408.8-.369.368-.472 1.002-.83 1.38-.36.378-1.03.474-1.379.863-.35.388-.299 1.128-.637 1.525-.339.398-.41 1.004-.737 1.411-.328.406-1.374.246-1.691.661-.316.415-.022 1.283-.328 1.707-.305.423-.546.88-.84 1.312-.293.43-.516.895-.797 1.333-.282.44-1.356.386-1.626.834-.269.446.257 1.358-.002 1.813-.26.46-1.1.636-1.226 1.112-.134.503.188 1.071.19 1.57.005.514.399.893.533 1.379.135.492-.057 1.05.198 1.488.256.438.56.82.92 1.182.358.358.788.577 1.234.834.432.25.727.924 1.23 1.056.476.124 1.064.164 1.593.164.78 0 .78-.66 1.56-.66.778 0 .778.158 1.558.158.781 0 .781.144 1.561.144.78 0 .78-.188 1.56-.188.778 0 .778.163 1.558.163.779 0 .779.02 1.559.02.78 0 .78.133 1.559.133.779 0 .779-.096 1.558-.096.778 0 .778-.3 1.558-.3s.78.57 1.558.57c.78 0 .78-.245 1.559-.245.778 0 .778-.008 1.557-.008.78 0 .78-.293 1.559-.293.779 0 .779.67 1.559.67.777 0 .777.146 1.557.146.78 0 .78-.492 1.56-.492.778 0 .778-.043 1.558-.043h1.559c.78 0 .78-.482 1.56-.482s.78.481 1.56.481.78.319 1.56.319.78-.158 1.56-.158.78.033 1.558.033c.78 0 .78.083 1.56.083.778 0 .778-.213 1.558-.213s.78.005 1.559.005c.78 0 .78-.47 1.559-.47.779 0 .779.501 1.557.501.78 0 .78.087 1.56.087s.78.206 1.558.206c.78 0 .78-.506 1.559-.506.78 0 .78.1 1.559.1.78 0 .78-.02 1.56-.02s.78.06 1.56.06.78.316 1.56.316.78-.012 1.56-.012.78-.153 1.56-.153.78-.53 1.56-.53c.778 0 .778.095 1.558.095.779 0 .779.806 1.559.806.779 0 .779-.63 1.559-.63.78 0 .78.051 1.559.051.78 0 .78.43 1.558.43.78 0 .78.075 1.56.075s.78-.707 1.56-.707.78.74 1.559.74c.78 0 .78-.13 1.56-.13s.78-.567 1.562-.567c.78 0 .78-.176 1.559-.176.78 0 .78.108 1.558.108.78 0 .78-.03 1.56-.03s.78-.195 1.56-.195.78.094 1.56.094c.779 0 .779.704 1.559.704.78 0 .78-.698 1.559-.698.78 0 .78.202 1.56.202s.78-.057 1.56-.057.78-.143 1.56-.143.78.335 1.56.335.78-.137 1.56-.137.78-.172 1.56-.172c.779 0 .779.008 1.559.008.78 0 .78.23 1.56.23s.78-.023 1.559-.023c.78 0 .78.046 1.56.046.782 0 .782.422 1.562.422s.78.177 1.56.177.78-.717 1.56-.717.78.52 1.56.52c.778 0 .778.062 1.556.062s.778-.042 1.557-.042c.779 0 .779-.73 1.557-.73.778 0 .778.183 1.557.183.778 0 .778.434 1.557.434.779 0 .779-.513 1.558-.513.78 0 .78.256 1.559.256.78 0 .78.413 1.559.413.78 0 .78-.627 1.56-.627.782 0 .782-.12 1.561-.12.78 0 .78.86 1.56.86s.78-.272 1.558-.272c.78 0 .78.18 1.559.18.78 0 .78-.13 1.558-.13.779 0 .779-.56 1.559-.56.779 0 .779.332 1.559.332.78 0 .78.098 1.558.098.78 0 .78-.416 1.56-.416.781 0 .781.27 1.562.27.78 0 .78-.288 1.561-.288.779 0 .779-.205 1.559-.205.78 0 .78 1.05 1.559 1.05.78 0 .78-.749 1.56-.749.779 0 .779-.216 1.559-.216.78 0 .78.032 1.56.032s.78.09 1.561.09c.78 0 .78.585 1.56.585.781 0 .781.253 1.561.253.78 0 .78-.925 1.559-.925.78 0 .78.083 1.56.083s.78.255 1.562.255c.78 0 .78.085 1.56.085s.78.245 1.562.245c.78 0 .78.1 1.56.1s.78-.305 1.56-.305c.781 0 .781-.35 1.561-.35.781 0 .781-.016 1.563-.016.78 0 .78.827 1.56.827.781 0 .781-.514 1.561-.514.781 0 .781.46 1.562.46.78 0 .78-.758 1.562-.758.78 0 .78.316 1.56.316.782 0 .782-.284 1.562-.284s.78.452 1.562.452c.78 0 .78.008 1.562.008.78 0 .78.175 1.562.175.78 0 .78.129 1.562.129.78 0 .78-.999 1.56-.999s.78.587 1.561.587c.78 0 .78-.292 1.56-.292s.78.704 1.56.704c.781 0 .781-.091 1.563-.091.78 0 .78.045 1.561.045.78 0 .78-.3 1.56-.3.782 0 .782.12 1.563.12.782 0 .782-.427 1.564-.427.78 0 .78.583 1.56.583.783 0 .783-.18 1.565-.18.782 0 .782-.73 1.563-.73.782 0 .782.376 1.564.376.78 0 .78-.082 1.562-.082.78 0 .78.527 1.563.527.782 0 .782-.337 1.564-.337.78 0 .78-.186 1.563-.186.784 0 .784.232 1.567.232.784 0 .784-.058 1.566-.058.528 0 .928-.453 1.405-.578.503-.132 1.28.422 1.712.173.446-.257.797-.77 1.153-1.129.36-.361.568-.888.824-1.328.254-.438.026-1.041.163-1.532.134-.487.394-.888.398-1.402.002-.499.387-1.07.254-1.572-.127-.476-.963-.657-1.223-1.117-.26-.454-.373-.98-.642-1.428-.271-.447.095-1.293-.186-1.73-.282-.442-.538-.915-.83-1.345-.294-.433-.74-.773-1.045-1.196-.306-.424-.586-.878-.904-1.293-.316-.415-.954-.586-1.28-.992-.328-.407-.646-.822-.984-1.219-.338-.397-.903-.592-1.252-.98-.35-.389-.383-1.066-.743-1.444-.36-.378-1.197-.284-1.566-.652-.37-.369-.443-1.032-.822-1.391-.38-.358-.862-.599-1.25-.947-.39-.347-.606-.892-1.003-1.229-.398-.338-.781-.695-1.19-1.022-.406-.327-1.175-.18-1.591-.495-.416-.315-.654-.856-1.079-1.16-.424-.303-.547-1.042-.979-1.334-.432-.294-1.284.057-1.724-.224-.44-.282-.885-.53-1.334-.8-.446-.268-.902-.497-1.356-.753-.455-.257-.743-.799-1.204-1.044-.461-.244-.904-.516-1.372-.747-.468-.232-1.01-.295-1.484-.513-.474-.218-.891-.55-1.37-.755-.48-.206-.806-.786-1.29-.98-.485-.193-1.216.266-1.707.085-.49-.18-.78-.914-1.275-1.081-.494-.166-1.106.035-1.606-.118-.499-.152-.792-1.023-1.295-1.162-.503-.14-1.151.245-1.658.12-.506-.126-.896-.782-1.406-.894-.51-.112-1.155.41-1.668.311-.512-.099-.932-.755-1.447-.838-.515-.085-1.105.291-1.623.22-.517-.07-.996-.487-1.515-.544-.518-.056-1.043-.169-1.564-.211-.52-.041-1.1.806-1.622.778-.52-.029-1.019-.427-1.542-.441-.522-.015-1.04-.178-1.564-.178-.787 0-.787.258-1.576.258-.787 0-.787-.154-1.574-.154s-.787-.155-1.575-.155c-.786 0-.786-.35-1.573-.35-.789 0-.789.207-1.575.207-.788 0-.788.743-1.576.743-.787 0-.787.026-1.575.026-.788 0-.788-.331-1.574-.331-.788 0-.788-.368-1.576-.368-.787 0-.787.16-1.575.16-.789 0-.789-.13-1.575-.13-.788 0-.788-.181-1.576-.181-.787 0-.787.827-1.575.827-.789 0-.789-.387-1.575-.387-.789 0-.789-.147-1.576-.147-.788 0-.788.506-1.575.506-.789 0-.789-.365-1.577-.365-.787 0-.787.08-1.574.08-.786 0-.786-.603-1.573-.603-.786 0-.786.591-1.575.591-.788 0-.788-.148-1.575-.148-.787 0-.787.254-1.575.254-.787 0-.787-.361-1.576-.361-.788 0-.788.094-1.575.094-.788 0-.788.006-1.577.006-.788 0-.788.032-1.576.032s-.788-.155-1.576-.155c-.79 0-.79.495-1.577.495-.79 0-.79-.082-1.578-.082-.787 0-.787-.108-1.575-.108-.79 0-.79.303-1.578.303-.789 0-.789-.19-1.576-.19-.79 0-.79-.128-1.58-.128-.789 0-.789-.147-1.579-.147-.79 0-.788.296-1.35-.258-.556-.547.005-.545.005-1.324 0-.78.126-.78.126-1.558 0-.779-.523-.779-.523-1.558 0-.778.505-.778.505-1.556s-.804-.778-.804-1.557c0-.78.111-.78.111-1.557 0-.78.876-.78.876-1.558 0-.777-.016-.777-.016-1.556s-.021-.779-.021-1.558c0-.777-.966-.777-.966-1.556 0-.78.752-.78.752-1.557 0-.779-.345-.779-.345-1.558s.398-.779.398-1.558-.607-.779-.607-1.558c0-.778-.175-.778-.175-1.557 0-.78.59-.78.59-1.56 0-.778-.633-.778-.633-1.558s.465-.78.465-1.559c0-.78.339-.78.339-1.559 0-.78-.247-.78-.247-1.56 0-.779-.425-.779-.425-1.557 0-.78.785-.78.785-1.558 0-.78-.854-.78-.854-1.558 0-.78.679-.78.679-1.559 0-.778-.019-.778-.019-1.557 0-.779.311-.779.311-1.558 0-.778-.02-.778-.02-1.557 0-.78-.693-.78-.693-1.557 0-.78-.004-.78-.004-1.558 0-.779.22-.779.22-1.558s.288-.779.288-1.558c0-.778-.868-.778-.868-1.557 0-.78.946-.78.946-1.558 0-.78-.589-.78-.589-1.56s-.323-.78-.323-1.558c0-.78.704-.78.704-1.56s.1-.78.1-1.56c0-.779-.275-.779-.275-1.558 0-.78.449-.78.449-1.558 0-.78-.883-.78-.883-1.56 0-.778.572-.778.572-1.558 0-.778-.497-.778-.497-1.557 0-.779-.19-.779-.19-1.558 0-.78.377-.78.377-1.559 0-.778.049-.778.049-1.556 0-.78.424-.78.424-1.56 0-.778-.738-.778-.738-1.558 0-.779.694-.779.694-1.558s-.045-.779-.045-1.559c0-.78-.257-.78-.257-1.56s.54-.78.54-1.56c0-.778-1.053-.778-1.053-1.558s.202-.78.202-1.56.388-.78.388-1.558c0-.779-.435-.779-.435-1.558 0-.78.42-.78.42-1.559 0-.779-.456-.779-.456-1.559 0-.778.23-.778.23-1.557 0-.78.685-.78.685-1.558 0-.78.013-.78.013-1.56 0-.779-.967-.779-.967-1.558 0-.78.597-.78.597-1.56s.052-.78.052-1.56.145-.78.145-1.558c0-.78-.497-.78-.497-1.56s.67-.78.67-1.56c0-.778-.72-.778-.72-1.558 0-.778-.209-.778-.209-1.558s.24-.78.24-1.559c0-.78.632-.78.632-1.559 0-.778-.718-.778-.718-1.558s.135-.78.135-1.56.603-.78.603-1.56-.417-.78-.417-1.559c0-.78-.149-.78-.149-1.56 0-.779-.052-.779-.052-1.559 0-.779-.139-.779-.139-1.558 0-.78.322-.78.322-1.56s.204-.78.204-1.558c0-.78-.76-.78-.76-1.56s.25-.78.25-1.56.534-.78.534-1.56.109-.78.109-1.559c0-.779-.616-.779-.616-1.559 0-.78-.131-.78-.131-1.56 0-.777.824-.777.824-1.555 0-.778-.949-.778-.949-1.557 0-.778.972-.778.972-1.556 0-.779-.131-.779-.131-1.557 0-.778-.55-.778-.55-1.556s.534-.778.534-1.557c0-.78-.49-.78-.49-1.559 0-.779.687-.779.687-1.559 0-.779-.198-.779-.198-1.56 0-.78-.408-.78-.408-1.56s-.38-.78-.38-1.558c0-.78.933-.78.933-1.558 0-.78-.5-.78-.5-1.558 0-.779.546-.779.546-1.558s-.725-.779-.725-1.557c0-.78.74-.78.74-1.559 0-.778-1.019-.778-1.019-1.558s.934-.78.934-1.56-.698-.78-.698-1.56.46-.78.46-1.56-.5-.78-.5-1.56c0-.778.605-.778.605-1.558 0-.779-.63-.779-.63-1.559 0-.778-.223-.778-.223-1.558s.4-.78.4-1.56-.104-.78-.104-1.56.084-.78.084-1.561c0-.779.003-.779.003-1.559 0-.78.12-.78.12-1.56 0-.779.563-.779.563-1.559 0-.779-.596-.779-.596-1.559 0-.78.572-.78.572-1.561 0-.78-.06-.78-.06-1.561 0-.78-.665-.78-.665-1.56s-.256-.78-.256-1.56.069-.78.069-1.56-.122-.78-.122-1.56.673-.78.673-1.562c0-.78-.05-.78-.05-1.559 0-.78.37-.78.37-1.562 0-.78-.234-.78-.234-1.56 0-.781-.274-.781-.274-1.56 0-.781.401-.781.401-1.562s-.61-.781-.61-1.561c0-.78.275-.78.275-1.561 0-.781-.077-.781-.077-1.562 0-.78-.277-.78-.277-1.561 0-.78.153-.78.153-1.56s-.295-.78-.295-1.56.995-.78.995-1.56c0-.779-.504-.779-.504-1.558 0-.782.137-.782.137-1.563 0-.78-.397-.78-.397-1.56s.31-.78.31-1.561c0-.781-.217-.781-.217-1.562s.41-.781.41-1.562-.047-.781-.047-1.561c0-.782-.502-.782-.502-1.563 0-.781.74-.781.74-1.562 0-.782-.356-.782-.356-1.564 0-.78.24-.78.24-1.56 0-.782-.231-.782-.231-1.564 0-.78-.356-.78-.356-1.563 0-.78.663-.78.663-1.563 0-.783.027-.783.027-1.566s-.659-.814-.412-1.557c.519.012 1.016-.272 1.531-.256.519.014 1.039-.041 1.554-.023.518.02 1.024.359 1.54.38.517.023 1.05-.276 1.566-.251.517.026 1.013.438 1.528.467.518.029 1.062-.366 1.577-.334.518.033 1.01.453 1.526.491.518.036 1.05-.128 1.566-.087.518.04 1.03.152 1.544.196.518.044.99.579 1.504.625.518.047 1.037.038 1.55.089.517.05 1.035.047 1.55.102.515.054 1.066-.213 1.578-.154.516.058 1.046-.012 1.558.048.516.063.993.427 1.504.492.515.065 1.022.186 1.533.254.514.068 1.109-.445 1.619-.372.514.072.986.438 1.496.514.513.075.967.531 1.476.61.513.08 1.015.208 1.523.29.513.082 1.15-.6 1.659-.513.512.086.87 1.045 1.378 1.133.511.09 1.11-.321 1.616-.228.51.092 1.062-.039 1.568.056.51.098 1.032.13 1.538.23.51.1.964.47 1.466.573.51.103.892.803 1.394.91.508.108 1.114-.258 1.616-.148.507.11 1.059.018 1.56.131.507.114.957.472 1.457.588.505.118.944.506 1.444.627.506.12 1.088-.087 1.587.036.505.125 1.117-.186 1.615-.059.504.128.758 1.214 1.255 1.344.503.132 1.076-.018 1.571.115.502.136.988.313 1.484.45.502.137 1 .27 1.494.41.5.143 1.168-.31 1.66-.168.5.147.822.884 1.312 1.032.5.148 1.047.122 1.538.273.497.151 1.116-.095 1.605.058.497.157.742 1.095 1.23 1.251.496.16 1.016.222 1.502.381.496.163 1.147-.156 1.631.007.495.167.993.305 1.478.472.493.17 1.052.143 1.534.313.492.174.786.891 1.267 1.064.49.177 1.192-.234 1.671-.057.49.18.963.395 1.44.575.49.185.937.473 1.412.657.487.187.856.664 1.33.85.485.191.783.832 1.254 1.023.492.198 1.315-.446 1.81-.257.495.19 1.01.302 1.507.482.498.18.754 1.042 1.254 1.213.502.172 1.015.32 1.518.482.506.163 1.083.097 1.589.25.509.154.9.714 1.41.857.51.145 1.029.283 1.54.418.513.135 1.008.366 1.521.491.515.126 1.114-.076 1.63.04.517.117 1.016.337 1.535.443.519.108 1.04.227 1.56.324.522.097 1.038.256 1.56.342.523.088 1.152-.5 1.675-.421.525.078 1.036.213 1.56.282.526.07 1.006.492 1.532.55.528.06 1.099-.345 1.626-.295.528.05 1.03.345 1.558.384.528.04 1.028.547 1.557.576.528.03 1.082-.394 1.61-.374.53.02 1.048.507 1.579.516.53.01 1.066.038 1.596.038.525 0 1.054-.212 1.579-.222.525-.009 1.036-.501 1.56-.52.526-.02 1.061.236 1.586.207.524-.03 1.085.433 1.609.395.523-.04 1.002-.664 1.526-.713.523-.048 1.094.356 1.616.297.523-.058 1.026-.31 1.547-.377.521-.067 1.094.186 1.613.108.518-.077.954-.713 1.473-.8.518-.086 1.06-.039 1.577-.136.516-.095.98-.46 1.494-.566.514-.105.997-.334 1.511-.448.512-.116 1.058-.07 1.568-.194.51-.125 1.051-.128 1.56-.262.507-.133 1.034-.202 1.54-.345.504-.143 1.1.007 1.603-.145.503-.153.801-.96 1.301-1.121.5-.161 1.17.19 1.667.02.498-.17.746-1.037 1.24-1.217.493-.18 1.089-.07 1.58-.259.488-.189 1.209.198 1.697 0 .486-.196.895-.597 1.38-.803.677-.29.615-.436 1.291-.725.678-.29.752-.12 1.43-.408.68-.29.697-.245 1.377-.535.679-.29.415-.91 1.094-1.2.68-.29.621-.426 1.3-.715.681-.29.924.28 1.604-.01.682-.29 1.078.008 1.325-.69.266-.762-.641-.614-.958-1.358-.318-.744-.418-.701-.735-1.446-.319-.745.106-.925-.211-1.67-.318-.745-.634-.61-.951-1.355-.32-.746-.038-.851-.18-1.649-.156-.892-.003-1.233-.74-1.57" fill="#DAE0EC"/></g></svg>