<svg width="340" height="340" xmlns="http://www.w3.org/2000/svg" xmlns:xlink="http://www.w3.org/1999/xlink"><defs><path id="a" d="M0 0h300.007v300H0z"/></defs><g fill="none" fill-rule="evenodd"><g transform="translate(20 20)"><mask id="b" fill="#fff"><use xlink:href="#a"/></mask><path d="M285.874.924c-.923 0-.923.118-1.846.118s-.923-.738-1.846-.738-.923.149-1.846.149-.923.331-1.846.331-.923-.096-1.845-.096c-.924 0-.924.239-1.847.239-.923 0-.923.204-1.846.204s-.923-1.054-1.847-1.054c-.923 0-.923 1.062-1.846 1.062-.924 0-.924-.042-1.847-.042-.924 0-.924-.48-1.848-.48-.923 0-.923-.52-1.847-.52-.925 0-.925 1.077-1.848 1.077-.925 0-.925-.105-1.849-.105-.924 0-.924-.608-1.849-.608-.923 0-.923-.38-1.848-.38-.923 0-.923.99-1.847.99-.924 0-.924-.458-1.848-.458-.923 0-.923.219-1.846.219-.924 0-.924-.091-1.847-.091-.924 0-.924-.468-1.847-.468-.923 0-.923.13-1.847.13-.923 0-.923-.263-1.846-.263s-.923.657-1.847.657c-.923 0-.923.263-1.846.263-.924 0-.924-.96-1.847-.96-.923 0-.923.65-1.847.65-.924 0-.924.423-1.847.423-.924 0-.924-.56-1.848-.56s-.924-.17-1.848-.17-.924.516-1.848.516-.924-.92-1.849-.92c-.924 0-.924.656-1.849.656-.923 0-.923-.18-1.848-.18-.924 0-.924-.322-1.847-.322-.924 0-.924.843-1.848.843s-.924-.35-1.847-.35c-.924 0-.924-.629-1.847-.629-.924 0-.924.103-1.848.103-.923 0-.923 1.05-1.847 1.05-.923 0-.923-.597-1.847-.597-.924 0-.924-.036-1.847-.036-.924 0-.924.144-1.848.144s-.924-.495-1.847-.495c-.925 0-.925.222-1.849.222-.924 0-.924.536-1.848.536-.925 0-.925-.858-1.849-.858-.925 0-.925 1.1-1.849 1.1-.924 0-.924-.728-1.849-.728-.923 0-.923.271-1.847.271-.924 0-.924.177-1.848.177s-.924-.911-1.848-.911c-.923 0-.923.666-1.847.666-.924 0-.924-.662-1.848-.662s-.924.542-1.847.542c-.924 0-.924.455-1.848.455s-.924.07-1.849.07c-.924 0-.924-.675-1.848-.675-.925 0-.925.565-1.85.565-.924 0-.924.266-1.849.266-.923 0-.923-1.216-1.848-1.216-.924 0-.924.038-1.848.038s-.924 1.115-1.848 1.115-.924-.912-1.848-.912S166.709 0 165.785 0s-.924.79-1.848.79-.924-.092-1.848-.092-.924-.156-1.849-.156c-.925 0-.925.424-1.849.424-.925 0-.925.304-1.85.304-.924 0-.924-.75-1.848-.75s-.924-.051-1.848-.051-.924-.16-1.848-.16-.924.794-1.849.794c-.924 0-.924-.577-1.848-.577-.925 0-.925-.213-1.849-.213-.925 0-.925.408-1.849.408-.925 0-.925.072-1.849.072-.924 0-.924-.625-1.849-.625-.924 0-.924.997-1.848.997-.925 0-.925-.782-1.849-.782-.923 0-.923.34-1.845.34-.923 0-.923-.62-1.845-.62-.923 0-.923.243-1.846.243-.922 0-.922-.045-1.845-.045-.923 0-.923.819-1.846.819s-.923-.869-1.846-.869c-.924 0-.924.726-1.847.726-.924 0-.924-.677-1.849-.677-.924 0-.924.382-1.849.382-.924 0-.924.065-1.849.065-.924 0-.924-.413-1.848-.413s-.924.431-1.848.431c-.923 0-.923.324-1.847.324-.923 0-.923-1.05-1.846-1.05-.924 0-.924.455-1.847.455-.923 0-.923.322-1.847.322-.924 0-.924.147-1.848.147s-.924-.506-1.849-.506c-.925 0-.925.259-1.85.259s-.925.277-1.85.277c-.924 0-.924-.378-1.848-.378S96.488.1 95.564.1s-.924.875-1.848.875-.924.24-1.847.24c-.925 0-.925-.103-1.849-.103-.925 0-.925-.5-1.85-.5s-.925-.148-1.851-.148c-.924 0-.924.274-1.849.274-.924 0-.924.343-1.848.343-.925 0-.925-.347-1.849-.347-.924 0-.924.498-1.849.498-.925 0-.925-.071-1.851-.071-.925 0-.925-.762-1.85-.762s-.925-.387-1.849-.387c-.925 0-.925.775-1.85.775-.924 0-.924.485-1.849.485-.926 0-.926-1.16-1.852-1.16-.925 0-.925.474-1.85.474s-.925-.112-1.849-.112c-.925 0-.925-.344-1.851-.344-.925 0-.925-.1-1.851-.1-.925 0-.925.574-1.85.574s-.925.072-1.85.072c-.926 0-.926.384-1.851.384-.926 0-.926.196-1.851.196-.925 0-.925-.726-1.851-.726-.925 0-.925.113-1.851.113-.925 0-.925.228-1.85.228s-.925.188-1.85.188c-.924 0-.924-.504-1.848-.504-.925 0-.925.374-1.85.374s-.925-.346-1.851-.346c-.925 0-.925-.476-1.849-.476-.927 0-.927-.073-1.852-.073-.926 0-.926.567-1.851.567-.926 0-.926-.41-1.852-.41s-.926.334-1.852.334c-.925 0-.925-.208-1.852-.208-.926 0-.926-.301-1.853-.301-.926 0-.926.877-1.853.877-.925 0-.925-.182-1.85-.182-.927 0-.927-.631-1.853-.631-.927 0-.927-.01-1.853-.01-.927 0-.927.35-1.854.35-.928 0-.928.792-1.857.792-.928 0-.928-.069-1.856-.069-.653 0-1.245-.115-1.872-.026-.643.093-1.204.28-1.815.46-.621.181-1.298.103-1.878.369-.587.267-.923.904-1.462 1.25-.541.35-1.384.25-1.868.668-.486.421-.969.87-1.39 1.356-.42.484-.904.955-1.253 1.495-.346.538.044 1.457-.224 2.044-.266.58-.421 1.118-.603 1.74-.18.61-.679 1.098-.77 1.742-.089.627-.482 1.238-.482 1.889 0 .922.759.922.759 1.846 0 .923-.669.923-.669 1.845 0 .923-.418.923-.418 1.846s-.158.923-.158 1.846.814.923.814 1.846.231.923.231 1.846c0 .924.13.924.13 1.847 0 .924-1.162.924-1.162 1.846 0 .924.816.924.816 1.846 0 .925.089.925.089 1.848 0 .924-.717.924-.717 1.848 0 .922.513.922.513 1.846 0 .925-.442.925-.442 1.85 0 .923-.187.923-.187 1.848 0 .923.542.923.542 1.849 0 .924.013.924.013 1.848s.327.924.327 1.848c0 .922-.948.922-.948 1.846 0 .923.557.923.557 1.847 0 .925.325.925.325 1.847 0 .923-.771.923-.771 1.846 0 .925.939.925.939 1.848 0 .922-1.098.922-1.098 1.846 0 .922 1.148.922 1.148 1.846s-.294.924-.294 1.848c0 .922-.039.922-.039 1.847 0 .922.308.922.308 1.846 0 .923-.981.923-.981 1.848 0 .922.521.922.521 1.847 0 .922-.417.922-.417 1.847 0 .925.215.925.215 1.849 0 .924.446.924.446 1.849 0 .923-.642.923-.642 1.849 0 .924-.144.924-.144 1.848 0 .923.936.923.936 1.846 0 .925-.194.925-.194 1.849 0 .924.343.924.343 1.847 0 .925-.928.925-.928 1.847 0 .924.549.924.549 1.847 0 .924-.555.924-.555 1.847 0 .924.948.924.948 1.847 0 .924-.293.924-.293 1.847 0 .925-.737.925-.737 1.849 0 .924.609.924.609 1.847 0 .924.459.924.459 1.848s-.119.924-.119 1.85c0 .924-.004.924-.004 1.847 0 .925-.92.925-.92 1.85 0 .924.323.924.323 1.849 0 .922.315.922.315 1.846 0 .925-.831.925-.831 1.849 0 .924.054.924.054 1.847 0 .924.093.924.093 1.848 0 .923.341.923.341 1.847 0 .924-.389.924-.389 1.849 0 .922.211.922.211 1.846 0 .925.32.925.32 1.85 0 .924.117.924.117 1.847 0 .925-.759.925-.759 1.85 0 .924.252.924.252 1.85 0 .924.718.924.718 1.847 0 .925-.742.925-.742 1.849 0 .923.269.923.269 1.847 0 .924-.313.924-.313 1.849 0 .923-.161.923-.161 1.847 0 .925.068.925.068 1.849 0 .923.272.923.272 1.847 0 .925-.025.925-.025 1.85 0 .924-.058.924-.058 1.849 0 .924.467.924.467 1.85 0 .924-.402.924-.402 1.847 0 .925-.144.925-.144 1.849 0 .924.241.924.241 1.847 0 .925.166.925.166 1.85 0 .923.603.923.603 1.847 0 .924-.004.924-.004 1.85 0 .924-1.133.924-1.133 1.85 0 .924.064.924.064 1.847 0 .925 1.093.925 1.093 1.85 0 .924-.505.924-.505 1.847 0 .925-.444.925-.444 1.85 0 .923.475.923.475 1.846 0 .922-.214.922-.214 1.844 0 .923.113.923.113 1.846s-.183.923-.183 1.845c0 .923-.067.923-.067 1.846 0 .922.799.922.799 1.845 0 .924-.526.924-.526 1.847 0 .925.155.925.155 1.85 0 .923.223.923.223 1.849 0 .924-.952.924-.952 1.85 0 .924.642.924.642 1.847 0 .924-.405.924-.405 1.847 0 .923.112.923.112 1.847 0 .924.267.924.267 1.847 0 .924.094.924.094 1.847 0 .923.396.923.396 1.846 0 .925-1.169.925-1.169 1.85 0 .923 1.103.923 1.103 1.847 0 .925-.561.925-.561 1.851 0 .925.033.925.033 1.85 0 .923-.507.923-.507 1.847 0 .924.931.924.931 1.849 0 .923-.937.923-.937 1.846 0 .925 1.018.925 1.018 1.85 0 .924.127.924.127 1.849 0 .923-.917.923-.917 1.848 0 .927-.19.927-.19 1.852 0 .924-.031.924-.031 1.849 0 .924 1.009.924 1.009 1.847 0 .925-.887.925-.887 1.85 0 .924.373.924.373 1.849 0 .925.627.925.627 1.85s-.723.925-.723 1.85.711.925.711 1.85c0 .924-.165.924-.165 1.85 0 .924-.62.924-.62 1.849 0 .925.805.925.805 1.851 0 .925-.373.925-.373 1.85 0 .924-.547.924-.547 1.85 0 .925.813.925.813 1.85s-.177.925-.177 1.852c0 .924-.724.924-.724 1.85 0 .925.282.925.282 1.85s.333.925.333 1.851c0 .925-.173.925-.173 1.85s.539.925.539 1.851c0 .927-.264.927-.264 1.851 0 .927-.933.927-.933 1.85 0 .925.613.925.613 1.85s.376.925.376 1.85c0 .923-.947.923-.947 1.847 0 .927.876.927.876 1.853 0 .925-.605.925-.605 1.849 0 .925.353.925.353 1.851 0 .927.383.927.383 1.851 0 .927-.969.927-.969 1.853 0 .925.014.925.014 1.851 0 .925.585.925.585 1.853 0 .925.383.925.383 1.853 0 .925-.182.925-.182 1.851 0 .926-.007.926-.007 1.852 0 .927-.565.927-.565 1.853 0 .926.022.926.022 1.853 0 .928.853.928.853 1.853 0 .928-.492.928-.492 1.857 0 .928.092.928.092 1.857 0 .652.357 1.224.447 1.852.092.642-.168 1.315.011 1.927.182.62-.15 1.464.115 2.044.268.587 1.282.786 1.628 1.324.349.541.606 1.116 1.026 1.6.42.486.788 1.013 1.274 1.434.484.42 1.117.617 1.659.966.538.344.785 1.262 1.372 1.53.58.267 1.532-.475 2.153-.292.61.178 1.092.745 1.735.837.628.089 1.25-.272 1.902-.272.923 0 .923.029 1.846.029s.923.267 1.846.267.923-.135 1.845-.135c.923 0 .923-.111 1.847-.111h1.845c.924 0 .924 1.127 1.846 1.127.923 0 .923-.002 1.847-.002.923 0 .923-.062 1.846-.062.924 0 .924-1.195 1.847-1.195.923 0 .923.075 1.847.075.924 0 .924 1.154 1.847 1.154.924 0 .924-.733 1.848-.733s.924.714 1.848.714c.925 0 .925.035 1.849.035.924 0 .924-.719 1.848-.719s.924.094 1.848.094.924.418 1.848.418.924.201 1.847.201c.924 0 .924-1.233 1.847-1.233.923 0 .923.69 1.847.69.924 0 .924.243 1.847.243.923 0 .923-.568 1.846-.568s.923.137 1.847.137c.923 0 .923-.305 1.846-.305.924 0 .924.137 1.847.137.924 0 .924.394 1.847.394.923 0 .923.059 1.847.059.923 0 .923-.647 1.847-.647.924 0 .924.331 1.847.331.924 0 .924-.094 1.849-.094.923 0 .923-.102 1.848-.102.924 0 .924.787 1.848.787.925 0 .925.146 1.849.146.924 0 .924-.392 1.849-.392.923 0 .923-.036 1.847-.036.924 0 .924-.194 1.848-.194.923 0 .923-.447 1.847-.447.924 0 .924.57 1.847.57.924 0 .924.083 1.847.083.924 0 .924-.572 1.848-.572.923 0 .923-.223 1.847-.223.923 0 .923.594 1.847.594.924 0 .924.26 1.848.26.923 0 .923.178 1.847.178.924 0 .924-.744 1.848-.744.925 0 .925.142 1.849.142.925 0 .925.32 1.849.32.924 0 .924-.27 1.849-.27.924 0 .924.515 1.848.515s.924-.259 1.848-.259.924-.042 1.848-.042c.923 0 .923.131 1.847.131.924 0 .924-.1 1.848-.1.923 0 .923-.084 1.847-.084.924 0 .924-.659 1.848-.659s.924.34 1.848.34.924.075 1.848.075c.925 0 .925.63 1.849.63.925 0 .925-.815 1.849-.815.925 0 .925.49 1.849.49.924 0 .924-.693 1.849-.693.923 0 .923.986 1.848.986.924 0 .924-.853 1.847-.853.925 0 .925.788 1.849.788.923 0 .923-.036 1.847-.036.925 0 .925.05 1.848.05.925 0 .925-.17 1.849-.17.924 0 .924-.363 1.849-.363.924 0 .924.541 1.849.541.925 0 .925-.46 1.849-.46.924 0 .924-.4 1.848-.4.925 0 .925.793 1.849.793.924 0 .924-.448 1.848-.448s.924.26 1.848.26.924.449 1.849.449c.924 0 .924-.434 1.849-.434.924 0 .924-.096 1.849-.096.925 0 .925-.551 1.849-.551.924 0 .924.03 1.849.03.924 0 .924.191 1.848.191s.924-.19 1.848-.19c.923 0 .923.125 1.846.125s.923.757 1.845.757c.923 0 .923-.286 1.845-.286.923 0 .923-.065 1.846-.065s.923-.118 1.845-.118c.924 0 .924.231 1.847.231.923 0 .923-.471 1.847-.471.924 0 .924-.065 1.848-.065.925 0 .925.978 1.849.978.925 0 .925-.903 1.85-.903.924 0 .924.432 1.848.432s.924-.01 1.847-.01c.924 0 .924.2 1.848.2.923 0 .923-.497 1.846-.497s.923-.01 1.846-.01c.924 0 .924-.209 1.848-.209s.924.32 1.848.32.924-.493 1.848-.493c.926 0 .926.68 1.851.68.925 0 .925.248 1.849.248.924 0 .924-.895 1.849-.895.924 0 .924.214 1.847.214.924 0 .924.142 1.848.142s.924.404 1.848.404.924.24 1.849.24c.925 0 .925.202 1.85.202s.925-1.063 1.85-1.063.925-.024 1.85-.024c.923 0 .923.826 1.848.826.924 0 .924-.844 1.848-.844.925 0 .925.998 1.85.998s.925-.029 1.851-.029c.924 0 .924-.16 1.85-.16.924 0 .924-.64 1.849-.64.925 0 .925-.143 1.849-.143.925 0 .925.28 1.85.28.926 0 .926.154 1.851.154.925 0 .925.065 1.85.065s.925.188 1.85.188.925-.498 1.85-.498c.926 0 .926-.199 1.851-.199.925 0 .925.276 1.851.276.925 0 .925-.2 1.85-.2s.925-.212 1.851-.212c.926 0 .926.173 1.85.173.926 0 .926-.132 1.852-.132.925 0 .925.874 1.85.874.926 0 .926.103 1.851.103.925 0 .925-.059 1.85-.059.924 0 .924-.804 1.848-.804.925 0 .925-.096 1.849-.096.926 0 .926-.031 1.852-.031.924 0 .924 1.135 1.849 1.135.926 0 .926-.094 1.852-.094.925 0 .925-.486 1.85-.486.927 0 .927-.362 1.853-.362.926 0 .926-.06 1.851-.06.926 0 .926.726 1.852.726.927 0 .927-.702 1.853-.702.927 0 .927.814 1.853.814.926 0 .926-1.03 1.851-1.03.926 0 .926 1.163 1.853 1.163.926 0 .926-.103 1.853-.103.927 0 .927-1.01 1.854-1.01.928 0 .928.733 1.856.733.929 0 .929-.74 1.857-.74.652 0 1.28.447 1.908.358.642-.092 1.185-.476 1.795-.654.621-.183 1.093-.572 1.673-.837.587-.269 1.141-.449 1.679-.795.541-.349 1.599-.012 2.084-.431.486-.421.998-.913 1.419-1.397.42-.487.939-.995 1.287-1.536.347-.54.259-1.377.527-1.963.266-.58.509-1.193.691-1.815.179-.61.432-1.238.523-1.882.09-.627-.654-1.3-.654-1.953 0-.923.58-.923.58-1.846s.312-.923.312-1.846.252-.923.252-1.846-.758-.923-.758-1.846.537-.923.537-1.846.214-.923.214-1.846-.127-.923-.127-1.846-.674-.923-.674-1.846.657-.923.657-1.847c0-.923-.813-.923-.813-1.848 0-.923-.148-.923-.148-1.846 0-.924.849-.924.849-1.849 0-.923-.47-.923-.47-1.848 0-.923-.083-.923-.083-1.847 0-.925.058-.925.058-1.85 0-.923-.363-.923-.363-1.849 0-.921.706-.921.706-1.845 0-.924-.709-.924-.709-1.849 0-.924.144-.924.144-1.846 0-.923.326-.923.326-1.847 0-.923.252-.923.252-1.847 0-.924-.203-.924-.203-1.848 0-.922-.147-.922-.147-1.845 0-.923-.032-.923-.032-1.846 0-.924.501-.924.501-1.847 0-.923-.197-.923-.197-1.846 0-.925.299-.925.299-1.849 0-.922-.694-.922-.694-1.846 0-.923.192-.923.192-1.847 0-.925.726-.925.726-1.849 0-.923-.024-.923-.024-1.849 0-.923-1.023-.923-1.023-1.847 0-.925.86-.925.86-1.85 0-.923-.177-.923-.177-1.847 0-.924-.256-.924-.256-1.849 0-.923.634-.923.634-1.847 0-.924-1.074-.924-1.074-1.846 0-.924.18-.924.18-1.849 0-.923.296-.923.296-1.846 0-.924-.287-.924-.287-1.847 0-.923.767-.923.767-1.847 0-.925-1.043-.925-1.043-1.849 0-.923-.047-.923-.047-1.846 0-.924.129-.924.129-1.849 0-.923.707-.923.707-1.847 0-.925-.442-.925-.442-1.849 0-.924.651-.924.651-1.85 0-.924-.874-.924-.874-1.849 0-.922.288-.922.288-1.847 0-.924-.182-.924-.182-1.849 0-.923.458-.923.458-1.847 0-.924-.491-.924-.491-1.847 0-.924-.265-.924-.265-1.849 0-.924.59-.924.59-1.848 0-.923-.253-.923-.253-1.846 0-.924.04-.924.04-1.849 0-.924.264-.924.264-1.847 0-.924-.365-.924-.365-1.85 0-.924.627-.924.627-1.849 0-.925-.56-.925-.56-1.849 0-.923.693-.923.693-1.847 0-.925-.169-.925-.169-1.85 0-.922-.172-.922-.172-1.846s-.614-.924-.614-1.849c0-.923.089-.923.089-1.847 0-.924.444-.924.444-1.849 0-.923-.466-.923-.466-1.849 0-.924.915-.924.915-1.849 0-.923-1.107-.923-1.107-1.849 0-.924.462-.924.462-1.849 0-.924.445-.924.445-1.847 0-.924.159-.924.159-1.85 0-.924-.024-.924-.024-1.848 0-.923-.579-.923-.579-1.847 0-.924.296-.924.296-1.849 0-.924-.414-.924-.414-1.85 0-.924.814-.924.814-1.847 0-.925-.917-.925-.917-1.85 0-.924.556-.924.556-1.849 0-.923-.332-.923-.332-1.848 0-.924.011-.924.011-1.85 0-.922.353-.922.353-1.844 0-.923-.318-.923-.318-1.846s-.031-.923-.031-1.845c0-.923.396-.923.396-1.846 0-.922.083-.922.083-1.845 0-.922-.007-.922-.007-1.846s.207-.924.207-1.848c0-.922-.143-.922-.143-1.848 0-.925.118-.925.118-1.849 0-.925-1.132-.925-1.132-1.85 0-.922.798-.922.798-1.847 0-.924-.418-.924-.418-1.847 0-.925-.13-.925-.13-1.848 0-.922.282-.922.282-1.846s-.143-.924-.143-1.848c0-.922.373-.922.373-1.847 0-.922.168-.922.168-1.846 0-.926-.548-.926-.548-1.85 0-.925.254-.925.254-1.85l-.002-1.85c0-.923-.048-.923-.048-1.849 0-.922-.309-.922-.309-1.847 0-.924.611-.924.611-1.847 0-.925-.532-.925-.532-1.849 0-.924.695-.924.695-1.847 0-.927.108-.927.108-1.852 0-.924-.73-.924-.73-1.85 0-.923.409-.923.409-1.848s.151-.925.151-1.85c0-.924-.814-.924-.814-1.847 0-.925.448-.925.448-1.85s.138-.925.138-1.852c0-.923-.714-.923-.714-1.848s.292-.925.292-1.85.352-.925.352-1.849c0-.925-.049-.925-.049-1.85 0-.927.136-.927.136-1.853 0-.923.045-.923.045-1.848s.17-.925.17-1.85-.097-.925-.097-1.85c0-.926-.793-.926-.793-1.852 0-.925.741-.925.741-1.85s-.66-.925-.66-1.85.706-.925.706-1.852c0-.925.337-.925.337-1.85s-.454-.925-.454-1.852c0-.924-.661-.924-.661-1.85 0-.925.126-.925.126-1.85s.356-.925.356-1.85c0-.923-.51-.923-.51-1.847 0-.925.899-.925.899-1.85 0-.926-.604-.926-.604-1.851 0-.925-.37-.925-.37-1.85 0-.927.129-.927.129-1.853 0-.924.535-.924.535-1.85 0-.925.585-.925.585-1.852 0-.926-.15-.926-.15-1.85 0-.927.064-.927.064-1.854s.027-.927.027-1.852c0-.927-1.065-.927-1.065-1.854 0-.925.092-.925.092-1.85 0-.926-.042-.926-.042-1.854 0-.925.17-.925.17-1.852s-.194-.927-.194-1.854c0-.928.945-.928.945-1.855 0-.93-.205-.93-.205-1.858 0-.652.051-1.347-.038-1.974-.092-.643-.121-1.359-.3-1.969-.182-.62-.83-1.108-1.095-1.688-.269-.588-.995-.894-1.341-1.43-.348-.542-.364-1.298-.785-1.782-.421-.486-.941-.867-1.426-1.288-.485-.42-1.26-.38-1.801-.728-.538-.346-.784-1.15-1.371-1.418-.58-.266-1.317-.032-1.939-.212-.61-.18-1.117-.68-1.76-.77-.628-.09-1.315-.37-1.967-.37-.131.057.06.423.06.423m0 10.966c.539 0 1.313.22 1.667.572.354.354-.046 1.13-.046 1.668 0 .922.148.922.148 1.846 0 .923.332.923.332 1.845 0 .923-.097.923-.097 1.846s.238.923.238 1.846.205.923.205 1.846-1.053.923-1.053 1.846c0 .924 1.061.924 1.061 1.847 0 .924-.041.924-.041 1.846 0 .924-.481.924-.481 1.846 0 .925-.52.925-.52 1.848 0 .924 1.077.924 1.077 1.848 0 .922-.105.922-.105 1.846 0 .925-.608.925-.608 1.85 0 .923-.38.923-.38 1.848 0 .923.989.923.989 1.849 0 .924-.457.924-.457 1.848s.219.924.219 1.848c0 .922-.09.922-.09 1.846 0 .923-.469.923-.469 1.847 0 .925.129.925.129 1.847 0 .923-.262.923-.262 1.846 0 .925.658.925.658 1.848 0 .922.262.922.262 1.846 0 .922-.959.922-.959 1.846s.649.924.649 1.848c0 .922.424.922.424 1.847 0 .922-.56.922-.56 1.846 0 .923-.172.923-.172 1.848 0 .922.518.922.518 1.847 0 .922-.92.922-.92 1.847 0 .925.656.925.656 1.849 0 .924-.181.924-.181 1.849 0 .923-.322.923-.322 1.849 0 .924.844.924.844 1.848 0 .923-.352.923-.352 1.846 0 .925-.628.925-.628 1.849 0 .924.103.924.103 1.847 0 .925 1.05.925 1.05 1.847 0 .924-.598.924-.598 1.847 0 .924-.034.924-.034 1.847 0 .924.143.924.143 1.847 0 .924-.496.924-.496 1.847 0 .925.223.925.223 1.849 0 .924.536.924.536 1.847 0 .924-.858.924-.858 1.848s1.099.924 1.099 1.85c0 .924-.726.924-.726 1.847 0 .925.271.925.271 1.85 0 .924.177.924.177 1.849 0 .922-.912.922-.912 1.846 0 .925.668.925.668 1.849 0 .924-.664.924-.664 1.847 0 .924.543.924.543 1.848 0 .923.454.923.454 1.847 0 .924.07.924.07 1.849 0 .922-.674.922-.674 1.846 0 .925.564.925.564 1.85 0 .924.266.924.266 1.847 0 .925-1.217.925-1.217 1.85 0 .924.039.924.039 1.85 0 .924 1.115.924 1.115 1.847 0 .925-.911.925-.911 1.849 0 .923-.288.923-.288 1.847 0 .924.791.924.791 1.849 0 .923-.091.923-.091 1.847 0 .925-.158.925-.158 1.849 0 .923.425.923.425 1.847 0 .925.304.925.304 1.85 0 .924-.752.924-.752 1.849 0 .924-.05.924-.05 1.85 0 .924-.16.924-.16 1.847 0 .925.795.925.795 1.849 0 .924-.578.924-.578 1.847 0 .925-.213.925-.213 1.85 0 .923.408.923.408 1.847 0 .924.072.924.072 1.85 0 .924-.624.924-.624 1.85 0 .924.997.924.997 1.847 0 .925-.782.925-.782 1.85 0 .924.339.924.339 1.847 0 .925-.619.925-.619 1.85 0 .923.243.923.243 1.846 0 .922-.046.922-.046 1.844 0 .923.82.923.82 1.846s-.869.923-.869 1.845c0 .923.724.923.724 1.846 0 .922-.676.922-.676 1.845 0 .924.382.924.382 1.847 0 .925.065.925.065 1.85 0 .923-.413.923-.413 1.849 0 .924.431.924.431 1.85 0 .924.324.924.324 1.847 0 .924-1.049.924-1.049 1.847 0 .923.454.923.454 1.847 0 .924.321.924.321 1.847 0 .924.148.924.148 1.847 0 .923-.506.923-.506 1.846 0 .925.259.925.259 1.85 0 .923.278.923.278 1.847 0 .925-.379.925-.379 1.851 0 .925-.515.925-.515 1.85 0 .923.874.923.874 1.847 0 .924.241.924.241 1.849 0 .923-.101.923-.101 1.846 0 .925-.501.925-.501 1.85 0 .924-.15.924-.15 1.849 0 .923.275.923.275 1.848 0 .927.343.927.343 1.852 0 .924-.348.924-.348 1.849 0 .924.499.924.499 1.847 0 .925-.071.925-.071 1.85 0 .924-.761.924-.761 1.849 0 .925-.387.925-.387 1.85s.774.925.774 1.85.484.925.484 1.85c0 .924-1.158.924-1.158 1.85 0 .924.473.924.473 1.849 0 .925-.112.925-.112 1.851 0 .925-.344.925-.344 1.85 0 .924-.1.924-.1 1.85 0 .925.573.925.573 1.85s.073.925.073 1.852c0 .924.384.924.384 1.85 0 .925.197.925.197 1.85s-.726.925-.726 1.851c0 .925.112.925.112 1.85s.229.925.229 1.851c0 .927.187.927.187 1.851 0 .927-.504.927-.504 1.85 0 .925.374.925.374 1.85s-.345.925-.345 1.85c0 .923-.478.923-.478 1.847 0 .927-.072.927-.072 1.853 0 .925.566.925.566 1.849 0 .925-.408.925-.408 1.851 0 .927.333.927.333 1.851 0 .927-.207.927-.207 1.853 0 .925-.302.925-.302 1.851 0 .925.877.925.877 1.853 0 .925-.182.925-.182 1.853 0 .925-.631.925-.631 1.851 0 .926-.011.926-.011 1.852 0 .927.352.927.352 1.853 0 .926.792.926.792 1.853 0 .928-.07.928-.07 1.853 0 .928-.157.928-.157 1.857 0 .928.064.928.064 1.857 0 .538-.56 1.099-.914 1.452s-.913 1-1.452 1c-.923 0-.923-.588-1.846-.588s-.923-.025-1.846-.025-.923-.106-1.846-.106-.923.786-1.846.786-.923.043-1.845.043c-.924 0-.924-.385-1.847-.385-.923 0-.923-.347-1.846-.347s-.923.757-1.847.757c-.923 0-.923-.668-1.846-.668-.924 0-.924-.418-1.847-.418-.924 0-.924-.157-1.848-.157-.923 0-.923.813-1.847.813-.925 0-.925.231-1.848.231-.925 0-.925.13-1.849.13-.924 0-.924-1.161-1.849-1.161-.923 0-.923.816-1.848.816-.923 0-.923.089-1.847.089-.924 0-.924-.719-1.848-.719-.923 0-.923.514-1.846.514-.924 0-.924-.442-1.847-.442-.924 0-.924-.187-1.847-.187-.923 0-.923.541-1.847.541-.923 0-.923.014-1.846.014s-.923.327-1.847.327c-.923 0-.923-.947-1.846-.947-.924 0-.924.556-1.847.556-.923 0-.923.325-1.847.325-.924 0-.924-.77-1.847-.77-.924 0-.924.938-1.848.938s-.924-1.097-1.848-1.097-.924 1.147-1.848 1.147-.924-.295-1.849-.295c-.924 0-.924-.037-1.849-.037-.923 0-.923.308-1.848.308-.924 0-.924-.981-1.847-.981-.924 0-.924.52-1.848.52s-.924-.416-1.847-.416c-.924 0-.924.216-1.847.216-.924 0-.924.445-1.848.445-.923 0-.923-.644-1.847-.644-.923 0-.923-.142-1.847-.142-.924 0-.924.935-1.847.935-.924 0-.924-.193-1.848-.193s-.924.342-1.847.342c-.925 0-.925-.928-1.849-.928-.924 0-.924.548-1.848.548-.925 0-.925-.553-1.849-.553-.925 0-.925.947-1.849.947-.924 0-.924-.293-1.849-.293-.923 0-.923-.738-1.847-.738-.924 0-.924.611-1.848.611s-.924.46-1.848.46c-.923 0-.923-.12-1.847-.12-.924 0-.924-.006-1.848-.006s-.924-.918-1.847-.918c-.924 0-.924.322-1.848.322s-.924.315-1.849.315c-.924 0-.924-.83-1.848-.83-.925 0-.925.053-1.85.053-.924 0-.924.094-1.849.094-.923 0-.923.34-1.848.34-.924 0-.924-.389-1.848-.389s-.924.212-1.848.212-.924.318-1.848.318-.924.118-1.848.118-.924-.76-1.848-.76-.924.252-1.848.252-.924.719-1.849.719c-.925 0-.925-.741-1.849-.741-.925 0-.925.27-1.85.27-.924 0-.924-.315-1.848-.315s-.924-.16-1.848-.16-.924.067-1.848.067-.924.273-1.849.273c-.924 0-.924-.026-1.848-.026-.925 0-.925-.058-1.849-.058-.925 0-.925.467-1.849.467-.925 0-.925-.402-1.849-.402-.924 0-.924-.144-1.849-.144-.924 0-.924.242-1.848.242-.925 0-.925.166-1.849.166-.923 0-.923.601-1.845.601-.923 0-.923-.002-1.845-.002-.923 0-.923-1.133-1.846-1.133-.922 0-.922.063-1.845.063-.923 0-.923 1.094-1.846 1.094s-.923-.505-1.846-.505c-.924 0-.924-.444-1.847-.444-.924 0-.924.474-1.849.474-.924 0-.924-.213-1.849-.213-.924 0-.924.113-1.849.113-.924 0-.924-.183-1.848-.183s-.924-.067-1.848-.067c-.923 0-.923.8-1.847.8-.923 0-.923-.528-1.846-.528-.924 0-.924.154-1.847.154-.923 0-.923.224-1.847.224-.924 0-.924-.952-1.848-.952s-.924.642-1.849.642c-.925 0-.925-.405-1.85-.405s-.925.113-1.85.113c-.924 0-.924.267-1.848.267s-.924.094-1.848.094-.924.396-1.848.396-.924-1.17-1.847-1.17c-.925 0-.925 1.103-1.849 1.103-.925 0-.925-.562-1.85-.562s-.925.036-1.851.036c-.924 0-.924-.508-1.849-.508-.924 0-.924.93-1.848.93-.925 0-.925-.937-1.849-.937-.924 0-.924 1.018-1.849 1.018-.925 0-.925.127-1.851.127-.925 0-.925-.916-1.85-.916s-.925-.19-1.849-.19c-.925 0-.925-.031-1.85-.031-.924 0-.924 1.009-1.849 1.009-.926 0-.926-.887-1.852-.887-.925 0-.925.373-1.85.373s-.925.627-1.849.627c-.925 0-.925-.725-1.851-.725-.925 0-.925.713-1.851.713-.925 0-.925-.166-1.85-.166s-.925-.62-1.85-.62c-.926 0-.926.805-1.851.805-.926 0-.926-.372-1.851-.372-.925 0-.925-.548-1.851-.548-.925 0-.925.813-1.851.813-.925 0-.925-.176-1.85-.176s-.925-.724-1.85-.724c-.924 0-.924.281-1.848.281-.925 0-.925.334-1.85.334s-.925-.175-1.851-.175c-.925 0-.925.54-1.849.54-.927 0-.927-.264-1.852-.264-.926 0-.926-.933-1.851-.933-.926 0-.926.613-1.852.613s-.926.376-1.852.376c-.925 0-.925-.947-1.852-.947-.926 0-.926.877-1.853.877-.926 0-.926-.605-1.853-.605-.925 0-.925.353-1.85.353-.927 0-.927.382-1.853.382-.927 0-.927-.969-1.853-.969-.927 0-.927.014-1.854.014-.928 0-.928.585-1.857.585-.928 0-.928.384-1.856.384-.539 0-1.216-.48-1.57-.834-.354-.353-.645-1.031-.645-1.57 0-.923.565-.923.565-1.846s-.022-.923-.022-1.846-.853-.923-.853-1.846.492-.923.492-1.846-.091-.923-.091-1.846-.317-.923-.317-1.846.398-.923.398-1.846.609-.923.609-1.846-.795-.923-.795-1.847c0-.923.14-.923.14-1.848 0-.923.114-.923.114-1.846 0-.924-.224-.924-.224-1.849 0-.923.687-.923.687-1.848 0-.923-1.031-.923-1.031-1.847 0-.925.452-.925.452-1.85 0-.923-.406-.923-.406-1.849 0-.921.029-.921.029-1.845 0-.924.269-.924.269-1.849 0-.924-.136-.924-.136-1.846 0-.923-.111-.923-.111-1.847l-.001-1.847c0-.924 1.128-.924 1.128-1.848 0-.922-.002-.922-.002-1.845 0-.923-.062-.923-.062-1.846 0-.924-1.195-.924-1.195-1.847 0-.923.075-.923.075-1.846 0-.925 1.153-.925 1.153-1.849 0-.922-.732-.922-.732-1.846 0-.923.715-.923.715-1.847 0-.925.033-.925.033-1.849 0-.923-.717-.923-.717-1.849 0-.923.093-.923.093-1.847 0-.925.418-.925.418-1.85 0-.923.2-.923.2-1.847 0-.924-1.232-.924-1.232-1.849 0-.923.689-.923.689-1.847 0-.924.243-.924.243-1.846 0-.924-.568-.924-.568-1.849 0-.923.138-.923.138-1.846 0-.924-.305-.924-.305-1.847 0-.923.138-.923.138-1.847 0-.925.393-.925.393-1.849 0-.923.058-.923.058-1.846 0-.924-.646-.924-.646-1.849 0-.923.331-.923.331-1.847 0-.925-.095-.925-.095-1.849 0-.924-.102-.924-.102-1.85 0-.924.788-.924.788-1.849 0-.922.146-.922.146-1.847 0-.924-.393-.924-.393-1.849 0-.923-.036-.923-.036-1.847 0-.924-.193-.924-.193-1.847 0-.924-.447-.924-.447-1.849 0-.924.571-.924.571-1.848 0-.923.081-.923.081-1.846 0-.924-.572-.924-.572-1.849 0-.924-.222-.924-.222-1.847 0-.924.594-.924.594-1.85 0-.924.259-.924.259-1.849 0-.925.178-.925.178-1.849 0-.923-.743-.923-.743-1.847 0-.925.142-.925.142-1.85 0-.922.321-.922.321-1.846s-.271-.924-.271-1.849c0-.923.516-.923.516-1.847 0-.924-.261-.924-.261-1.849 0-.923-.042-.923-.042-1.849 0-.924.132-.924.132-1.849 0-.923-.1-.923-.1-1.849 0-.924-.083-.924-.083-1.849 0-.924-.66-.924-.66-1.847 0-.924.338-.924.338-1.85 0-.924.077-.924.077-1.848 0-.923.63-.923.63-1.847 0-.924-.814-.924-.814-1.849 0-.924.488-.924.488-1.85 0-.924-.693-.924-.693-1.847 0-.925.987-.925.987-1.85 0-.924-.852-.924-.852-1.849 0-.923.787-.923.787-1.848 0-.924-.037-.924-.037-1.85 0-.922.049-.922.049-1.844 0-.923-.168-.923-.168-1.846s-.362-.923-.362-1.845c0-.923.54-.923.54-1.846 0-.922-.46-.922-.46-1.845 0-.922-.401-.922-.401-1.846s.793-.924.793-1.848c0-.922-.448-.922-.448-1.848 0-.925.26-.925.26-1.849 0-.925.449-.925.449-1.85 0-.922-.432-.922-.432-1.847 0-.924-.099-.924-.099-1.847 0-.925-.55-.925-.55-1.848 0-.922.031-.922.031-1.846s.192-.924.192-1.848c0-.922-.191-.922-.191-1.847 0-.922.125-.922.125-1.846 0-.926.756-.926.756-1.85 0-.925-.285-.925-.285-1.85s-.064-.925-.064-1.85c0-.923-.119-.923-.119-1.849 0-.922.231-.922.231-1.847 0-.924-.472-.924-.472-1.847 0-.925-.065-.925-.065-1.849 0-.924.979-.924.979-1.847 0-.927-.904-.927-.904-1.852 0-.924.432-.924.432-1.85 0-.923-.009-.923-.009-1.848s.199-.925.199-1.85c0-.924-.496-.924-.496-1.847 0-.925-.01-.925-.01-1.85s-.209-.925-.209-1.852c0-.923.319-.923.319-1.848s-.492-.925-.492-1.85.68-.925.68-1.849c0-.925.248-.925.248-1.85 0-.927-.896-.927-.896-1.853 0-.923.216-.923.216-1.848s.141-.925.141-1.85.403-.925.403-1.85c0-.926.241-.926.241-1.852 0-.925.203-.925.203-1.85s-1.064-.925-1.064-1.85-.025-.925-.025-1.852c0-.925.826-.925.826-1.85s-.843-.925-.843-1.852c0-.924.997-.924.997-1.85 0-.925-.029-.925-.029-1.85s-.161-.925-.161-1.85c0-.923-.638-.923-.638-1.847 0-.925-.144-.925-.144-1.85 0-.926.279-.926.279-1.851 0-.925.155-.925.155-1.85 0-.927.066-.927.066-1.853 0-.924.187-.924.187-1.85 0-.925-.497-.925-.497-1.852 0-.926-.199-.926-.199-1.85 0-.927.276-.927.276-1.854s-.2-.927-.2-1.852c0-.927-.211-.927-.211-1.854 0-.925.171-.925.171-1.85 0-.926-.132-.926-.132-1.854 0-.925.874-.925.874-1.852s.104-.927.104-1.854c0-.928-.058-.928-.058-1.855 0-.93-.806-.93-.806-1.858 0-.539.283-1.409.637-1.763.353-.354 1.223-.763 1.762-.763.923 0 .923 1.135 1.846 1.135s.923-.093 1.846-.093.923-.487 1.845-.487c.923 0 .923-.362 1.847-.362.922 0 .922-.06 1.845-.06.924 0 .924.726 1.846.726.923 0 .923-.7 1.847-.7.923 0 .923.812 1.846.812.924 0 .924-1.03 1.847-1.03.923 0 .923 1.164 1.847 1.164.924 0 .924-.104 1.847-.104.924 0 .924-1.008 1.848-1.008s.924.732 1.848.732c.925 0 .925-.74 1.849-.74.924 0 .924.492 1.848.492s.924-.26 1.848-.26.924-.2 1.848-.2.924.11 1.847.11c.924 0 .924.908 1.847.908.923 0 .923.014 1.847.014.924 0 .924.11 1.847.11.923 0 .923-.482 1.846-.482s.923.013 1.847.013c.923 0 .923.114 1.846.114.924 0 .924-.792 1.847-.792.924 0 .924.58 1.847.58.923 0 .923.312 1.847.312.923 0 .923.252 1.847.252.924 0 .924-.758 1.847-.758.924 0 .924.537 1.849.537.923 0 .923.213 1.848.213.924 0 .924-.126 1.848-.126.925 0 .925-.675 1.849-.675.924 0 .924.659 1.849.659.923 0 .923-.813 1.847-.813.924 0 .924-.149 1.848-.149.923 0 .923.848 1.847.848.924 0 .924-.469 1.847-.469.924 0 .924-.083 1.847-.083.924 0 .924.057 1.848.057.923 0 .923-.362 1.847-.362.923 0 .923.706 1.847.706.924 0 .924-.71 1.848-.71.923 0 .923.145 1.847.145.924 0 .924.327 1.848.327.925 0 .925.252 1.849.252.925 0 .925-.204 1.849-.204.924 0 .924-.147 1.849-.147.924 0 .924-.032 1.848-.032s.924.501 1.848.501.924-.197 1.848-.197c.923 0 .923.299 1.847.299.924 0 .924-.694 1.848-.694.923 0 .923.191 1.847.191.924 0 .924.726 1.848.726s.924-.024 1.848-.024.924-1.023 1.848-1.023c.925 0 .925.86 1.849.86.925 0 .925-.175 1.849-.175.925 0 .925-.256 1.849-.256.924 0 .924.633 1.849.633.923 0 .923-1.075 1.848-1.075.924 0 .924.181 1.847.181.925 0 .925.296 1.849.296.923 0 .923-.287 1.847-.287.925 0 .925.766 1.848.766.925 0 .925-1.043 1.849-1.043.924 0 .924-.045 1.849-.045.924 0 .924.128 1.849.128.925 0 .925.707 1.849.707.924 0 .924-.443 1.848-.443.925 0 .925.651 1.849.651.924 0 .924-.875 1.848-.875s.924.29 1.848.29.924-.181 1.849-.181c.924 0 .924.457 1.849.457.924 0 .924-.492 1.849-.492.925 0 .925-.264 1.849-.264.924 0 .924.59 1.849.59.924 0 .924-.254 1.848-.254s.924.04 1.848.04c.923 0 .923.265 1.846.265s.923-.366 1.845-.366c.923 0 .923.628 1.845.628.923 0 .923-.56 1.846-.56s.923.693 1.845.693c.924 0 .924-.17 1.847-.17.923 0 .923-.171 1.847-.171.924 0 .924-.614 1.848-.614.925 0 .925.088 1.849.088.925 0 .925.444 1.85.444.924 0 .924-.465 1.848-.465s.924.915 1.847.915c.924 0 .924-1.107 1.848-1.107.923 0 .923.461 1.846.461s.923.445 1.846.445c.924 0 .924.16 1.848.16s.924-.024 1.848-.024.924-.58 1.848-.58c.926 0 .926.296 1.851.296.925 0 .925-.413 1.849-.413.924 0 .924.813 1.849.813.924 0 .924-.918 1.847-.918.924 0 .924.557 1.848.557s.924-.332 1.848-.332.924.012 1.849.012c.925 0 .925.352 1.85.352s.925-.317 1.85-.317.925-.031 1.85-.031c.923 0 .923.396 1.848.396.924 0 .924.083 1.848.083.925 0 .925-.006 1.85-.006s.925.206 1.851.206c.924 0 .924-.144 1.85-.144.924 0 .924.118 1.849.118.925 0 .925-1.132 1.849-1.132.925 0 .925.799 1.85.799.926 0 .926-.418 1.851-.418.925 0 .925-.13 1.85-.13s.925.281 1.85.281.925-.141 1.85-.141c.926 0 .926.372 1.851.372.925 0 .925.168 1.851.168.925 0 .925-.547 1.85-.547s.925.252 1.851.252c.926 0 .926-.002 1.85-.002.926 0 .926-.047 1.852-.047.925 0 .925-.31 1.85-.31.926 0 .926.612 1.851.612.925 0 .925-.533 1.85-.533.924 0 .924.696 1.848.696.925 0 .925.107 1.849.107.926 0 .926-.73 1.852-.73.924 0 .924.41 1.849.41.926 0 .926.15 1.852.15.925 0 .925-.813 1.85-.813.927 0 .927.447 1.853.447.926 0 .926.138 1.851.138.926 0 .926-.713 1.852-.713.927 0 .927.292 1.853.292.927 0 .927.352 1.853.352.926 0 .926-.05 1.851-.05.926 0 .926.136 1.853.136.926 0 .926.044 1.853.044.927 0 .927.171 1.854.171.928 0 .928-.095 1.856-.095.929 0 .929-.794 1.857-.794" fill="#DAE0EC" mask="url(#b)"/></g><path d="M183.918 319.365H36.066c-8.52 0-15.427-6.907-15.427-15.428V156.085c0-8.52 6.907-15.427 15.427-15.427h147.852c8.521 0 15.427 6.907 15.427 15.427v147.852c0 8.52-6.906 15.428-15.427 15.428" fill="#2EA2FF"/><path d="M277.698 88.544a3.846 3.846 0 0 1-3.846-3.846V69.57h-15.127a3.845 3.845 0 1 1 0-7.692h18.973a3.847 3.847 0 0 1 3.846 3.847v18.973a3.846 3.846 0 0 1-3.846 3.846" fill="#252B3A"/><path d="M221.554 125.716a3.846 3.846 0 0 1-2.72-6.566l56.145-56.146a3.846 3.846 0 1 1 5.439 5.44l-56.144 56.144a3.836 3.836 0 0 1-2.72 1.128" fill="#252B3A"/></g></svg>