<svg width="340" height="340" xmlns="http://www.w3.org/2000/svg" xmlns:xlink="http://www.w3.org/1999/xlink"><defs><path id="a" d="M0 .418h267.926v267.89H0z"/><path id="c" d="M0 334.16h339.938V0H0z"/></defs><g transform="translate(0 3)" fill="none" fill-rule="evenodd"><g transform="translate(0 65.85)"><mask id="b" fill="#fff"><use xlink:href="#a"/></mask><path d="M258.796 241.89c0 .685-.012 1.338-.092 2.001-.083.678-.27 1.305-.431 1.956-.164.66-.154 1.354-.394 1.982-.242.635-.323 1.351-.638 1.946-.317.6-1.05.941-1.434 1.496-.386.555-.657 1.178-1.105 1.683-.448.506-1.275.577-1.78 1.025-.505.449-.348 1.73-.905 2.116-.554.385-1.708-.23-2.308.087-.595.314-.896 1.2-1.53 1.443-.628.24-1.265.495-1.926.66-.65.16-1.341.172-2.018.254-.664.08-1.336-.02-2.021-.02-1.02 0-1.02.606-2.038.606-1.02 0-1.02-.009-2.04-.009s-1.02-.933-2.04-.933-1.02.136-2.041.136c-1.02 0-1.02.26-2.041.26-1.02 0-1.02.697-2.04.697s-1.02-.803-2.039-.803c-1.02 0-1.02.085-2.039.085-1.02 0-1.02.287-2.039.287-1.02 0-1.02.273-2.04.273-1.021 0-1.021-.92-2.042-.92-1.02 0-1.02.814-2.041.814-1.02 0-1.02-.48-2.04-.48s-1.02.076-2.04.076-1.02.277-2.04.277-1.02.12-2.04.12c-1.022 0-1.022-.838-2.043-.838-1.02 0-1.02.293-2.041.293s-1.021.822-2.041.822-1.02-1.025-2.04-1.025c-1.022 0-1.022 1.068-2.042 1.068-1.022 0-1.022-.082-2.043-.082-1.02 0-1.02-.033-2.041-.033s-1.021-.06-2.041-.06-1.02-.778-2.042-.778c-1.021 0-1.021.991-2.042.991s-1.021-1.106-2.042-1.106-1.021.14-2.042.14-1.021.439-2.043.439c-1.02 0-1.02-.126-2.042-.126-1.021 0-1.021-.697-2.043-.697-1.02 0-1.02 1.373-2.042 1.373-1.02 0-1.02-.413-2.041-.413s-1.021-.556-2.042-.556c-1.02 0-1.02.468-2.04.468s-1.02.22-2.04.22c-1.021 0-1.021-.706-2.043-.706-1.02 0-1.02.874-2.041.874-1.02 0-1.02-.5-2.043-.5-1.02 0-1.02.615-2.042.615-1.022 0-1.022-.576-2.044-.576s-1.022.377-2.043.377c-1.022 0-1.022-.372-2.044-.372s-1.022.391-2.044.391c-1.023 0-1.023-.538-2.045-.538-1.021 0-1.021.66-2.042.66-1.023 0-1.023-1.351-2.045-1.351s-1.022 1.342-2.045 1.342c-1.022 0-1.022-1.29-2.045-1.29-1.024 0-1.024.005-2.05.005-1.023 0-1.326 1.375-2.056.656-.719-.707.003-1.017.003-2.026 0-1.007-.512-1.007-.512-2.015 0-1.008.018-1.008.018-2.018 0-1.008.943-1.008.943-2.016 0-1.01-.138-1.01-.138-2.019 0-1.009.267-1.009.267-2.017 0-1.01-.367-1.01-.367-2.018 0-1.01.487-1.01.487-2.02 0-1.009-.037-1.009-.037-2.018s-.895-1.009-.895-2.018.447-1.009.447-2.018c0-1.01.317-1.01.317-2.02s-1.02-1.01-1.02-2.02c0-1.011.66-1.011.66-2.022 0-1.012-.268-1.012-.268-2.024 0-.687-.063-1.34-.198-1.99-.138-.667-.663-1.15-.932-1.763-.272-.618-.378-1.254-.775-1.801-.393-.543-.241-1.645-.747-2.101-.493-.445-1.466-.366-2.059-.713-.596-.351-1.038-1.15-1.673-1.365-.65-.219-1.466-.037-2.138-.115-.676-.077-1.425-.391-2.103-.324-.673.066-1.168 1.078-1.822 1.285-.639.205-1.048.69-1.652 1.03-.587.328-1.414.28-2.028.557-.613.276-1.185.75-1.82.973-.635.222-1.345.333-1.998.501-.65.168-1.392.03-2.055.142-.663.113-1.374-.192-2.045-.135-.67.057-1.32.733-1.994.733-.715 0-1.408-.611-2.111-.673-.711-.062-1.41-.087-2.105-.211-.702-.125-1.587.467-2.27.28-.687-.186-1.2-1.007-1.865-1.254-.666-.248-1.586.025-2.226-.283-.64-.307-.74-1.634-1.35-2-.608-.363-1.596-.134-2.173-.555-.57-.416-1.316-.675-1.853-1.145-.532-.465-.78-1.27-1.275-1.787-.496-.516-1.06-.985-1.503-1.535-.447-.557-.948-1.098-1.341-1.687-.395-.594-.276-1.497-.614-2.12-.34-.625-1.31-.952-1.591-1.605a24.06 24.06 0 0 1-.747-2.04c-.221-.673.186-1.535.027-2.23-.158-.69-.408-1.355-.504-2.062-.097-.7-.24-1.398-.274-2.112-.034-.706.397-1.4.424-2.116.028-.699-.839-1.47-.75-2.153.089-.692.148-1.435.296-2.107.15-.68 1.382-1.072 1.59-1.73.21-.663.23-1.356.495-1.994.268-.642.326-1.364.647-1.976.322-.617 1.197-.875 1.57-1.458.374-.585-.208-1.833.214-2.383.423-.549 1.028-.995 1.497-1.506.468-.512.764-1.258 1.274-1.727.51-.469 1.674-.19 2.223-.613.548-.423 1.236-.588 1.82-.963.582-.373 1.205-.572 1.82-.895.613-.321.827-1.446 1.468-1.715.637-.266 1.368-.32 2.032-.53.657-.21 1.374-.189 2.054-.34.672-.15 1.306-.523 1.998-.614.682-.09 1.354-.781 2.052-.81.737-.03 1.52.243 2.25.28.735.036 1.473.338 2.196.44.728.103 1.559-.143 2.271.026.714.169 1.138 1.38 1.833 1.614.694.234 1.474.18 2.145.479.669.297 1.576.159 2.216.519.597.337.805 1.617 1.438 1.819.648.207 1.53-.45 2.196-.384.672.066 1.353.388 2.024.31.665-.076 1.412-.082 2.056-.3.63-.212.976-1.087 1.568-1.432.597-.348 1.261-.525 1.759-.973.51-.458 1.494-.562 1.89-1.108.399-.55.028-1.591.302-2.213.271-.617.917-1.122 1.056-1.792.135-.656.53-1.377.53-2.067 0-1.035-.928-1.035-.928-2.072 0-1.037.354-1.037.354-2.073 0-1.038-.666-1.038-.666-2.076 0-1.037.35-1.037.35-2.074 0-1.038 1.01-1.038 1.01-2.076 0-1.037-.785-1.037-.785-2.075 0-1.039.416-1.039.416-2.076 0-1.038.221-1.038.221-2.077 0-1.037.003-1.037.003-2.076 0-1.039-.09-1.039-.09-2.077 0-1.04-.564-1.04-.564-2.078 0-1.037.565-1.037.565-2.075 0-1.039-.52-1.039-.52-2.077 0-1.04.658-1.04.658-2.079 0-1.039-.031-1.039-.031-2.078 0-1.04-.83-1.04-.83-2.081 0-1.04.342-1.04.342-2.082l-.042-.67c1.037 0 1.037 1.187 2.073 1.187 1.037 0 1.037-.149 2.073-.149 1.038 0 1.038-.057 2.077-.057 1.037 0 1.037-.028 2.073-.028 1.038 0 1.038-.444 2.076-.444s1.038.624 2.075.624c1.038 0 1.038-.263 2.078-.263 1.037 0 1.037-.629 2.075-.629 1.038 0 1.038.38 2.076.38 1.04 0 1.04.381 2.078.381 1.039 0 1.039-.875 2.077-.875s1.038-.116 2.076-.116 1.038 1.063 2.078 1.063c1.038 0 1.038-.576 2.077-.576 1.04 0 1.04-.243 2.079-.243 1.04 0 1.04-.201 2.081-.201s1.041.203 2.082.203c.765 0 1.181.88 1.348 1.165.16.274-.187.535-.54 1.163-.325.576-.24 1.393-.528 1.985-.288.595-.595 1.193-.845 1.803-.25.611.345 1.523.133 2.147-.212.625-1.596.89-1.77 1.527-.171.637.228 1.428.095 2.075-.133.645.18 1.356.088 2.01-.092.652-.635 1.244-.688 1.904-.052.656-.052 1.319-.065 1.98-.012.658.4 1.301.428 1.962.03.694.178 1.345.252 2.027.076.69-.036 1.376.083 2.052.12.683-.702 1.574-.539 2.242.165.672 1.376 1.062 1.582 1.718.209.658-.104 1.495.145 2.136.25.646 1.16.998 1.45 1.622.292.626.723 1.142 1.053 1.745.331.606-.068 1.627.301 2.209.37.583.826 1.122 1.231 1.68.406.558.545 1.352.985 1.882.44.53 1.658.377 2.131.88.473.501 1.031.87 1.535 1.34.504.47.314 1.726.847 2.164.532.438 1.16.797 1.72 1.201.558.403 1.392.414 1.977.78.584.367 1.41.274 2.018.603.606.327.81 1.442 1.437 1.73.625.289 1.346.392 1.99.64.643.246 1.487-.116 2.147.089.656.203 1.263.492 1.936.653.668.16 1.196 1.012 1.879 1.13.676.115 1.416-.112 2.106-.04.682.072 1.36.449 2.053.476.43.016.871-.086 1.299-.086.684 0 1.395.213 2.072.172.682-.043 1.396-.066 2.07-.15.677-.085 1.251-.886 1.919-1.014.67-.128 1.346-.19 2.004-.36.66-.17 1.528.303 2.174.09.647-.213 1.156-.878 1.788-1.132.63-.255 1.424-.201 2.038-.497.613-.294 1.159-.783 1.753-1.118.592-.333.656-1.525 1.228-1.898.569-.37 1.5-.193 2.048-.602.543-.406.88-1.066 1.4-1.508.518-.44.742-1.165 1.235-1.64.479-.46 1.763-.122 2.209-.606.45-.488.645-1.221 1.06-1.732.42-.514 1.037-.898 1.42-1.433.386-.539.033-1.57.384-2.13.351-.561.621-1.135.935-1.715.316-.582 1.612-.676 1.89-1.275.278-.6.42-1.295.659-1.911.24-.616.292-1.324.492-1.954.2-.628-.07-1.396.09-2.039.161-.64.306-1.274.426-1.926.12-.647.928-1.203 1.008-1.862.08-.654-.732-1.397-.692-2.06.04-.657.32-1.298.32-1.962 0-.68.113-1.364.07-2.041-.043-.679-.333-1.331-.419-2.004-.086-.675-.139-1.346-.268-2.013-.128-.667-.835-1.18-1.007-1.836-.17-.658-.029-1.373-.24-2.02-.213-.645.508-1.642.255-2.273-.252-.63-.712-1.212-1.005-1.825-.293-.612-1.013-1.024-1.345-1.617-.388-.696.207-1.034.376-1.323.162-.274.144-1.633.895-1.633 1.042 0 1.042 1.212 2.084 1.212 1.041 0 1.041-1.096 2.083-1.096 1.042 0 1.042.849 2.085.849 1.041 0 1.041-.433 2.083-.433 1.042 0 1.042.758 2.085.758 1.042 0 1.042-.215 2.085-.215 1.042 0 1.042-.33 2.086-.33 1.04 0 1.04-.208 2.082-.208 1.043 0 1.043-.218 2.086-.218 1.042 0 1.042.829 2.086.829 1.043 0 1.043-.748 2.086-.748 1.045 0 1.045.81 2.09.81 1.044 0 1.044-.246 2.089-.246l-.663-.297c.001 1.029.69 1.029.69 2.059 0 1.03-.063 1.03-.063 2.06s.319 1.03.319 2.06.267 1.03.267 2.062c0 1.032.064 1.032.064 2.064 0 1.031-.19 1.031-.19 2.062s-.75 1.031-.75 2.062c0 1.03.43 1.03.43 2.06s.082 1.03.082 2.06c0 1.031-.105 1.031-.105 2.061 0 1.032-.656 1.032-.656 2.063 0 1.031.762 1.031.762 2.063 0 1.032.29 1.032.29 2.063 0 1.032-1.028 1.032-1.028 2.062 0 1.03.236 1.03.236 2.062 0 1.03.463 1.03.463 2.062 0 1.03-.03 1.03-.03 2.062 0 1.032-.598 1.032-.598 2.064 0 1.031-.166 1.031-.166 2.064 0 1.03 1.052 1.03 1.052 2.062 0 1.03.203 1.03.203 2.062 0 1.031-.88 1.031-.88 2.063 0 1.032.107 1.032.107 2.065 0 1.031.795 1.031.795 2.063 0 1.031.01 1.031.01 2.063 0 1.03-.548 1.03-.548 2.063 0 1.032-.237 1.032-.237 2.065 0 1.031-.503 1.031-.503 2.063 0 1.032 1.323 1.032 1.323 2.064s-1.315 1.032-1.315 2.064 1.343 1.032 1.343 2.063c0 1.032-.705 1.032-.705 2.066 0 1.031.588 1.031.588 2.063 0 1.032-.321 1.032-.321 2.064 0 1.03-.832 1.03-.832 2.062 0 1.03 1.273 1.03 1.273 2.062 0 1.03-1.242 1.03-1.242 2.062 0 1.032.048 1.032.048 2.065 0 1.03-.178 1.03-.178 2.062 0 1.033.545 1.033.545 2.065 0 1.033.422 1.033.422 2.065 0 1.033.276 1.033.276 2.065s-1.023 1.032-1.023 2.065c0 1.032.956 1.032.956 2.065 0 1.034-.273 1.034-.273 2.066 0 1.034-.253 1.034-.253 2.067 0 1.032.34 1.032.34 2.064 0 1.034-.507 1.034-.507 2.067 0 1.033.515 1.033.515 2.067 0 1.033-1.033 1.033-1.033 2.067 0 1.035.612 1.026.54 2.059-.07 1.041-.051 1.046-.051 2.082m-129.097 17.353c-.714.727-.867-.035-1.886-.035-1.02 0-1.02-.07-2.039-.07-1.02 0-1.02.219-2.04.219-1.021 0-1.021.223-2.042.223-1.02 0-1.02-.45-2.04-.45s-1.02.172-2.04.172-1.02-.534-2.039-.534c-1.019 0-1.019 1.106-2.039 1.106-1.02 0-1.02-1.127-2.04-1.127s-1.02.684-2.038.684c-1.021 0-1.021.053-2.042.053-1.02 0-1.02-.114-2.041-.114-1.02 0-1.02-.143-2.041-.143-1.02 0-1.02.606-2.04.606s-1.02-.008-2.04-.008-1.02-.934-2.04-.934-1.02.137-2.041.137-1.021.26-2.042.26c-1.02 0-1.02.696-2.04.696s-1.02-.803-2.041-.803c-1.02 0-1.02.086-2.04.086-1.022 0-1.022.286-2.044.286-1.02 0-1.02.273-2.041.273-1.02 0-1.02-.92-2.04-.92-1.022 0-1.022.814-2.042.814-1.022 0-1.022-.48-2.043-.48-1.02 0-1.02.076-2.042.076-1.02 0-1.02.278-2.041.278s-1.021.12-2.043.12c-1.02 0-1.02-.838-2.041-.838-1.022 0-1.022.293-2.043.293-1.022 0-1.022.82-2.042.82-1.02 0-1.02-1.023-2.042-1.023-1.02 0-1.02 1.068-2.041 1.068-1.02 0-1.02-.082-2.04-.082s-1.02-.034-2.04-.034c-1.021 0-1.021-.06-2.043-.06-1.02 0-1.02-.778-2.04-.778-1.021 0-1.021.992-2.043.992-1.021 0-1.021-1.107-2.042-1.107-1.022 0-1.022.14-2.044.14s-1.022.44-2.043.44c-1.021 0-1.021-.126-2.044-.126-1.022 0-1.022-.698-2.044-.698s-1.022 1.373-2.045 1.373c-1.02 0-1.02-.413-2.042-.413-1.022 0-1.022-.556-2.044-.556s-1.022.469-2.045.469c-1.022 0-1.022.22-2.045.22-1.024 0-1.024-.706-2.049-.706-1.024 0-1.024.873-2.048.873-.686 0-1.372-.54-2.037-.621-.677-.082-1.502.39-2.152.23-.662-.164-1.185-.93-1.813-1.17-.635-.242-1.443-.192-2.038-.506-.6-.317-1.02-1.007-1.574-1.39-.556-.386-1.362-.521-1.867-.969-.506-.45-.626-1.33-1.076-1.836-.448-.506-1.408-.661-1.793-1.218-.384-.555.42-1.83.103-2.43-.314-.596-1.812-.657-2.054-1.293-.24-.628.788-1.657.625-2.319a15.29 15.29 0 0 1-.355-1.915c-.08-.664-.777-1.262-.777-1.947 0-1.017.007-1.017.007-2.034s-.513-1.017-.513-2.034.019-1.017.019-2.035c0-1.017.943-1.017.943-2.035 0-1.018-.138-1.018-.138-2.037 0-1.018.267-1.018.267-2.038 0-1.018-.367-1.018-.367-2.036 0-1.019.487-1.019.487-2.037 0-1.017-.038-1.017-.038-2.035 0-1.017-.895-1.017-.895-2.035 0-1.017.448-1.017.448-2.035 0-1.018.317-1.018.317-2.037 0-1.018-1.022-1.018-1.022-2.037 0-1.02.662-1.02.662-2.038 0-1.018-.269-1.018-.269-2.036 0-1.019.004-1.019.004-2.037s-.355-1.018-.355-2.036.225-1.018.225-2.037.854-1.019.854-2.038-.641-1.019-.641-2.038.545-1.019.545-2.037c0-1.019-.357-1.019-.357-2.037s.31-1.018.31-2.037c0-1.02-.896-1.02-.896-2.04 0-1.018-.285-1.018-.285-2.036 0-1.02.414-1.02.414-2.038 0-1.02-.228-1.02-.228-2.039 0-1.018.101-1.018.101-2.038 0-1.019.29-1.019.29-2.038s.392-1.019.392-2.038c0-1.02-.65-1.02-.65-2.04 0-1.019.583-1.019.583-2.037 0-1.02-.067-1.02-.067-2.039 0-1.02-.772-1.02-.772-2.038 0-1.02.624-1.02.624-2.038 0-1.02-.613-1.02-.613-2.037 0-1.019 1.122-1.019 1.122-2.037s-.735-1.018-.735-2.037c0-1.02-.263-1.02-.263-2.04 0-1.017.412-1.017.412-2.036 0-1.02-.113-1.02-.113-2.04 0-1.018-.084-1.018-.084-2.038 0-1.02.57-1.02.57-2.04s-.73-1.02-.73-2.039c0-1.02.023-1.02.023-2.04s.624-1.02.624-2.04c0-1.022-.126-1.022-.126-2.042 0-1.02-.08-1.02-.08-2.039 0-1.02.434-1.02.434-2.04 0-1.021-.93-1.021-.93-2.041 0-1.021-.07-1.021-.07-2.042 0-1.023 1.09-1.023 1.09-2.045s-1.033-1.112-.308-1.834c.73-.724.819-.166 1.847-.166s1.028.626 2.056.626c1.03 0 1.03-1.194 2.058-1.194 1.029 0 1.029.176 2.057.176 1.03 0 1.03-.318 2.058-.318 1.03 0 1.03.964 2.06.964 1.029 0 1.029.262 2.058.262 1.028 0 1.028.142 2.056.142 1.03 0 1.03-.927 2.059-.927 1.03 0 1.03.202 2.059.202 1.029 0 1.029.206 2.059.206 1.031 0 1.031-.257 2.063-.257 1.032 0 1.032-.633 2.063-.633.725 0 1.355.204 2.055.061.708-.144 1.403-.122 2.06-.404.664-.285 1.026-.939 1.61-1.355.585-.416 1.807-.106 2.288-.645.474-.53.659-1.361 1.007-2.001.318-.583.073-1.365.264-1.98.194-.63 1.397-1.084 1.46-1.731.062-.651-.765-1.355-.837-2.005-.071-.645.11-1.358-.094-1.985-.2-.613-.34-1.323-.667-1.9-.36-.641-1.276-1.001-1.574-1.67-.298-.67-.338-1.461-.573-2.156-.234-.694.21-1.559.04-2.273-.17-.712-1.133-1.26-1.236-1.988-.103-.724.287-1.499.25-2.233-.036-.73.28-1.431.31-2.167.03-.699-.834-1.463-.745-2.145.09-.692.562-1.333.712-2.006.151-.68-.301-1.554-.092-2.212.21-.664.795-1.238 1.061-1.876.268-.641 1.47-.829 1.792-1.44.323-.616-.017-1.59.357-2.172.375-.585 1.111-.906 1.534-1.454.424-.55 1.018-.912 1.487-1.422.47-.51.932-.968 1.443-1.437.511-.467.954-.957 1.504-1.38.55-.422.783-1.276 1.368-1.649.583-.373 1.456-.227 2.072-.549.612-.32 1.007-1.08 1.65-1.347.637-.265 1.495.122 2.158-.088.66-.208 1.274-.405 1.954-.555.673-.148 1.205-1.083 1.897-1.173.683-.088 1.414.195 2.113.167.715-.027 1.456-.736 2.162-.702.714.035 1.32 1.283 2.02 1.379.707.096 1.395.07 2.085.229.695.16 1.366.286 2.04.507.676.22 1.326.436 1.978.717.653.28 1.481.19 2.107.53.623.338.898 1.232 1.491 1.628.589.392 1.294.584 1.85 1.032.55.443 1.506.448 2.022.944.516.495.747 1.286 1.211 1.817.47.538.607 1.321 1.023 1.892.42.576 1.546.695 1.91 1.303.365.61.829 1.23 1.136 1.868.307.64-.386 1.721-.138 2.386s1.01 1.154 1.198 1.84c.186.684.585 1.35.709 2.05.124.696.424 1.42.486 2.13.061.704-.11 1.467-.11 2.182 0 .674-.415 1.35-.472 2.018-.057.672-.778 1.233-.89 1.895-.114.664.196 1.385.028 2.035-.17.653-.395 1.27-.617 1.905-.224.635.332 1.604.055 2.218-.276.612-1.694.656-2.023 1.244-.351.627-.131 1.557-.336 2.222-.211.681.084 1.413.026 2.112-.058.704-.511 1.384-.414 2.085.097.694.303 1.38.552 2.048.242.651.9 1.07 1.286 1.679.362.567.797.95 1.263 1.418.471.474.797 1.003 1.353 1.366.556.364.732 1.564 1.351 1.81.615.246 1.585-.571 2.242-.446.65.124 1.248.754 1.918.754 1.028 0 1.028-.698 2.056-.698 1.03 0 1.03-.151 2.058-.151 1.03 0 1.03.861 2.06.861 1.029 0 1.029-.074 2.058-.074 1.03 0 1.03.378 2.06.378s1.03-1.015 2.059-1.015c1.03 0 1.03-.132 2.061-.132 1.03 0 1.03 1.07 2.06 1.07s1.03-.098 2.06-.098c1.032 0 1.032-.457 2.063-.457 1.03 0 1.03-.497 2.062-.497 1.029 0 1.029.906 2.059.906 1.03 0 1.03-.185 2.061-.185 1.032 0 1.032-.619 2.062-.619 1.032 0 1.032.117 2.063.117 1.033 0 1.033.728 2.065.728 1.033 0 1.033-.325 2.067-.325a8.25 8.25 0 0 0-.314-.18c-.002.004.067.149.067.154-.005 1.036-.235 1.038-.235 2.073 0 1.037-.045 1.037-.045 2.074s.7 1.037.7 2.076c0 1.036-.09 1.036-.09 2.073 0 1.038-.7 1.038-.7 2.076 0 1.037.45 1.037.45 2.075 0 1.038-.37 1.038-.37 2.076s.182 1.038.182 2.076.987 1.038.987 2.076c0 1.04-.678 1.04-.678 2.077 0 1.039.308 1.039.308 2.078 0 1.037.389 1.037.389 2.074 0 1.04-1.155 1.04-1.155 2.078 0 1.04.333 1.04.333 2.078 0 1.038-.258 1.038-.258 2.077 0 1.04.868 1.04.868 2.082 0 1.04.057 1.04.057 2.082 0 .767-1.285.622-1.569.792-.277.156-.285.488-.917.133-.574-.323-1.265-.474-1.856-.76-.593-.287-1.388-.127-1.997-.376a31.093 31.093 0 0 0-1.836-.693c-.623-.211-1.055-1.09-1.69-1.262-.635-.171-1.485.526-2.13.393-.643-.132-1.235-.499-1.887-.592-.65-.092-1.289-.301-1.945-.354-.655-.053-1.32.141-1.98.128-.656-.013-1.306-.06-1.965-.032-.694.029-1.313.655-1.995.728-.69.074-1.386-.168-2.063-.05-.682.119-1.576-.737-2.244-.574-.673.163-1.323.539-1.98.745-.66.207-1.179.864-1.82 1.113-.645.249-1.463.13-2.088.42-.627.29-.73 1.605-1.335 1.935-.606.33-1.812-.367-2.395.001-.583.37-.54 1.664-1.098 2.068-.558.406-1.617.152-2.149.592-.532.44-.767 1.223-1.27 1.696-.502.473-1.537.437-2.01.94-.47.504-.786 1.189-1.225 1.721-.438.533-.607 1.294-1.01 1.854-.404.558-.617 1.245-.985 1.83-.367.583-.52 1.275-.849 1.883-.328.604-1.38.855-1.67 1.482-.287.625.13 1.558-.118 2.204-.247.641-1.241 1.037-1.447 1.698-.204.656-.159 1.413-.32 2.086-.162.668-.665 1.3-.783 1.983-.116.677.468 1.476.396 2.166-.072.682-.185 1.366-.212 2.06-.027.665.284 1.323.298 1.98.013.666.312 1.288.366 1.945.053.662.186 1.277.28 1.93.094.658.018 1.31.152 1.957.135.65-.441 1.466-.266 2.103.175.639.784 1.151.999 1.776.215.627.523 1.209.777 1.82.254.61.427 1.25.72 1.844.29.593.03 1.499.358 2.075.328.573 1.33.748 1.695 1.303.363.55.969.91 1.368 1.44.396.527.008 1.688.439 2.194.427.502 1.064.853 1.525 1.333.46.48 1.26.617 1.744 1.063.488.451.962.902 1.472 1.318.515.42.685 1.304 1.22 1.69.54.386 1.027.911 1.586 1.263.561.352 1.67-.219 2.25.096.583.316 1.236.418 1.835.696.6.278.855 1.342 1.472 1.583.616.239 1.289.362 1.92.563.629.2 1.468-.387 2.112-.226.64.16 1.25.284 1.901.405.649.12 1.198.758 1.856.84.655.079 1.294.374 1.957.414.658.039 1.328.563 1.992.563.68 0 1.317-1.343 1.995-1.386.679-.043 1.479 1.2 2.152 1.114.675-.086 1.133-1.518 1.8-1.646.667-.128 1.464.414 2.121.244.658-.17 1.128-.92 1.773-1.132.646-.212 1.369-.134 2-.386.63-.253 1.595.232 2.209-.06.613-.293.627-1.733 1.22-2.065.696-.39 1.354.916 1.645 1.078.27.164.512.084.512.83 0 1.031-.177 1.031-.177 2.064 0 1.03.544 1.03.544 2.062 0 1.034.423 1.034.423 2.066 0 1.032.276 1.032.276 2.063 0 1.033-1.023 1.033-1.023 2.066 0 1.032.956 1.032.956 2.064 0 1.033-.273 1.033-.273 2.065 0 1.034-.253 1.034-.253 2.067 0 1.034.34 1.034.34 2.067 0 1.032-.508 1.032-.508 2.064s.516 1.032.516 2.066c0 1.033-1.033 1.033-1.033 2.066 0 1.034.54 1.034.54 2.067 0 1.036-.282 1.098-.101 2.118.178 1.009.837 1.137.11 1.874M9.14 26.108c0-.686.01-1.34.09-2.004.083-.677.27-1.305.43-1.957.163-.661.152-1.355.39-1.983.243-.636.323-1.352.638-1.948.316-.6 1.049-.942 1.433-1.498.385-.556.655-1.179 1.104-1.684.449-.506 1.274-.577 1.78-1.026.506-.449.35-1.73.907-2.116.554-.384 1.708.232 2.309-.084.595-.314.898-1.2 1.533-1.442.628-.24 1.266-.493 1.927-.657.651-.16 1.342-.171 2.02-.253.664-.08 1.337.021 2.022.021 1.02 0 1.02-.606 2.038-.606 1.019 0 1.019.009 2.039.009 1.02 0 1.02.933 2.04.933s1.02-.136 2.041-.136 1.021-.26 2.041-.26 1.02-.697 2.04-.697 1.02.803 2.039.803c1.019 0 1.019-.085 2.038-.085 1.02 0 1.02-.287 2.04-.287s1.02-.272 2.04-.272 1.02.918 2.041.918c1.02 0 1.02-.813 2.041-.813 1.02 0 1.02.48 2.04.48s1.02-.076 2.04-.076 1.02-.278 2.04-.278 1.02-.119 2.04-.119c1.022 0 1.022.838 2.043.838 1.02 0 1.02-.293 2.041-.293 1.02 0 1.02-.822 2.04-.822s1.02 1.025 2.041 1.025 1.021-1.068 2.041-1.068c1.022 0 1.022.082 2.043.082 1.02 0 1.02.033 2.041.033 1.02 0 1.02.06 2.041.06 1.02 0 1.02.778 2.042.778 1.021 0 1.021-.991 2.042-.991s1.021 1.106 2.042 1.106c1.02 0 1.02-.14 2.041-.14 1.022 0 1.022-.439 2.043-.439 1.021 0 1.021.126 2.042.126 1.022 0 1.022.697 2.043.697 1.02 0 1.02-1.373 2.042-1.373 1.02 0 1.02.413 2.042.413 1.02 0 1.02.556 2.04.556s1.02-.469 2.04-.469 1.02-.22 2.04-.22c1.022 0 1.022.707 2.043.707 1.02 0 1.02-.874 2.04-.874 1.022 0 1.022.5 2.044.5 1.021 0 1.021-.615 2.042-.615 1.022 0 1.022.576 2.044.576 1.021 0 1.021-.377 2.043-.377 1.021 0 1.021.372 2.043.372 1.023 0 1.023-.392 2.045-.392s1.022.54 2.045.54c1.02 0 1.02-.661 2.042-.661 1.022 0 1.022 1.35 2.044 1.35 1.023 0 1.023-1.341 2.045-1.341s1.022 1.29 2.045 1.29c1.024 0 1.024-.005 2.05-.005 1.023 0 1.343-1.391 2.056-.657.735.759-.003 1.064-.003 2.12 0 1.054.512 1.054.512 2.109s-.018 1.055-.018 2.11c0 1.056-.944 1.056-.944 2.111 0 1.056.138 1.056.138 2.112 0 1.054-.266 1.054-.266 2.109s.367 1.055.367 2.11c0 1.057-.488 1.057-.488 2.112 0 1.056.038 1.056.038 2.113s.895 1.057.895 2.115c0 1.058-.447 1.058-.447 2.116 0 .686-.237 1.465-.103 2.116.138.667 1.312 1.006 1.581 1.62.271.619.019 1.502.414 2.05.393.543 1.047.873 1.552 1.33a9.685 9.685 0 0 0 1.611 1.184c.598.351 1.314.289 1.95.504.65.219 1.198.571 1.87.648.677.078 1.395.933 2.074.867.673-.066 1.275-.841 1.93-1.049.64-.202 1.53.004 2.135-.334.587-.329 1-.937 1.614-1.215.612-.276 1.327-.23 1.962-.453.634-.223 1.014-1.275 1.666-1.443.65-.17 1.296-.598 1.96-.711.662-.114 1.424.207 2.096.15.668-.056 1.365-.315 2.04-.315.714 0 1.459.135 2.162.196.71.062 1.4.445 2.094.57.702.124 1.302.661 1.984.847.687.187 1.565-.211 2.229.036.665.248 1.098 1.064 1.738 1.372.638.306 1.282.577 1.892.94.607.364 1.643.124 2.219.542.571.416.76 1.363 1.297 1.832.532.464 1.488.53 1.983 1.045.496.515.128 1.794.571 2.343.449.557 1.455.685 1.849 1.272.396.593 1.005 1.094 1.345 1.717.34.624.294 1.468.575 2.12.282.651.645 1.288.866 1.963.222.675.499 1.358.66 2.052.158.69-.273 1.492-.177 2.2.097.7.889 1.347.924 2.06.034.705.014 1.454-.013 2.17-.027.698-.707 1.347-.795 2.03-.088.69-.081 1.384-.229 2.057-.15.68-.251 1.368-.458 2.026-.209.663-.848 1.15-1.113 1.787-.266.643.28 1.667-.039 2.28-.321.615-.63 1.292-1.003 1.875-.373.585-1.664.53-2.085 1.08-.422.55-.678 1.195-1.145 1.707-.467.512-.767 1.172-1.276 1.642-.51.469-1.42.419-1.969.844-.547.423-.418 1.795-1.002 2.17-.581.376-1.302.592-1.916.916-.611.322-1.142.926-1.783 1.195-.636.268-1.636-.39-2.299-.179-.657.21-1.358.13-2.037.283-.673.15-1.325.123-2.016.214-.683.091-1.271 1.073-1.97 1.103-.737.033-1.484-.17-2.216-.206-.738-.036-1.443-.31-2.17-.412-.73-.104-1.496.013-2.21-.157-.717-.17-1.634.224-2.33-.012-.696-.236-1.334-.774-2.006-1.074-.67-.3-1.25-.85-1.893-1.213-.597-.336-1.298-.21-1.93-.412-.649-.205-1.085-1.36-1.751-1.425-.67-.065-1.403.273-2.073.35-.664.077-1.177.733-1.821.951-.63.213-1.72-.49-2.312-.143-.596.348-.703 1.446-1.201 1.893-.509.458-1.21.747-1.606 1.293-.399.55-.901 1.11-1.175 1.732-.272.618.142 1.467.003 2.137-.137.655-.45 1.267-.45 1.958 0 1.036-.667 1.036-.667 2.072 0 1.037.846 1.037.846 2.073 0 1.039-.462 1.039-.462 2.077 0 1.037-.32 1.037-.32 2.073 0 1.038.928 1.038.928 2.076s-.354 1.038-.354 2.076.666 1.038.666 2.077c0 1.037-.35 1.037-.35 2.075 0 1.038-1.01 1.038-1.01 2.077 0 1.038.785 1.038.785 2.077s-.416 1.039-.416 2.078c0 1.037-.221 1.037-.221 2.075 0 1.04-.004 1.04-.004 2.078 0 1.038.091 1.038.091 2.077 0 1.04.564 1.04.564 2.079 0 1.04-.565 1.04-.565 2.081s1.226 1.414.492 2.151c-.73.735-1.106-.63-2.142-.63-1.037 0-1.037.032-2.074.032s-1.037.83-2.075.83c-1.038 0-1.038-.343-2.075-.343-1.037 0-1.037.713-2.076.713-1.037 0-1.037-1.188-2.075-1.188-1.038 0-1.038.15-2.076.15s-1.038.056-2.076.056-1.038.029-2.077.029c-1.038 0-1.038.443-2.077.443s-1.039-.623-2.078-.623c-1.038 0-1.038.262-2.075.262-1.039 0-1.039.629-2.077.629-1.04 0-1.04-.38-2.079-.38-1.038 0-1.038-.38-2.077-.38-1.042 0-1.042.875-2.082.875-1.042 0-1.042.115-2.082.115-.748 0-.78-1.323-.941-1.598-.169-.287-.893-.753-.502-1.45.332-.593.42-1.292.712-1.905.293-.613.367-1.286.62-1.917.253-.63.665-1.169.877-1.815.212-.646.771-1.175.942-1.833.17-.657.953-1.197 1.082-1.864.128-.667-.209-1.435-.123-2.109.086-.673.188-1.358.231-2.037.043-.677-.811-1.37-.811-2.05 0-.664 1.227-1.36 1.187-2.019-.04-.662-.67-1.287-.75-1.941-.08-.66-.603-1.234-.724-1.883-.12-.652.205-1.388.045-2.029-.162-.642-.374-1.272-.575-1.9-.201-.632-.798-1.11-1.038-1.726-.24-.616-.579-1.161-.857-1.761-.278-.6-.38-1.263-.695-1.844-.315-.582.198-1.662-.154-2.223-.35-.56-1.606-.527-1.993-1.066-.384-.536-.329-1.405-.748-1.92-.417-.511-1.371-.549-1.822-1.036-.447-.484-.995-.826-1.474-1.287-.48-.462-.384-1.538-.886-1.964-.506-.431-1.08-.794-1.607-1.19-.53-.398-.873-1.1-1.424-1.463-.555-.365-1.651.151-2.225-.176-.575-.33-1.192-.507-1.786-.799-.594-.292-.752-1.537-1.362-1.79-.612-.255-1.29-.407-1.916-.622-.626-.215-1.4.023-2.04-.152-.638-.174-1.377.158-2.026.024-.647-.135-1.134-1.14-1.79-1.234-.654-.095-1.346.015-2.008-.04-.658-.052-1.338.533-2.003.52-.659-.013-1.296-.124-1.962-.097-.693.028-1.433-.649-2.115-.576-.69.072-1.341.492-2.018.608-.683.117-1.437-.06-2.105.1-.674.162-1.329.457-1.985.661-.661.206-1.412.22-2.055.466-.645.249-1.328.489-1.954.778-.627.29-.94 1.23-1.546 1.558-.607.33-1.24.597-1.824.964-.584.367-1.562.183-2.12.586-.56.404-.852 1.197-1.384 1.635-.533.44-1.311.633-1.815 1.104-.503.472-.884 1.107-1.356 1.61-.473.502-.183 1.667-.622 2.199-.44.53-1.387.647-1.792 1.206-.405.558-.532 1.296-.902 1.88-.367.583-.366 1.349-.697 1.956-.33.604-1.669.697-1.96 1.324-.29.625-.261 1.41-.51 2.055-.249.642-.727 1.227-.934 1.887-.206.656.446 1.553.283 2.226-.162.668-.242 1.324-.36 2.006-.119.677-1.321 1.209-1.395 1.898-.073.683.014 1.417-.015 2.111-.028.66.151 1.343.165 1.999.013.659.515 1.296.568 1.95.053.657.117 1.301.21 1.951.093.653-.496 1.435-.363 2.079.133.644 1.139 1.088 1.311 1.722.172.635.112 1.328.323 1.952.21.623.313 1.286.563 1.896.248.607.722 1.113 1.01 1.706.285.591.54 1.192.862 1.765.357.632.641 1.586.482 1.859-.167.285-1.155.767-1.92.767-1.042 0-1.042-1.02-2.084-1.02-1.041 0-1.041.188-2.082.188-1.042 0-1.042.449-2.085.449-1.041 0-1.041-.43-2.083-.43-1.042 0-1.042 1.129-2.084 1.129-1.043 0-1.043-1.213-2.086-1.213-1.042 0-1.042 1.097-2.085 1.097-1.041 0-1.041-.85-2.083-.85-1.042 0-1.042.433-2.085.433s-1.043-.76-2.086-.76c-1.042 0-1.042.216-2.085.216-1.045 0-1.045.332-2.09.332s-1.433.9-2.18.17c-.73-.714-.256-1.114-.256-2.136 0-1.023.829-1.023.829-2.046s-.748-1.023-.748-2.044c0-1.023.81-1.023.81-2.044 0-1.022-.246-1.022-.246-2.043 0-1.021.366-1.021.366-2.043 0-1.021-.69-1.021-.69-2.043 0-1.022.063-1.022.063-2.044s-.318-1.022-.318-2.046c0-1.022-.268-1.022-.268-2.045 0-1.022-.063-1.022-.063-2.044s.189-1.022.189-2.043c0-1.023.75-1.023.75-2.045 0-1.023-.43-1.023-.43-2.044 0-1.023-.082-1.023-.082-2.046 0-1.022.106-1.022.106-2.046 0-1.022.656-1.022.656-2.045 0-1.021-.763-1.021-.763-2.044 0-1.022-.29-1.022-.29-2.044 0-1.025 1.028-1.025 1.028-2.048 0-1.023-.237-1.023-.237-2.045S8.78 82.4 8.78 81.378s.03-1.023.03-2.046.599-1.023.599-2.046.165-1.023.165-2.045c0-1.024-1.052-1.024-1.052-2.047 0-1.023-.202-1.023-.202-2.046s.88-1.023.88-2.046-.109-1.023-.109-2.047c0-1.023-.795-1.023-.795-2.046s-.008-1.023-.008-2.045c0-1.023.548-1.023.548-2.046 0-1.021.236-1.021.236-2.043 0-1.022.503-1.022.503-2.045s-1.323-1.023-1.323-2.047c0-1.022 1.314-1.022 1.314-2.044 0-1.024-1.341-1.024-1.341-2.047 0-1.024.704-1.024.704-2.047 0-1.023-.588-1.023-.588-2.048 0-1.023.322-1.023.322-2.046 0-1.024.83-1.024.83-2.048s-1.271-1.024-1.271-2.049c0-1.023 1.24-1.023 1.24-2.048 0-1.023-.046-1.023-.046-2.047 0-1.024.177-1.024.177-2.047 0-1.025-.545-1.025-.545-2.05 0-1.024-.422-1.024-.422-2.05 0-1.025-.345-1.068-.274-2.091.07-1.033.788-.987.788-2.013m258.303 107.769c-.003-.881-.03-.88-.03-1.761 0-.781-.103-1.622-.385-2.301-.291-.704-.928-1.265-1.458-1.795-.531-.53-1.26-.76-1.964-1.051-.679-.282-1.351-.872-2.132-.872-1.233 0-1.233.172-2.466.172-1.042 0-1.042-.534-2.084-.534s-1.042 1.106-2.083 1.106c-1.043 0-1.043-1.127-2.085-1.127s-1.042.684-2.083.684c-1.043 0-1.043.052-2.085.052s-1.042-.114-2.085-.114-1.043-.143-2.086-.143c-1.042 0-1.042.607-2.083.607-1.043 0-1.043-.008-2.085-.008-1.043 0-1.043-.935-2.086-.935s-1.043.138-2.086.138c-1.045 0-1.045.258-2.09.258-1.044 0-1.044.698-2.09.698-.686 0-1.401-.729-2.052-.595-.667.138-1.32.436-1.934.705-.618.27-1.06.852-1.608 1.247-.544.392-.821 1.003-1.278 1.508-.445.494-1.586.502-1.934 1.094-.35.598.097 1.57-.118 2.206-.219.65-.83 1.195-.908 1.867-.077.677-.007 1.385.06 2.064.065.672.47 1.273.678 1.928.203.64.56 1.17.9 1.776.328.587-.12 1.558.158 2.17.276.614.787 1.1 1.011 1.735.223.634 1.209 1.054 1.378 1.706.168.65-.69 1.53-.577 2.195.113.662 1.257 1.204 1.314 1.876.057.67.006 1.396.006 2.07 0 .715-.066 1.47-.127 2.172-.063.71-.22 1.45-.345 2.145-.124.702-1.04 1.23-1.227 1.913-.186.685.534 1.68.286 2.345-.247.665-1.548.895-1.855 1.534-.307.64-.503 1.302-.868 1.913-.363.607-.386 1.435-.804 2.011-.416.571-.96 1.054-1.43 1.592-.463.531-1.438.545-1.953 1.04-.515.495-.143 1.995-.692 2.438-.557.449-1.41.564-1.997.957-.593.397-1.49.29-2.112.629-.624.34-1.055 1.072-1.707 1.354-.652.281-1.265.75-1.94.97-.675.222-1.555-.265-2.248-.105-.69.158-1.245 1.148-1.952 1.246-.7.095-1.484-.333-2.198-.3-.705.034-1.447.652-2.163.623-.698-.027-1.378-.662-2.06-.75-.692-.088-1.468.16-2.14.013-.681-.15-1.282-.697-1.94-.903-.664-.21-1.478-.088-2.116-.353-.641-.266-1.062-1.057-1.675-1.376-.616-.322-1.57-.112-2.153-.484-.585-.373-.377-1.876-.927-2.297-.55-.422-1.94.162-2.451-.305-.512-.467-.095-1.87-.564-2.38a22.77 22.77 0 0 1-1.31-1.54c-.423-.548-1.346-.71-1.722-1.295a23.785 23.785 0 0 1-1.044-1.798c-.323-.61-1.091-1.04-1.36-1.68a24.766 24.766 0 0 1-.719-2c-.21-.656.517-1.574.364-2.254-.15-.673-.402-1.298-.494-1.99-.09-.682.118-1.357.088-2.055-.032-.738-.396-1.44-.36-2.171.036-.738.586-1.383.689-2.11.103-.73.192-1.398.36-2.113.171-.716-.49-1.652-.256-2.349.236-.695.92-1.22 1.22-1.893.3-.67.898-1.154 1.261-1.796.326-.58-.341-1.59-.142-2.204.204-.626.978-1.096 1.05-1.74.071-.651-.193-1.314-.256-1.965a9.384 9.384 0 0 0-.379-1.899c-.19-.616-.748-1.03-1.066-1.614-.349-.64-.54-1.292-1.013-1.822-.482-.539-.488-1.678-1.073-2.094-.585-.416-1.583-.245-2.246-.529-.657-.283-1.233-1.032-1.941-1.176-.7-.143-1.523.13-2.248.13-1.026 0-1.026-.31-2.052-.31s-1.026.897-2.054.897c-1.027 0-1.027.284-2.055.284-1.027 0-1.027-.414-2.054-.414s-1.027.228-2.056.228c-1.027 0-1.027-.101-2.054-.101-1.029 0-1.029-.29-2.057-.29s-1.028-.392-2.056-.392-1.028.649-2.056.649c-1.029 0-1.029-.582-2.057-.582-1.03 0-1.03.067-2.058.067-1.027 0-1.027.772-2.055.772-1.028 0-1.028-.624-2.057-.624-1.03 0-1.03.613-2.058.613-1.028 0-1.028-1.123-2.057-1.123-1.031 0-1.031.736-2.062.736s-1.69.846-2.417.115c-.731-.735.265-1.39.265-2.426 0-1.037-.113-1.037-.113-2.074s-.084-1.037-.084-2.075c0-1.037.57-1.037.57-2.074 0-1.039-.73-1.039-.73-2.077 0-1.037.024-1.037.024-2.075 0-1.038.623-1.038.623-2.077 0-1.038-.126-1.038-.126-2.075 0-1.038-.08-1.038-.08-2.077s.435-1.039.435-2.077c0-1.04-.93-1.04-.93-2.079 0-1.037-.07-1.037-.07-2.074 0-1.039 1.089-1.039 1.089-2.077 0-1.04-.219-1.04-.219-2.079 0-1.039-.254-1.039-.254-2.078 0-1.041.627-1.041.627-2.081 0-1.041-1.196-1.041-1.196-2.082 0-.765.829-1.46 1.114-1.626.274-.16 1.33-.656 1.957-.303.576.326.703 1.48 1.296 1.768.594.289 1.115.807 1.724 1.058.612.25 1.216.628 1.84.84.626.211 1.542-.48 2.179-.306.636.173 1.224.52 1.87.653.647.132 1.266.449 1.92.542.652.092 1.34-.09 1.999-.038.656.053 1.323-.549 1.984-.536.658.011 1.286.273 1.947.245.693-.03 1.378.15 2.06.075.689-.076 1.29-.56 1.966-.68.682-.12 1.568.765 2.234.602.673-.164 1.265-.676 1.921-.883.66-.208 1.124-.935 1.766-1.184.644-.25 1.716.484 2.34.193.626-.291.885-1.348 1.49-1.678.605-.331 1.368-.399 1.95-.768.583-.369 1.256-.636 1.813-1.04.559-.407.7-1.349 1.231-1.79.531-.44 1.206-.7 1.707-1.173.502-.473 1.472-.504 1.943-1.008.471-.504.297-1.589.735-2.122.438-.532 1.224-.796 1.628-1.356.402-.56 1.066-.973 1.433-1.557s-.085-1.651.244-2.258c.328-.607.946-1.052 1.235-1.68.287-.626-.067-1.497.181-2.142.246-.643.792-1.147.997-1.807.204-.657 1.362-1.064 1.524-1.737.16-.668-.466-1.518-.349-2.201.116-.677.623-1.308.696-1.998.07-.682.342-1.38.37-2.074a34.74 34.74 0 0 0 .02-2.015c-.013-.665-.14-1.35-.194-2.006-.054-.662-.69-1.265-.785-1.918-.094-.656.346-1.415.211-2.061-.136-.649-.8-1.18-.975-1.816-.176-.64.254-1.48.038-2.105-.215-.626-.492-1.266-.745-1.877-.254-.61-1.286-.876-1.579-1.47-.292-.593-.297-1.331-.625-1.906-.329-.573-1.272-.747-1.636-1.301-.363-.551.229-1.772-.17-2.302-.395-.527-.943-.972-1.373-1.477-.428-.502-.927-.97-1.388-1.45-.46-.478-.966-.932-1.45-1.378-.489-.45-1.282-.55-1.792-.966-.514-.418-.669-1.321-1.204-1.705-.54-.386-1.251-.548-1.81-.898-.561-.352-1.443-.139-2.023-.452-.582-.316-.99-.944-1.588-1.223-.6-.278-1.067-.89-1.683-1.13-.616-.24-1.524.368-2.155.168-.628-.201-1.26-.26-1.902-.421-.64-.16-1.052-1.337-1.704-1.458-.648-.12-1.396.348-2.054.268-.653-.08-1.316.104-1.979.064-.656-.04-1.292.143-1.956.143-.681 0-1.334-.183-2.011-.14-.68.043-1.38-.278-2.052-.192-.675.085-1.468-.441-2.134-.313-.668.129-1.255.727-1.912.897-.66.172-1.332.331-1.978.543-.645.213-.97 1.263-1.6 1.517-.632.252-1.752-.618-2.366-.325-.612.293-.97 1.122-1.563 1.455-.695.388-1.499.534-1.787.365-.274-.16-.47-.913-.47-1.662 0-1.056-.033-1.056-.033-2.111 0-1.054-.404-1.054-.404-2.11 0-1.054-.098-1.054-.098-2.11 0-1.055.207-1.055.207-2.11 0-1.056.989-1.056.989-2.113 0-1.054-1.061-1.054-1.061-2.108 0-1.056.573-1.056.573-2.111 0-1.056-.698-1.056-.698-2.112s-.152-1.056-.152-2.112c0-1.057.862-1.057.862-2.116 0-1.057-.074-1.057-.074-2.115 0-1.236.378-1.236.378-2.472 0-.78-1.134-1.34-1.416-2.019-.292-.703-.708-1.088-1.238-1.618s-.556-1.813-1.259-2.104c-.679-.282-1.598-.374-2.379-.374-1.234 0-1.234.455-2.468.457-.002 0 .001.499 0 .499-1.019.001-1.02-.906-2.039-.906-1.02 0-1.02.185-2.038.185-1.02 0-1.02.619-2.04.619-1.022 0-1.022-.118-2.043-.118-1.02 0-1.02-.728-2.04-.728s-1.02.326-2.04.326c-1.019 0-1.019-.327-2.038-.327-1.02 0-1.02.11-2.04.11-1.019 0-1.019-.236-2.039-.236-1.02 0-1.02-.044-2.04-.044s-1.02.7-2.04.7c-1.022 0-1.022-.09-2.043-.09-1.02 0-1.02-.7-2.04-.7s-1.02.45-2.04.45c-1.019 0-1.019-.37-2.039-.37-1.02 0-1.02.182-2.04.182-1.021 0-1.021.987-2.043.987-1.02 0-1.02-.678-2.041-.678-1.02 0-1.02.308-2.04.308s-1.02.389-2.04.389c-1.022 0-1.022-1.155-2.042-1.155-1.022 0-1.022.333-2.042.333-1.021 0-1.021-.258-2.042-.258-1.02 0-1.02.868-2.04.868-1.022 0-1.022.057-2.043.057C77.82 1.585 77.82.468 76.8.468c-1.02 0-1.02.142-2.041.142-1.022 0-1.022.186-2.042.186-1.022 0-1.022.47-2.043.47-1.02 0-1.02-.007-2.042-.007-1.021 0-1.021-.715-2.042-.715-1.022 0-1.022.877-2.043.877-1.02 0-1.02-.26-2.04-.26-1.022 0-1.022-.137-2.042-.137-1.02 0-1.02.227-2.04.227s-1.02-.054-2.04-.054c-1.022 0-1.022.578-2.043.578-1.02 0-1.02-.337-2.04-.337-1.022 0-1.022-1.02-2.044-1.02-1.02 0-1.02.187-2.042.187-1.022 0-1.022.45-2.044.45-1.02 0-1.02-.43-2.042-.43-1.022 0-1.022 1.127-2.045 1.127-1.022 0-1.022-1.212-2.044-1.212s-1.022 1.097-2.044 1.097c-1.021 0-1.021-.85-2.042-.85-1.023 0-1.023.433-2.045.433S32.887.462 31.864.462c-1.022 0-1.022.215-2.045.215-1.024 0-1.024.332-2.049.332-1.024 0-1.024.208-2.048.208-.696 0-1.357.243-2.039.3-.692.056-1.484-.68-2.16-.568-.685.114-1.216.987-1.88 1.156-.673.17-1.576-.406-2.224-.182-.656.224-1.242.716-1.87.992-.634.28-1.45.272-2.055.6-.608.33-.87 1.288-1.445 1.666-.578.378-1.176.728-1.72 1.152-.544.424-.856 1.106-1.364 1.574-.506.467-.781 1.12-1.248 1.627-.467.507-.834 1.038-1.259 1.582-.423.543-.953.96-1.331 1.538-.377.575-1.374.78-1.703 1.387-.328.604-.249 1.422-.527 2.055-.276.63-.447 1.29-.671 1.945-.223.649-.518 1.27-.688 1.942-.168.665-.955 1.226-1.068 1.91-.112.676.557 1.47.5 2.162-.055.682.207 1.357.207 2.053 0 1.02-1.028 1.02-1.028 2.044 0 1.023.236 1.023.236 2.045 0 1.023.463 1.023.463 2.045s-.03 1.022-.03 2.043c0 1.022-.599 1.022-.599 2.043 0 1.022-.165 1.022-.165 2.043 0 1.022 1.052 1.022 1.052 2.044s.203 1.022.203 2.043c0 1.024-.88 1.024-.88 2.046 0 1.023.107 1.023.107 2.045 0 1.023.795 1.023.795 2.045s.009 1.022.009 2.044c0 1.021-.547 1.021-.547 2.043 0 1.023-.237 1.023-.237 2.045 0 1.023-.503 1.023-.503 2.045 0 1.024 1.322 1.024 1.322 2.046 0 1.022-1.314 1.022-1.314 2.045 0 1.022 1.343 1.022 1.343 2.044 0 1.023-.705 1.023-.705 2.046s.588 1.023.588 2.046-.322 1.023-.322 2.045c0 1.023-.831 1.023-.831 2.045 0 1.024 1.273 1.024 1.273 2.047 0 1.023-1.242 1.023-1.242 2.046s.048 1.023.048 2.046-.178 1.023-.178 2.045c0 1.024.545 1.024.545 2.047 0 1.023.421 1.023.421 2.046s.277 1.023.277 2.047c0 1.022-1.023 1.022-1.023 2.046 0 1.022.956 1.022.956 2.045s-.273 1.023-.273 2.045S.685 92.57.685 93.59c0 1.023.34 1.023.34 2.045 0 1.023-.508 1.023-.508 2.048 0 1.022.516 1.022.516 2.045 0 1.022-1.033 1.022-1.033 2.047 0 1.022.54 1.022.54 2.045 0 1.025-.105 1.025-.105 2.048 0 1.024.192 1.024.192 2.047 0 1.024.719 1.024.719 2.048S.08 110.988.08 112.012c0 1.025 1.306 1.025 1.306 2.05 0 1.023-1.088 1.023-1.088 2.045 0 1.024.025 1.024.025 2.049 0 1.024.197 1.024.197 2.048 0 1.025.152 1.025.152 2.05 0 1.026.554 1.026.554 2.052 0 1.027-.343 1.027-.343 2.053h.249c-.001 1.027-.653 1.027-.653 2.054 0 1.028.334 1.028.334 2.055 0 1.03-.114 1.03-.114 2.058 0 1.03.169 1.029.17 2.058H.025c0 1.017.743 1.017.743 2.033 0 1.018-.75 1.018-.75 2.035 0 1.017.24 1.017.24 2.035 0 1.017.699 1.017.699 2.035 0 1.018-.42 1.018-.42 2.036 0 1.02.428 1.02.428 2.038 0 1.019.282 1.019.282 2.037s-.73 1.018-.73 2.037c0 1.017.285 1.017.285 2.035 0 1.017-.193 1.017-.193 2.035 0 1.018-.31 1.018-.31 2.035 0 1.018-.11 1.018-.11 2.036 0 1.019 1.1 1.019 1.1 2.037 0 1.02-1.162 1.02-1.162 2.038 0 1.019.34 1.019.34 2.038 0 1.017-.4 1.017-.4 2.036 0 1.017.5 1.017.5 2.036 0 1.018.133 1.018.133 2.036 0 1.02.13 1.02.13 2.039 0 1.019.152 1.019.152 2.038 0 1.018-.449 1.018-.449 2.036 0 1.02-.524 1.02-.524 2.037 0 1.019.379 1.019.379 2.038 0 1.02-.13 1.02-.13 2.04 0 1.018.31 1.018.31 2.037 0 1.018.515 1.018.515 2.037s-.734 1.019-.734 2.038-.077 1.019-.077 2.039c0 1.02.798 1.02.798 2.038 0 1.019-.517 1.019-.517 2.038 0 1.02.183 1.02.183 2.039 0 1.02-.646 1.02-.646 2.038 0 1.02 1.273 1.02 1.273 2.038 0 1.02-.666 1.02-.666 2.039 0 1.02.093 1.02.093 2.039 0 1.018-.08 1.018-.08 2.037 0 1.018-.376 1.018-.376 2.035 0 1.018.648 1.018.648 2.038 0 1.019-.456 1.019-.456 2.039 0 1.018.741 1.018.741 2.036 0 1.021-.87 1.021-.87 2.04 0 1.02.314 1.02.314 2.038 0 1.02-.566 1.02-.566 2.04s.988 1.02.988 2.04-.69 1.02-.69 2.04.686 1.02.686 2.04c0 1.022-.791 1.022-.791 2.042 0 1.019.538 1.019.538 2.038 0 1.02.199 1.02.199 2.04 0 1.022-.806 1.022-.806 2.042 0 1.021-.106 1.021-.106 2.042 0 1.023 1.233 1.023 1.233 2.045 0 1.023-.708 1.023-.708 2.045 0 .696-.539 1.433-.483 2.114.056.692 1.255 1.242 1.367 1.917.114.685.291 1.304.46 1.969.17.672-.848 1.698-.625 2.347.225.655 1.337.982 1.613 1.61.279.634.401 1.329.73 1.933.329.608.31 1.44.687 2.016.379.577 1.226.833 1.65 1.376.424.544.902 1.026 1.369 1.533.467.506.571 1.389 1.079 1.856.507.466 1.069.915 1.613 1.339.543.422 1.343.509 1.921.887.576.377 1.46.18 2.068.51.605.327.976 1.055 1.609 1.333.63.277 1.221.626 1.876.85.65.223 1.38.117 2.051.287.665.168 1.249.66 1.933.774.676.112 1.298.927 1.99.984.683.055 1.429-.2 2.125-.2 1.02 0 1.02-1.054 2.038-1.054 1.019 0 1.019.584 2.038.584 1.021 0 1.021.166 2.041.166s1.02-.521 2.041-.521c1.02 0 1.02 1.059 2.041 1.059 1.02 0 1.02-.33 2.04-.33 1.019 0 1.019-.487 2.038-.487 1.02 0 1.02-.074 2.04-.074 1.019 0 1.019-.312 2.039-.312 1.02 0 1.02.447 2.039.447 1.02 0 1.02.162 2.041.162s1.021.244 2.042.244c1.02 0 1.02-.29 2.04-.29s1.02.076 2.04.076 1.02.483 2.04.483 1.02-.484 2.04-.484c1.021 0 1.021-.17 2.042-.17 1.02 0 1.02-.34 2.042-.34 1.02 0 1.02.45 2.04.45s1.02.554 2.04.554c1.021 0 1.021-.08 2.041-.08 1.022 0 1.022-.165 2.043-.165 1.021 0 1.021-.157 2.042-.157 1.02 0 1.02-.56 2.04-.56 1.021 0 1.021-.114 2.042-.114s1.021 1 2.043 1c1.02 0 1.02-.567 2.041-.567 1.02 0 1.02.724 2.042.724 1.02 0 1.02-.516 2.042-.516 1.021 0 1.021-.177 2.042-.177s1.021.359 2.043.359c1.021 0 1.021.255 2.042.255 1.02 0 1.02-.031 2.041-.031 1.02 0 1.02-.76 2.042-.76 1.019 0 1.019-.258 2.039-.258 1.02 0 1.02 1.11 2.04 1.11 1.022 0 1.022-.066 2.043-.066 1.02 0 1.02-.506 2.041-.506 1.02 0 1.02.47 2.043.47 1.02 0 1.02-1.066 2.041-1.066 1.023 0 1.023.442 2.045.442 1.021 0 1.021.158 2.042.158 1.022 0 1.022.532 2.044.532s1.022-.692 2.044-.692 1.022.445 2.045.445c1.021 0 1.021-.807 2.042-.807 1.023 0 1.023 1.14 2.045 1.14s1.022-.8 2.045-.8c1.022 0 1.022.428 2.045.428 1.024 0 1.024-.922 2.048-.922s1.024.435 2.049.437c.001 0-.003.815-.001.815 1.027.001 1.028-.458 2.056-.458 1.027 0 1.027.372 2.054.372 1.03 0 1.03-.769 2.059-.769 1.03 0 .955.167 1.928-.168.335-.116-.376-.706-.04-.823.962-.336 1.19-.137 2.209-.137 1.02 0 1.02 1.222 2.038 1.222 1.02 0 1.02-.828 2.041-.828 1.02 0 1.02.356 2.042.356 1.02 0 1.02-.614 2.04-.614s1.02.027 2.04.027 1.02.637 2.039.637c1.02 0 1.02-.501 2.04-.501 1.018 0 1.018.704 2.038.704 1.02 0 1.02-.612 2.04-.612 1.021 0 1.021.848 2.042.848 1.02 0 1.02-.447 2.041-.447 1.02 0 1.02.48 2.041.48 1.02 0 1.02-.747 2.04-.747s1.02-.516 2.04-.516 1.02-.026 2.04-.026c1.021 0 1.021.06 2.042.06 1.02 0 1.02 1.18 2.042 1.18 1.02 0 1.02-.31 2.04-.31s1.02-.307 2.041-.307c1.02 0 1.02-.34 2.041-.34 1.022 0 1.022-.14 2.043-.14 1.021 0 1.021.976 2.042.976 1.02 0 1.02-.932 2.04-.932 1.022 0 1.022 1.053 2.043 1.053 1.021 0 1.021-.014 2.042-.014s1.021-1.044 2.042-1.044c1.02 0 1.02 1.003 2.041 1.003 1.022 0 1.022-.915 2.043-.915 1.021 0 1.021-.278 2.042-.278 1.022 0 1.022.621 2.043.621 1.02 0 1.02-.64 2.042-.64 1.02 0 1.02.525 2.042.525 1.02 0 1.02-.125 2.041-.125 1.02 0 1.02-.02 2.04-.02s1.02.947 2.04.947c1.021 0 1.021-.538 2.043-.538 1.02 0 1.02-.1 2.041-.1 1.022 0 1.022-.62 2.043-.62 1.022 0 1.022 1.082 2.042 1.082 1.022 0 1.022-1.158 2.044-1.158s1.022.086 2.043.086c1.022 0 1.022.07 2.044.07s1.022.198 2.045.198c1.022 0 1.022.25 2.044.25s1.022-.561 2.043-.561c1.022 0 1.022.488 2.044.488s1.022-.078 2.045-.078 1.023.454 2.046.454c1.024 0 1.024.114 2.048.114 1.025 0 1.025-.384 2.049-.384.696 0 1.331-.645 2.013-.7.693-.058 1.415.416 2.09.304.685-.113 1.547.518 2.211.35.673-.17 1.358-.473 2.007-.696.655-.225 1.237-.738 1.866-1.014.634-.279 1.06-.996 1.665-1.323.607-.33 1.09-.832 1.666-1.21a24.756 24.756 0 0 0 1.66-1.19c.545-.424 1.574-.286 2.082-.753.506-.468.55-1.417 1.017-1.924.466-.507 1.192-.796 1.617-1.34.423-.544.976-1.024 1.355-1.602.377-.576-.145-1.677.184-2.284.328-.604 1.017-.995 1.295-1.628.276-.63.743-1.18.968-1.834.222-.65-.223-1.475-.054-2.147.168-.665 1.075-1.16 1.189-1.844.111-.675-.577-1.436-.52-2.128.056-.682 1.11-1.32 1.11-2.016 0-1.017-.568-1.017-.568-2.034s.631-1.017.631-2.034-.943-1.017-.943-2.035c0-1.017.868-1.017.868-2.035 0-1.018-1.092-1.018-1.092-2.037s.203-1.019.203-2.038c0-1.018.854-1.018.854-2.036 0-1.019-.181-1.019-.181-2.036 0-1.018-.382-1.018-.382-2.036 0-1.017-.03-1.017-.03-2.035 0-1.017.4-1.017.4-2.035 0-1.018.494-1.018.494-2.036 0-1.02-1.09-1.02-1.09-2.038 0-1.02.9-1.02.9-2.038 0-1.018-.272-1.018-.272-2.036 0-1.019.47-1.019.47-2.037s-.266-1.018-.266-2.036.206-1.018.206-2.037c0-1.018.038-1.018.038-2.038 0-1.019-1.309-1.019-1.309-2.038s.614-1.019.614-2.037.464-1.018.464-2.036c0-1.02-.924-1.02-.924-2.038 0-1.02 1.107-1.02 1.107-2.038 0-1.02-.234-1.02-.234-2.039 0-1.018.31-1.018.31-2.037s-1.194-1.019-1.194-2.038c0-1.02.933-1.02.933-2.039 0-1.018-.72-1.018-.72-2.037 0-1.02.295-1.02.295-2.038 0-1.02-.565-1.02-.565-2.04 0-1.019 1.089-1.019 1.089-2.038 0-1.02-.337-1.02-.337-2.039 0-1.02-.792-1.02-.792-2.038 0-1.019 1.25-1.019 1.25-2.038s-1.187-1.019-1.187-2.038c0-1.017.514-1.017.514-2.035 0-1.019.208-1.019.208-2.037 0-1.02.265-1.02.265-2.04 0-1.017.063-1.017.063-2.037s-1.016-1.02-1.016-2.04c0-1.018.693-1.018.693-2.037 0-1.02-.866-1.02-.866-2.04s.681-1.02.681-2.04.415-1.02.415-2.04-.569-1.02-.569-2.04c0-1.021.863-1.021.863-2.041s-.863-1.02-.863-2.039c0-1.02.13-1.02.13-2.04 0-1.021.568-1.021.568-2.042 0-1.02-.31-1.02-.31-2.041 0-1.023-.898-1.023-.898-2.045 0-1.023.393-1.047.496-2.064.01-.104.393.02.393.018" fill="#DAE0EC" mask="url(#b)"/></g><mask id="d" fill="#fff"><use xlink:href="#c"/></mask><path d="M256.635 3.084L165.319 53.13l-.34.188a7.836 7.836 0 0 0-3.106 10.638l.186.34 11.164 20.372c1.678 3.06 4.757 4.95 8.242 5.05 3.506.102 6.717-1.618 8.59-4.606a23.718 23.718 0 0 1 8.722-8.218c5.729-3.14 12.311-3.792 18.545-1.843 6.23 1.953 11.274 6.256 14.198 12.117 5.478 10.986 1.542 24.573-8.954 30.934a23.742 23.742 0 0 1-12.61 3.455c-3.473-.04-6.622 1.72-8.413 4.711-1.809 3.007-1.882 6.639-.196 9.714l16.967 30.96.186.34a7.837 7.837 0 0 0 10.64 3.106l.34-.187 30.959-16.967c.67-.367 1.246-.133 1.53.032.273.166.73.546.716 1.27-.073 5.941 1.535 11.807 4.645 16.957 8.56 14.14 26.852 19.438 41.642 12.062a43.5 43.5 0 0 0 1.14-.598c7.3-4.001 12.655-10.526 15.152-18.5 2.625-8.387 1.747-17.251-2.478-24.958a31.985 31.985 0 0 0-11.065-11.743 1.525 1.525 0 0 1-.748-1.38c.006-.317.12-.903.78-1.264l23.772-13.028.34-.187a7.837 7.837 0 0 0 3.107-10.639l-.187-.34-48.182-87.915c-6.641-12.12-21.85-16.559-33.968-9.918" fill="#2EA2FF" mask="url(#d)"/><path d="M263.686 173.697a4.259 4.259 0 1 1 7.287-4.41c3.59 5.931 9.273 10.226 15.909 12.18a4.259 4.259 0 1 1-2.406 8.17c-8.648-2.545-16.083-8.165-20.79-15.94z" fill="#252B3A" fill-rule="nonzero" mask="url(#d)"/><path d="M258.448 157.535a4.259 4.259 0 1 1 8.443-1.126c.578 4.34 2.301 9.928 4.084 12.88a4.259 4.259 0 1 1-7.29 4.405c-2.457-4.067-4.515-10.745-5.237-16.16zm-62.82-23.939a4.259 4.259 0 0 1 7.48-4.076l20.41 37.447a4.259 4.259 0 1 1-7.48 4.076l-20.41-37.447zm-39.005-70.358a4.259 4.259 0 0 1 7.47-4.093l14.567 26.579a4.259 4.259 0 0 1-7.47 4.093l-14.567-26.579z" fill="#252B3A" fill-rule="nonzero" mask="url(#d)"/></g></svg>