<svg width="340" height="340" xmlns="http://www.w3.org/2000/svg" xmlns:xlink="http://www.w3.org/1999/xlink"><defs><path id="a" d="M.455.455H126V126H.455z"/></defs><g fill="none" fill-rule="evenodd"><path d="M24.51 33.811c-.645 0-1.26.318-1.882.4-.637.083-1.415-.445-2.024-.282-.618.165-1.319.312-1.902.554-.589.245-.82 1.272-1.368 1.59-.552.32-1.078.632-1.58 1.018a14.06 14.06 0 0 0-1.42 1.236c-.45.45-1.335.542-1.723 1.046-.387.502.17 1.625-.15 2.175-.318.548-1.743.551-1.989 1.141-.242.583.294 1.47.13 2.087-.164.608-.409 1.194-.493 1.831-.08.622.437 1.251.437 1.895 0 .953-.455.953-.455 1.905 0 .952-.127.952-.127 1.904s.223.952.223 1.903c0 .952-.593.952-.593 1.904s.256.952.256 1.903c0 .951.277.951.277 1.903 0 .951-.82.951-.82 1.903 0 .952.391.952.391 1.903 0 .951.19.951.19 1.903 0 .951.431.951.431 1.904 0 .952-.604.952-.604 1.903 0 .953.063.953.063 1.905 0 .951-.262.951-.262 1.903 0 .953.32.953.32 1.904 0 .952.248.952.248 1.903 0 .952-.06.952-.06 1.903 0 .953-.18.953-.18 1.904 0 .952.687.952.687 1.903 0 .952-.195.952-.195 1.904 0 .953-.98.953-.98 1.905 0 .952.486.952.486 1.904s.433.952.433 1.903c0 .952-.214.952-.214 1.904s-.708.952-.708 1.903c0 .951.457.951.457 1.901 0 .95-.069.95-.069 1.9s.81.95.81 1.9-1.098.95-1.098 1.901c0 .95.752.95.752 1.9 0 .951-.44.951-.44 1.901 0 .951.28.951.28 1.903 0 .951-.697.951-.697 1.903 0 .952.984.952.984 1.904s-.14.952-.14 1.905c0 .951.123.951.123 1.903 0 .951-.29.951-.29 1.902s-.593.951-.593 1.902.528.951.528 1.902c0 .95-.384.95-.384 1.901 0 .951-.075.951-.075 1.903 0 .951-.127.951-.127 1.902 0 .952.734.952.734 1.904s.345.952.345 1.906c0 .952-.568.952-.568 1.904s-.329.952-.329 1.903c0 .952.577.952.577 1.903 0 .952-.064.952-.064 1.903 0 .951.511.951.511 1.903 0 .952-.125.952-.125 1.903 0 .954-.453.954-.453 1.906 0 .953.228.953.228 1.905 0 .952-.642.952-.642 1.904s.205.952.205 1.904-.205.952-.205 1.904-.102.952-.102 1.904.793.952.793 1.905c0 .954.14.954.14 1.906s-.56.952-.56 1.904-.117.952-.117 1.904.726.952.726 1.906c0 .953-1.169.953-1.169 1.906 0 .952.937.952.937 1.905 0 .952-.449.952-.449 1.904 0 .954-.137.954-.137 1.906 0 .953.908.953.908 1.906s-.094.953-.094 1.905c0 .953.022.953.022 1.906s-.599.953-.599 1.906-.448.953-.448 1.906.606.953.606 1.906-.76.953-.76 1.906 1.13.953 1.13 1.905c0 .953-.4.953-.4 1.905 0 .951-.408.951-.408 1.903 0 .953.507.953.507 1.905 0 .953-.217.953-.217 1.906 0 .952.347.952.347 1.905 0 .953-.309.953-.309 1.906 0 .954.486.954.486 1.907 0 .953-.636.953-.636 1.907 0 .953.821.953.821 1.906s-.244.953-.244 1.907c0 .955-.392.955-.392 1.91 0 .953.187.953.187 1.907 0 .953.202.953.202 1.905 0 .954-.15.954-.15 1.908s-.404.954-.404 1.91c0 .954.243.954.243 1.908 0 .956.515.956.515 1.912s-.899.956-.899 1.912c0 .644.55 1.25.632 1.872.083.637.33 1.196.493 1.805.166.618.497 1.116.74 1.7.245.59-.057 1.42.261 1.967.32.551 1.065.8 1.451 1.302.388.504.38 1.345.83 1.794.45.45.913.931 1.418 1.32.502.385 1.007.847 1.558 1.167.548.317 1.142.668 1.731.913.583.242 1.317.166 1.935.332.608.163 1.21.57 1.845.653.623.082 1.307-.083 1.952-.083.987 0 .987-.3 1.974-.3.986 0 .986.494 1.973.494.986 0 .986-.455 1.972-.455.987 0 .987-.165 1.974-.165.986 0 .986-.042 1.973-.042.988 0 .988.751 1.975.751.99 0 .99-.59 1.977-.59.99 0 1.342-.632 2.05.06.691.676-.337 1.04-.337 2.006 0 .968.911.968.911 1.934 0 .968-1.109.968-1.109 1.936s1.117.968 1.117 1.936c0 .966-.445.966-.445 1.934s-.07.968-.07 1.935c0 .968.418.968.418 1.936s-1.114.968-1.114 1.935c0 .97.056.97.056 1.936 0 .968.357.968.357 1.936s-.407.968-.407 1.935c0 .967.668.967.668 1.935 0 .966.443.966.443 1.933 0 .966-.185.966-.185 1.933 0 .97-.852.97-.852 1.937 0 .966 1.034.966 1.034 1.933 0 .97-.274.97-.274 1.937 0 .968.372.968.372 1.935 0 .97-.786.97-.786 1.937 0 .968-.448.968-.448 1.936s.443.968.443 1.937c0 .97.11.97.11 1.937 0 .97-.568.97-.568 1.938s.197.968.197 1.935c0 .97.246.97.246 1.938 0 .97-.327.97-.327 1.938 0 .97.037.97.037 1.94s.14.97.14 1.94c0 .971-.323.968.561 1.37.86.39.12-.384.788-1.05.668-.67.864-.473 1.532-1.14.67-.67.968-.37 1.636-1.038.668-.668.021-1.315.688-1.983.668-.668 1.523.187 2.191-.48.667-.668.6-.736 1.267-1.403.668-.668.235-1.102.903-1.77.668-.668 1.004-.332 1.672-1 .67-.668.087-1.25.755-1.919.668-.667.69-.645 1.358-1.313.668-.667 1.372.037 2.04-.63.668-.669.458-.879 1.126-1.547.67-.669.878-.46 1.547-1.128.668-.669-.175-1.51.493-2.18.668-.668 1.31-.026 1.977-.694.668-.669.253-1.084.921-1.752.667-.666.916-.417 1.582-1.083.667-.667.65-.685 1.316-1.352.667-.667.622-.713 1.29-1.38.668-.669.85-.49 1.517-1.158.668-.668.061-1.274.728-1.942.668-.667 1.367.033 2.035-.634.667-.668.843-.492 1.51-1.159.67-.669-.18-1.518.488-2.187.668-.668 1.398.062 2.067-.607.667-.668.635-.7 1.303-1.368.668-.668.714-.623 1.381-1.29.67-.67-.033-1.373.636-2.042.668-.668 1.052-.284 1.721-.952.67-.67.371-.968 1.04-1.637.668-.669.887-.45 1.556-1.119.67-.669.422-.916 1.091-1.585.67-.669 1.254-.085 1.923-.754.67-.669.522-.816 1.191-1.486.67-.669.322-1.016.991-1.686.668-.668 1.316-.02 1.984-.688.67-.67-.08-1.419.588-2.088.67-.67 1.368.028 2.038-.642.67-.67.41-.929 1.08-1.599.67-.67 1.047-.293 1.718-.963.671-.67-.008-1.35.664-2.02.671-.673.645-.85 1.522-1.214.88-.364.986.504 1.937.504.952 0 .952.164 1.903.164.952 0 .952-.665 1.903-.665.951 0 .951-.342 1.903-.342.952 0 .952.227 1.904.227s.952.307 1.904.307.952-.665 1.904-.665.952.462 1.903.462c.952 0 .952.33 1.903.33.952 0 .952-.843 1.903-.843.952 0 .952 1.072 1.903 1.072.952 0 .952-.125 1.903-.125.951 0 .951.118 1.903.118.952 0 .952-1.103 1.903-1.103.952 0 .952.468 1.904.468s.952.57 1.904.57c.953 0 .953.048 1.904.048.952 0 .952-.986 1.904-.986.951 0 .951.836 1.903.836.952 0 .952-.205 1.903-.205.951 0 .951-.154 1.903-.154.952 0 .952.051 1.903.051.953 0 .953-.374 1.904-.374.952 0 .952.285 1.904.285.953 0 .953-.546 1.905-.546.951 0 .951.004 1.904.004.951 0 .951.3 1.903.3.952 0 .952.003 1.903.003.95 0 .95.316 1.901.316.95 0 .95.167 1.9.167s.95.41 1.9.41.95.014 1.9.014.95-.784 1.9-.784c.951 0 .951-.014 1.902-.014.95 0 .95-.15 1.901-.15.952 0 .952.795 1.904.795s.952.02 1.904.02.952-.989 1.904-.989.952.242 1.904.242c.951 0 .951-.235 1.902-.235s.951 1.071 1.901 1.071c.952 0 .952-1.168 1.902-1.168.951 0 .951.924 1.902.924s.951.13 1.901.13c.952 0 .952-.49 1.903-.49.952 0 .952.482 1.904.482.953 0 .953-.313 1.906-.313.952 0 .952.072 1.904.072s.952-.607 1.903-.607c.952 0 .952.843 1.903.843.951 0 .951-.267 1.903-.267.951 0 .951.197 1.902.197.953 0 .953-.047 1.904-.047.953 0 .953-.554 1.906-.554.952 0 .952.476 1.905.476.951 0 .951-.378 1.904-.378.951 0 .951-.062 1.903-.062.952 0 .952.603 1.904.603s.952.213 1.904.213c.953 0 .953.057 1.906.057.952 0 .952-.353 1.905-.353.952 0 .952-.243 1.904-.243s.952.217 1.904.217c.953 0 .953.161 1.905.161.953 0 .953-.515 1.906-.515s.953-.017 1.906-.017c.952 0 .952-.21 1.904-.21.953 0 .953.893 1.906.893s.953-.805 1.905-.805c.953 0 .953-.236 1.906-.236.952 0 .952 1.043 1.905 1.043.953 0 .953-1.19 1.906-1.19s.953.596 1.906.596.953.632 1.906.632.953-.327 1.906-.327.953-.03 1.905-.03c.952 0 .952-.632 1.904-.632s.952 1.031 1.904 1.031.952-.974 1.904-.974c.954 0 .954.921 1.907.921.952 0 .952-.77 1.904-.77.954 0 .954-.247 1.907-.247.953 0 .953-.089 1.906-.089s.953-.135 1.907-.135c.953 0 .953.953 1.906.953.954 0 .954-.829 1.907-.829.954 0 .954.765 1.91.765.953 0 .953-.856 1.907-.856.952 0 .952.81 1.905.81.954 0 .954-.162 1.908-.162s.954.402 1.908.402c.955 0 .955-.223 1.91-.223s.955-.023 1.911-.023c.956 0 .956-.814 1.912-.814.644 0 1.31.824 1.933.743.637-.084 1.176-.649 1.784-.812.618-.165 1.147-.478 1.73-.72.59-.245 1.36-.097 1.906-.415.552-.319 1.048-.747 1.55-1.134.505-.387.6-1.203 1.05-1.652.448-.449 1.472-.383 1.86-.887.387-.503.475-1.235.795-1.786.317-.548.486-1.164.731-1.754.242-.583 1.098-.993 1.263-1.61.163-.609-.85-1.455-.768-2.092.082-.622.226-1.178.226-1.82 0-.953 1.111-.953 1.111-1.905 0-.953-.233-.953-.233-1.905 0-.952-.527-.952-.527-1.904 0-.95.18-.95.18-1.903 0-.95.307-.95.307-1.903 0-.952-.223-.952-.223-1.903 0-.95-.473-.95-.473-1.902s-.209-.952-.209-1.904c0-.95.231-.95.231-1.903 0-.95.042-.95.042-1.903 0-.952.683-.952.683-1.905 0-.952.06-.952.06-1.904s-.625-.952-.625-1.903c0-.952-.3-.952-.3-1.904s.75-.952.75-1.904c0-.95-.356-.95-.356-1.902s.102-.952.102-1.903c0-.953-.053-.953-.053-1.904 0-.952-.154-.952-.154-1.904s.491-.952.491-1.904c0-.953-.37-.953-.37-1.905 0-.952.561-.952.561-1.903 0-.952-.88-.952-.88-1.904 0-.95-.048-.95-.048-1.904 0-.95-.147-.95-.147-1.9s.77-.95.77-1.9.143-.95.143-1.9-.694-.95-.694-1.9.348-.95.348-1.9c0-.952.005-.952.005-1.902s-.139-.95-.139-1.902c0-.95.272-.95.272-1.904 0-.952-.085-.952-.085-1.904s-.612-.952-.612-1.904 1.104-.952 1.104-1.904c0-.95-.285-.95-.285-1.902 0-.95.217-.95.217-1.902 0-.95-.566-.95-.566-1.902 0-.95.423-.95.423-1.9 0-.952-.797-.952-.797-1.903 0-.95 1.045-.95 1.045-1.903 0-.952-1.183-.952-1.183-1.904 0-.953 1.12-.953 1.12-1.905 0-.952-.2-.952-.2-1.905 0-.952-.665-.952-.665-1.904 0-.95.307-.95.307-1.902 0-.95-.06-.95-.06-1.903 0-.952.132-.952.132-1.903 0-.952.038-.952.038-1.904s-.474-.952-.474-1.904c0-.954.615-.954.615-1.906s-.095-.952-.095-1.904.563-.952.563-1.904c0-.95-.229-.95-.229-1.904 0-.952.085-.952.085-1.904 0-.953-.933-.953-.933-1.905 0-.953.686-.953.686-1.905 0-.953-.62-.953-.62-1.905 0-.952.57-.952.57-1.904 0-.953.098-.953.098-1.905 0-.953-.4-.953-.4-1.907 0-.953.2-.953.2-1.905 0-.952-.045-.952-.045-1.904 0-.953-.34-.953-.34-1.906s.21-.953.21-1.906-.465-.953-.465-1.905c0-.953.397-.953.397-1.906s-.398-.953-.398-1.906.912-.953.912-1.906-.465-.953-.465-1.906-.434-.953-.434-1.906c0-.952 1.041-.952 1.041-1.905 0-.953-1.104-.953-1.104-1.905 0-.952.411-.952.411-1.903 0-.952.436-.952.436-1.904 0-.954-.445-.954-.445-1.908 0-.952-.143-.952-.143-1.904 0-.953.821-.953.821-1.906s.047-.953.047-1.906c0-.954-.413-.954-.413-1.908 0-.953-.225-.953-.225-1.906 0-.954-.369-.954-.369-1.907 0-.954-.172-.954-.172-1.908s1.126-.954 1.126-1.909c0-.953-.058-.953-.058-1.906 0-.954-.112-.954-.112-1.908s-.82-.954-.82-1.908.62-.954.62-1.908c0-.956-.295-.956-.295-1.912 0-.957-.083-.957-.083-1.913 0-.644.303-1.292.222-1.915-.084-.636.09-1.353-.074-1.962-.166-.618-.164-1.364-.407-1.947-.245-.59-1.534-.676-1.852-1.222-.319-.552.047-1.559-.34-2.06-.387-.506-1.577-.287-2.026-.736-.449-.45-.266-1.594-.77-1.982-.503-.386-1.526.025-2.078-.295-.547-.317-.94-.829-1.53-1.074-.584-.242-.986-1.049-1.604-1.215-.608-.163-1.353.29-1.99.205-.623-.08-1.226-.675-1.87-.675-.957 0-.957-.075-1.915-.075-.957 0-.957.097-1.914.097-.956 0-.956.227-1.913.227-.957 0-.957-.595-1.914-.595-.956 0-.956.387-1.914.387-.956 0-.956.002-1.913.002-.956 0-.956-.322-1.913-.322-.957 0-.957.734-1.913.734-.957 0-.957-.255-1.914-.255-.956 0-.956.222-1.913.222-.957 0-.957-.374-1.914-.374s-.957.45-1.914.45-.957-.5-1.914-.5-.957.605-1.915.605c-.957 0-.957-.832-1.915-.832-.958 0-.958.85-1.915.85-.958 0-.958-.93-1.916-.93-.957 0-.957 1.035-1.915 1.035-.957 0-.957-.993-1.914-.993-.958 0-.958.108-1.915.108-.957 0-.957.786-1.914.786s-.957-.363-1.914-.363-.957.248-1.914.248-.957.21-1.914.21-.957-.539-1.913-.539c-.957 0-.957.307-1.914.307-.958 0-.958-.057-1.915-.057-.957 0-.957-.4-1.914-.4-.958 0-.958.112-1.915.112-.958 0-.958-.458-1.916-.458s-.958.477-1.916.477c-.957 0-.957.187-1.915.187-.958 0-.958.066-1.916.066-.957 0-.957-.5-1.914-.5s-.957.78-1.915.78c-.957 0-.957.054-1.914.054s-.957.197-1.914.197-.957-1.299-1.914-1.299c-.958 0-.958 1.052-1.915 1.052-.957 0-.957.194-1.914.194-.958 0-.958-1.239-1.916-1.239-.957 0-.957.68-1.915.68-.958 0-.958-.405-1.916-.405s-.958.593-1.916.593-.958-.514-1.915-.514c-.958 0-.958-.058-1.915-.058-.958 0-.958.161-1.915.161-.957 0-.957.73-1.914.73-.958 0-.958-.753-1.915-.753-.958 0-.958.116-1.915.116-.958 0-.958.482-1.915.482-.958 0-.958-.295-1.916-.295s-.958.27-1.916.27-.958-.18-1.916-.18c-.957 0-.957.256-1.915.256-.958 0-.958-.874-1.915-.874-.958 0-.958.27-1.915.27-.957 0-.957-.228-1.915-.228-.958 0-.958.596-1.916.596-.957 0-.957-.032-1.915-.032-.958 0-.958.181-1.916.181s-.958-.195-1.916-.195-.958.07-1.916.07-.958-.769-1.915-.769c-.958 0-.958.062-1.915.062-.956 0-.956.912-1.912.912s-.956-.909-1.912-.909-.956.134-1.912.134-.956.326-1.912.326-.956-.48-1.913-.48c-.956 0-.956.574-1.913.574-.956 0-.956.53-1.913.53-.958 0-.958-1.188-1.915-1.188-.958 0-.958 1.011-1.917 1.011-.958 0-.958.068-1.916.068-.957 0-.957-.15-1.915-.15-.957 0-.957-.56-1.914-.56s-.957-.02-1.914-.02c-.956 0-.956-.36-1.913-.36-.957 0-.957 1.182-1.913 1.182-.957 0-.957-.85-1.914-.85-.958 0-.958.611-1.915.611-.958 0-.958.307-1.916.307s-.958-.293-1.917-.293c-.958 0-.958-.649-1.916-.649s-.958.816-1.915.816c-.957 0-.957-.676-1.915-.676-.957 0-.957.418-1.915.418-.957 0-.957-.686-1.914-.686-.958 0-.958.236-1.916.236s-.958.17-1.917.17c-.958 0-.958.652-1.917.652-.958 0-.958-.856-1.916-.856s-.958.848-1.915.848c-.958 0-.958-.793-1.916-.793s-.958.25-1.916.25-.958.271-1.917.271c-.959 0-.959-.708-1.917-.708-.958 0-.958.61-1.916.61s-.958.06-1.916.06c-.959 0-.959-.705-1.917-.705-.959 0-.959.626-1.918.626s-.959-.304-1.917-.304c-.958 0-.958-.104-1.917-.104-.958 0-.958.222-1.917.222-.959 0-.959-.387-1.918-.387-.958 0-.958.816-1.917.816-.959 0-.959-.905-1.917-.905-.959 0-.959-.173-1.918-.173s-.959.34-1.918.34-.959.67-1.918.67c-.958 0-.958.162-1.917.162-.959 0-.959-.947-1.917-.947-.958 0-.958.382-1.917.382-.957 0-.957.53-1.915.53-.958 0-.958.117-1.916.117-.96 0-.96-.879-1.918-.879-.959 0-.959-.287-1.917-.287-.959 0-.959.807-1.918.807s-.959-.818-1.918-.818c-.96 0-.96.806-1.919.806-.959 0-.959.347-1.918.347-.96 0-.96-.988-1.92-.988s-.96.79-1.92.79-.96.033-1.92.033c-.958 0-.958-.109-1.917-.109-.96 0-.96.204-1.92.204s-.96-.545-1.92-.545-.96-.436-1.92-.436c-.963 0-.976.747-1.937.705-.964-.04-.949-.41-1.91-.41m12.958 269.981c-.83 0-1.727.105-2.528-.227-.596-.247-.753-1.118-1.235-1.513-.493-.403-.743-.81-1.093-1.335-.35-.523-1.33-.7-1.515-1.309-.179-.596-.25-1.286-.25-1.93 0-.96.01-.96.01-1.919 0-.959.604-.959.604-1.918s-1.089-.959-1.089-1.918 1.28-.959 1.28-1.918-.796-.959-.796-1.918.126-.959.126-1.918-.56-.959-.56-1.918c0-.96.455-.96.455-1.919 0-.959.127-.959.127-1.918s-.224-.959-.224-1.918.593-.959.593-1.917c0-.958-.255-.958-.255-1.916s-.277-.958-.277-1.917c0-.959.82-.959.82-1.919 0-.958-.39-.958-.39-1.917 0-.959-.19-.959-.19-1.919 0-.959-.432-.959-.432-1.918s.604-.959.604-1.919c0-.959-.063-.959-.063-1.919 0-.96.261-.96.261-1.92s-.318-.96-.318-1.92-.249-.96-.249-1.92.06-.96.06-1.919c0-.96.18-.96.18-1.92s-.688-.96-.688-1.92c0-.962.196-.962.196-1.923 0-.962.981-.962.981-1.924 0-.963.198-1.362-.522-2-.81-.719-1.152.407-2.236.407-1.087 0-1.087-.213-2.173-.213-1.087 0-1.087-.708-2.173-.708-.63 0-1.243.432-1.86.384-.628-.049-1.227-.189-1.839-.286-.62-.097-1.406.571-2.01.425-.61-.146-.918-1.372-1.509-1.564-.596-.195-1.433.296-2.008.057-.578-.24-.963-.903-1.518-1.186-.557-.285-1.235-.346-1.766-.673-.532-.327-.648-1.242-1.152-1.609-.505-.369-1.598.021-2.072-.385-.474-.405-.856-.949-1.297-1.39-.442-.442-.973-.835-1.379-1.309-.405-.474-.575-1.159-.943-1.664-.367-.503-.213-1.338-.54-1.87-.327-.53-1.084-.8-1.369-1.357-.283-.555-.192-1.27-.432-1.848-.239-.574-.375-1.156-.569-1.752-.192-.59-.228-1.187-.375-1.798-.145-.603-.983-1.056-1.08-1.677-.098-.613-.516-1.219-.565-1.846-.049-.617.493-1.28.493-1.91 0-.952.33-.952.33-1.904 0-.953-.577-.953-.577-1.905 0-.952.064-.952.064-1.904 0-.95-.51-.95-.51-1.903 0-.95.123-.95.123-1.903 0-.952.453-.952.453-1.903 0-.95-.227-.95-.227-1.902s.642-.952.642-1.904c0-.95-.205-.95-.205-1.903 0-.95.204-.95.204-1.903 0-.952.102-.952.102-1.905 0-.952-.792-.952-.792-1.904s-.14-.952-.14-1.903c0-.952.561-.952.561-1.904s.116-.952.116-1.904c0-.95-.727-.95-.727-1.902s1.17-.952 1.17-1.903c0-.953-.937-.953-.937-1.904 0-.952.448-.952.448-1.904s.138-.952.138-1.904c0-.953-.909-.953-.909-1.905 0-.952.094-.952.094-1.903 0-.952-.02-.952-.02-1.904 0-.95.597-.95.597-1.904 0-.95.448-.95.448-1.9s-.606-.95-.606-1.9.761-.95.761-1.9-1.129-.95-1.129-1.9.4-.95.4-1.9c0-.952.406-.952.406-1.902s-.507-.95-.507-1.902c0-.95.218-.95.218-1.904 0-.952-.348-.952-.348-1.904s.31-.952.31-1.904-.486-.952-.486-1.904c0-.95.636-.95.636-1.902 0-.95-.82-.95-.82-1.902 0-.95.242-.95.242-1.902 0-.95.392-.95.392-1.9 0-.952-.187-.952-.187-1.903 0-.95-.2-.95-.2-1.903 0-.952.15-.952.15-1.904 0-.953.403-.953.403-1.905 0-.952-.244-.952-.244-1.905 0-.952-.514-.952-.514-1.904 0-.95.9-.95.9-1.902 0-.95-.51-.95-.51-1.903 0-.952-.134-.952-.134-1.903 0-.952-.153-.952-.153-1.904s.64-.952.64-1.904c0-.954-.48-.954-.48-1.906s.56-.952.56-1.904.056-.952.056-1.904c0-.95.103-.95.103-1.904 0-.952.05-.952.05-1.904 0-.953-.31-.953-.31-1.905 0-.953.283-.953.283-1.905 0-.953-.21-.953-.21-1.905 0-.952-.3-.952-.3-1.904 0-.953.494-.953.494-1.905 0-.953-.455-.953-.455-1.907 0-.953-.165-.953-.165-1.905 0-.952-.042-.952-.042-1.904 0-.953.751-.953.751-1.906s-.59-.953-.59-1.906.03-.953.03-1.905c0-.953.366-.953.366-1.906s-.91-.953-.91-1.906 1.11-.953 1.11-1.906-1.118-.953-1.118-1.906.444-.953.444-1.906c0-.952.071-.952.071-1.905 0-.953-.419-.953-.419-1.905 0-.952 1.114-.952 1.114-1.903 0-.952-.056-.952-.056-1.904 0-.954-.357-.954-.357-1.908 0-.952.407-.952.407-1.904 0-.953-.668-.953-.668-1.906s-.443-.953-.443-1.906c0-.954.186-.954.186-1.908 0-.953.851-.953.851-1.906 0-.954-1.034-.954-1.034-1.907 0-.954.274-.954.274-1.908s-.37-.954-.37-1.909c0-.953.785-.953.785-1.906 0-.954.447-.954.447-1.908S.8 55.19.8 54.235s-.11-.954-.11-1.908c0-.956.568-.956.568-1.912 0-.957-.198-.957-.198-1.913 0-.629-.22-1.24-.173-1.859.05-.627.443-1.185.54-1.797.098-.62.176-1.204.321-1.807.147-.61.175-1.22.367-1.812.194-.597-.456-1.517-.217-2.09.24-.579.72-1.09 1.004-1.644.285-.557.843-.984 1.17-1.515.328-.532 1.023-.81 1.391-1.314.367-.505.044-1.573.45-2.046.406-.475 1.718-.114 2.16-.555.44-.44.803-.907 1.278-1.314.474-.405.573-1.263 1.078-1.63.504-.369 1.28-.316 1.812-.644.531-.326.676-1.35 1.233-1.637.554-.283 1.166-.532 1.745-.772.574-.238 1.5.48 2.096.285.591-.192 1.08-.639 1.69-.785.604-.145 1.242.03 1.862-.068.613-.097 1.097-1.353 1.724-1.402.617-.049 1.29.832 1.92.832.957 0 .957-.588 1.914-.588s.957.354 1.914.354.957-.027 1.914-.027.957-.064 1.914-.064c.956 0 .956.255 1.913.255.957 0 .957-.858 1.913-.858.957 0 .957.99 1.914.99s.957.25 1.913.25c.957 0 .957-1.203 1.913-1.203.957 0 .957 1.032 1.914 1.032s.957-.046 1.913-.046c.957 0 .957.064 1.914.064s.957-.994 1.915-.994c.957 0 .957.543 1.914.543.958 0 .958-.42 1.916-.42s.958.308 1.915.308c.958 0 .958-.35 1.916-.35.957 0 .957.827 1.915.827.957 0 .957-.209 1.914-.209.958 0 .958-.49 1.915-.49.957 0 .957.915 1.914.915s.957-1.06 1.914-1.06c.956 0 .956.987 1.913.987.957 0 .957-.367 1.914-.367s.957.533 1.914.533.957-.959 1.914-.959.957.211 1.915.211c.957 0 .957.512 1.914.512.958 0 .958.164 1.915.164.958 0 .958-.665 1.916-.665s.958-.343 1.916-.343c.957 0 .957.227 1.915.227.957 0 .957.306 1.915.306.957 0 .957-.664 1.915-.664.957 0 .957.462 1.914.462s.957.33 1.915.33c.957 0 .957-.843 1.914-.843s.957 1.073 1.914 1.073.957-.126 1.915-.126c.957 0 .957.12 1.914.12.958 0 .958-1.105 1.915-1.105.958 0 .958.468 1.916.468s.958.57 1.916.57.958.048 1.916.048c.957 0 .957-.985 1.915-.985.957 0 .957.835 1.915.835.957 0 .957-.204 1.914-.204.958 0 .958-.155 1.915-.155.958 0 .958.05 1.915.05.957 0 .957-.373 1.915-.373.958 0 .958.285 1.915.285.958 0 .958-.546 1.916-.546s.958.003 1.916.003.958.3 1.916.3c.957 0 .957.004 1.915.004.958 0 .958.316 1.915.316.957 0 .957.167 1.915.167.957 0 .957.41 1.915.41.957 0 .957.014 1.915.014.958 0 .958-.784 1.916-.784s.958-.015 1.916-.015.958-.149 1.916-.149.958.795 1.915.795c.958 0 .958.02 1.916.02s.958-.989 1.915-.989c.956 0 .956.242 1.912.242s.956-.236 1.912-.236.956 1.072 1.912 1.072.956-1.169 1.912-1.169.956.924 1.913.924c.956 0 .956.131 1.912.131.957 0 .957-.489 1.914-.489.958 0 .958.481 1.915.481.958 0 .958-.312 1.917-.312.958 0 .958.071 1.916.071.957 0 .957-.606 1.915-.606.957 0 .957.842 1.914.842s.957-.266 1.913-.266c.957 0 .957.196 1.914.196s.957-.047 1.913-.047c.957 0 .957-.554 1.914-.554s.957.476 1.915.476c.958 0 .958-.378 1.915-.378.96 0 .96-.06 1.918-.06s.958.6 1.916.6.958.214 1.915.214c.957 0 .957.058 1.915.058.957 0 .957-.354 1.914-.354s.957-.242 1.915-.242c.958 0 .958.216 1.915.216.96 0 .96.162 1.917.162.96 0 .96-.517 1.917-.517.958 0 .958-.015 1.916-.015s.958-.21 1.916-.21.958.892 1.915.892c.96 0 .96-.804 1.917-.804.958 0 .958-.238 1.917-.238.96 0 .96 1.044 1.917 1.044.958 0 .958-1.19 1.916-1.19s.958.596 1.916.596c.96 0 .96.632 1.917.632.96 0 .96-.328 1.918-.328.96 0 .96-.028 1.917-.028.958 0 .958-.633 1.917-.633.958 0 .958 1.031 1.916 1.031.96 0 .96-.973 1.918-.973.96 0 .96.92 1.917.92.96 0 .96-.77 1.918-.77.96 0 .96-.248 1.918-.248s.958-.088 1.917-.088c.96 0 .96-.135 1.918-.135.96 0 .96.953 1.918.953.96 0 .96-.829 1.917-.829.958 0 .958.765 1.917.765.957 0 .957-.855 1.915-.855.958 0 .958.808 1.916.808.96 0 .96-.162 1.918-.162s.958.403 1.917.403c.96 0 .96-.222 1.918-.222.96 0 .96-.024 1.918-.024.96 0 .96-.813 1.92-.813.958 0 .958.867 1.917.867.96 0 .96-.448 1.92-.448s.96-.125 1.92-.125.96.475 1.92.475c.958 0 .958-.079 1.917-.079.96 0 .96-.55 1.92-.55s.96.814 1.92.814.96-.334 1.921-.334c.961 0 .961-.123 1.923-.123.962 0 .962.68 1.924.68.63 0 1.301-1.138 1.92-1.09.626.05 1.277.234 1.89.331.62.097 1.012 1.307 1.616 1.452.61.146 1.237.082 1.828.274.596.194 1.356-.086 1.931.154.578.24 1.074.668 1.628.951.557.285.94.851 1.47 1.18.532.326 1.161.48 1.665.845.505.368 1.295.392 1.77.797.474.406 1.101.701 1.543 1.143.441.441.72 1.083 1.126 1.557.405.474.774 1.01 1.143 1.515.367.504.147 1.4.474 1.932.326.531.564 1.077.85 1.633.283.554 1.107.85 1.348 1.428.238.574.746 1.08.94 1.676.192.591-.357 1.404-.21 2.014.145.603.613 1.14.711 1.76.097.613.07 1.247.12 1.874.046.617.124 1.241.124 1.87 0 .953.153.953.153 1.905 0 .952-.49.952-.49 1.904s.371.952.371 1.903c0 .952-.562.952-.562 1.904s.881.952.881 1.903c0 .951.047.951.047 1.903 0 .951.146.951.146 1.903 0 .952-.769.952-.769 1.903 0 .951-.143.951-.143 1.903 0 .951.694.951.694 1.904 0 .952-.348.952-.348 1.903 0 .953-.005.953-.005 1.905 0 .951.14.951.14 1.903 0 .953-.273.953-.273 1.904 0 .952.084.952.084 1.903 0 .952.613.952.613 1.903 0 .953-1.104.953-1.104 1.904 0 .952.285.952.285 1.903 0 .952-.218.952-.218 1.904 0 .953.567.953.567 1.905 0 .952-.423.952-.423 1.904s.797.952.797 1.903c0 .952-1.045.952-1.045 1.904s1.183.952 1.183 1.903c0 .951-1.12.951-1.12 1.901 0 .95.2.95.2 1.9s.665.95.665 1.9-.307.95-.307 1.901c0 .95.06.95.06 1.9 0 .951-.132.951-.132 1.901 0 .951-.037.951-.037 1.903 0 .951.473.951.473 1.903 0 .952-.615.952-.615 1.904s.095.952.095 1.905c0 .951-.564.951-.564 1.903 0 .951.23.951.23 1.902s-.085.951-.085 1.902.933.951.933 1.902c0 .95-.686.95-.686 1.901 0 .951.621.951.621 1.903 0 .951-.57.951-.57 1.902 0 .952-.099.952-.099 1.904s.4.952.4 1.906c0 .952-.2.952-.2 1.904s.045.952.045 1.903c0 .952.341.952.341 1.903 0 .952-.21.952-.21 1.903 0 .951.464.951.464 1.903 0 .952-.397.952-.397 1.903 0 .954.398.954.398 1.906 0 .953-.912.953-.912 1.905 0 .952.465.952.465 1.904s.434.952.434 1.904-1.04.952-1.04 1.904 1.103.952 1.103 1.904-.41.952-.41 1.905c0 .954-.436.954-.436 1.906s.444.952.444 1.904.143.952.143 1.904-.82.952-.82 1.906c0 .953-.048.953-.048 1.906 0 .952.413.952.413 1.905 0 .952.224.952.224 1.904 0 .954.37.954.37 1.906 0 .953.172.953.172 1.906s-1.126.953-1.126 1.905c0 .953.058.953.058 1.906s.112.953.112 1.906.821.953.821 1.906-.62.953-.62 1.906.294.953.294 1.906.084.953.084 1.905c0 .953-.347.953-.347 1.905 0 .951-.31.951-.31 1.903 0 .953-.244.953-.244 1.905 0 .953 1.12.953 1.12 1.906 0 .952-.867.952-.867 1.905 0 .953 1.04.953 1.04 1.906 0 .954-.983.954-.983 1.907 0 .953.913.953.913 1.907 0 .953-.284.953-.284 1.906s-.635.953-.635 1.907c0 .955.591.955.591 1.91 0 .953-.554.953-.554 1.907 0 .953-.076.953-.076 1.905 0 .954.097.954.097 1.908s.228.954.228 1.91c0 .954-.595.954-.595 1.908 0 .956.387.956.387 1.912l.002 1.912c0 .63-.345 1.207-.393 1.824-.049.627.608 1.316.511 1.93-.098.62-.47 1.183-.615 1.787-.147.61-.102 1.271-.294 1.862-.194.596-.76 1.046-.999 1.621-.24.578-.094 1.33-.377 1.885-.285.557-1.025.852-1.352 1.382-.328.532-.17 1.39-.538 1.892-.368.505-1.402.472-1.807.946-.407.474-.2 1.504-.642 1.945-.44.442-1.523.174-1.997.58-.475.405-.316 1.6-.822 1.967-.504.367-1.569-.112-2.102.215-.53.326-.986.707-1.543.991-.554.284-.785 1.257-1.363 1.497-.575.24-1.296.12-1.892.314-.59.192-1.13.602-1.74.75-.604.143-1.199.476-1.819.574-.613.096-1.307-.364-1.934-.316-.618.048-1.23.38-1.86.38-.952 0-.952-.057-1.904-.057-.95 0-.95-.4-1.902-.4s-.952.112-1.904.112-.952-.457-1.903-.457c-.952 0-.952.476-1.904.476-.95 0-.95.187-1.903.187-.95 0-.95.066-1.902.066s-.952-.5-1.903-.5c-.95 0-.95.78-1.902.78-.95 0-.95.054-1.902.054s-.952.196-1.903.196c-.95 0-.95-1.299-1.903-1.299-.952 0-.952 1.052-1.903 1.052-.953 0-.953.196-1.905.196-.95 0-.95-1.24-1.903-1.24-.952 0-.952.68-1.903.68-.952 0-.952-.405-1.903-.405-.95 0-.95.592-1.903.592-.95 0-.95-.513-1.902-.513s-.952-.059-1.903-.059c-.952 0-.952.161-1.904.161-.95 0-.95.73-1.903.73-.952 0-.952-.752-1.904-.752s-.952.115-1.903.115c-.952 0-.952.483-1.903.483-.95 0-.95-.294-1.903-.294-.95 0-.95.267-1.9.267s-.95-.179-1.9-.179-.95.256-1.899.256c-.95 0-.95-.874-1.9-.874s-.95.271-1.9.271-.95-.229-1.9-.229c-.952 0-.952.598-1.902.598-.952 0-.952-.033-1.903-.033-.952 0-.952.181-1.905.181-.95 0-.95-.196-1.903-.196-.952 0-.952.071-1.903.071-.95 0-.95-.768-1.902-.768-.95 0-.95.061-1.9.061-.952 0-.952.912-1.902.912s-.95-.91-1.9-.91c-.952 0-.952.134-1.903.134-.95 0-.95.326-1.902.326s-.952-.479-1.904-.479-.952.574-1.904.574c-.953 0-.953.528-1.905.528-.95 0-.95-1.186-1.903-1.186-.95 0-.95 1.011-1.902 1.011-.95 0-.95.068-1.902.068-.95 0-.95-.15-1.903-.15-.95 0-.95-.559-1.903-.559-.952 0-.952-.022-1.904-.022-.953 0-.953-.359-1.905-.359-.952 0-.952 1.182-1.904 1.182s-.952-.85-1.903-.85c-.95 0-.95.61-1.903.61-.952 0-.952.307-1.904.307s-.952-.292-1.905-.292c-.952 0-.952-.649-1.905-.649-.952 0-.952.815-1.904.815-.95 0-.95-.676-1.903-.676-.953 0-.953.42-1.905.42-.953 0-.953-.687-1.906-.687-.952 0-.952.236-1.904.236s-.952.17-1.905.17c-.952 0-.952.652-1.904.652-.954 0-.954-.856-1.906-.856s-.952.848-1.905.848c-.952 0-.952-.793-1.905-.793-.953 0-.953.25-1.906.25-.952 0-.952.27-1.905.27-.952 0-.952-.707-1.906-.707-.952 0-.952.608-1.905.608-.952 0-.952.061-1.905.061-.952 0-.952-.704-1.904-.704-.95 0-.95.626-1.903.626-.95 0-.95-.305-1.904-.305-.953 0-.953-.103-1.906-.103-.952 0-.952.221-1.904.221-.953 0-.953-.386-1.906-.386-.952 0-.952.816-1.905.816-.954 0-.954-.905-1.907-.905-.953 0-.953-.173-1.906-.173s-.953.34-1.907.34c-.953 0-.953.67-1.908.67-.953 0-.953.162-1.907.162-.953 0-.953-.947-1.906-.947s-.953.381-1.907.381c-.954 0-.954.53-1.908.53s-.954.118-1.908.118c-.956 0-.956-.879-1.91-.879-.957 0-1.225-.614-2.108-.248-.884.366-.272 1.357-.948 2.034-.677.677-1.255.1-1.932.776-.677.678-.108 1.247-.785 1.924-.678.678-.433.923-1.11 1.601-.677.677-1.376-.022-2.053.655s-.119 1.235-.796 1.912c-.677.677-.653.701-1.33 1.378-.677.677-.754.601-1.43 1.277-.678.678-.535.822-1.212 1.5-.678.677-1.063.291-1.74.97-.678.677-.986.368-1.663 1.046-.677.677-.178 1.176-.855 1.853-.678.677-.672.683-1.35 1.36-.678.68-1.085.27-1.764.948-.677.678-.14 1.215-.817 1.893-.677.677-1.127.226-1.805.904-.677.677-.892.463-1.569 1.141-.678.677-.018 1.337-.696 2.014-.676.676-1.269.084-1.945.76-.677.678-.19 1.163-.868 1.84-.677.678-.593.763-1.27 1.44-.678.677-.89.464-1.568 1.141-.676.676-.946.406-1.622 1.082-.677.677-.808.547-1.485 1.223-.677.677-.079 1.276-.757 1.954-.678.678-.61.745-1.287 1.423-.677.676-1.335.02-2.012.696-.677.678-.369.986-1.047 1.664-.678.678-.407.95-1.085 1.628-.678.677-.598.757-1.275 1.435-.679.678-1.263.093-1.94.772-.679.678-.16 1.195-.839 1.874-.678.68-.722.635-1.4 1.313-.679.678-.473.884-1.152 1.562-.678.68-1.022.334-1.7 1.013-.679.678-1.21.146-1.89.825-.677.678-.705.65-1.383 1.327-.678.68-.672.685-1.35 1.362-.679.68-.385.974-1.064 1.653-.679.678-.712.646-1.39 1.325-.68.68-.744.616-1.424 1.295-.68.68-.549.812-1.229 1.493s-.239 1.121-.92 1.802c-.404.404-1.06.628-1.539.905-.489.284-1.135.286-1.674.431-.54.146-1.1.094-1.665.094" fill="#DAE0EC"/><path d="M241.474 94.74c-.657.688-1.048.084-1.999.084-.95 0-.95-.139-1.902-.139s-.952-.573-1.903-.573c-.95 0-.95.107-1.902.107-.95 0-.95.241-1.903.241-.952 0-.952.265-1.903.265-.952 0-.952.379-1.904.379s-.952-.084-1.904-.084c-.95 0-.95-.315-1.903-.315-.952 0-.952.442-1.903.442-.952 0-.952-.814-1.903-.814-.95 0-.95.525-1.903.525-.95 0-.95.243-1.902.243s-.952-.793-1.903-.793c-.952 0-.952-.156-1.903-.156-.952 0-.952.21-1.903.21-.953 0-.953.106-1.904.106-.952 0-.952-.328-1.905-.328-.95 0-.95.195-1.903.195-.952 0-.952.975-1.904.975-.95 0-.95-.346-1.903-.346-.95 0-.95-.277-1.902-.277s-.952-.633-1.904-.633c-.95 0-.95.38-1.903.38-.952 0-.952-.009-1.903-.009-.952 0-.952.055-1.905.055-.952 0-.952.443-1.903.443-.953 0-.953-.166-1.904-.166-.952 0-.952-.079-1.904-.079-.95 0-.95.433-1.902.433-.95 0-.95-.44-1.9-.44s-.95.044-1.9.044-.95-.153-1.9-.153-.95-.077-1.9-.077-.95.401-1.9.401c-.952 0-.952-.639-1.902-.639s-.95-.202-1.902-.202c-.95 0-.95.915-1.903.915-.952 0-.952.225-1.904.225s-.952-1.199-1.905-1.199c-.95 0-.95.078-1.902.078s-.952.883-1.903.883c-.95 0-.95-.4-1.9-.4-.952 0-.952.382-1.902.382-.952 0-.952-.306-1.902-.306s-.95-.464-1.902-.464c-.95 0-.95.592-1.902.592-.953 0-.953-.139-1.904-.139-.953 0-.953-.289-1.906-.289-.952 0-.952.005-1.904.005s-.952.499-1.903.499c-.95 0-.95.284-1.903.284-.95 0-.95.089-1.902.089s-.952-.105-1.903-.105c-.952 0-.952.2-1.904.2s-.952-.255-1.904-.255c-.953 0-.953-.217-1.906-.217-.95 0-.95-.089-1.903-.089-.952 0-.952-.226-1.904-.226-.95 0-.95-.392-1.903-.392-.952 0-.952.603-1.904.603-.953 0-.953-.636-1.906-.636-.952 0-.952.453-1.905.453-.952 0-.952-.131-1.904-.131s-.952.748-1.904.748-.952-.363-1.905-.363c-.953 0-.953.137-1.906.137-.952 0-.952.059-1.905.059-.952 0-.952-.278-1.904-.278-.953 0-.953-.493-1.905-.493-.953 0-.953.213-1.907.213-.952 0-.952.225-1.904.225-.953 0-.953.547-1.906.547s-.953-.581-1.906-.581-.953.301-1.905.301c-.953 0-.953-.836-1.906-.836s-.953.493-1.906.493c-.952 0-.952-.066-1.905-.066h-1.904c-.952 0-.952.351-1.904.351s-.952-.02-1.904-.02c-.953 0-.953-.483-1.906-.483-.952 0-.952.161-1.904.161-.954 0-.954.209-1.907.209-.953 0-.953-.34-1.905-.34-.954 0-.954.759-1.908.759-.953 0-.953-1.098-1.906-1.098-.954 0-.954.974-1.907.974-.954 0-.954-.553-1.908-.553s-.954-.31-1.908-.31c-.953 0-.953.051-1.905.051-.954 0-.954.276-1.909.276-.953 0-.953-.026-1.907-.026-.955 0-.955.428-1.909.428-.956 0-.956.117-1.912.117s-1.27.352-1.934-.336c-.689-.716-.353-1.015-.353-2.008 0-.994.657-.994.657-1.987 0-.995-.617-.995-.617-1.989 0-.994-.173-.994-.173-1.988 0-.996.671-.996.671-1.992 0-.995-.379-.821.308-1.542.657-.688.481-1.026 1.432-1.026s.951.849 1.902.849.951-.475 1.902-.475c.952 0 .952.334 1.903.334.951 0 .951-.742 1.903-.742.951 0 .951.894 1.903.894.952 0 .952-.431 1.904-.431s.952.15 1.904.15.952.264 1.903.264c.952 0 .952-.251 1.904-.251.951 0 .951.577 1.902.577.952 0 .952-1.119 1.903-1.119.951 0 .951-.088 1.903-.088.951 0 .951.7 1.902.7.952 0 .952.078 1.903.078.952 0 .952-.398 1.904-.398.951 0 .951.742 1.903.742.953 0 .953-.938 1.905-.938.951 0 .951.723 1.903.723.952 0 .952-.27 1.903-.27.952 0 .952.348 1.904.348.951 0 .951-.674 1.902-.674.952 0 .952.615 1.903.615.952 0 .952-.343 1.904-.343s.952-.469 1.903-.469c.953 0 .953.069 1.905.069.952 0 .952.613 1.904.613.951 0 .951-.543 1.903-.543.952 0 .952.985 1.903.985.952 0 .952-.158 1.903-.158.951 0 .951-1.09 1.901-1.09.95 0 .95 1.073 1.9 1.073s.95-.671 1.9-.671.95.34 1.9.34.95.26 1.9.26c.951 0 .951.234 1.901.234.951 0 .951-.88 1.902-.88s.951.372 1.903.372c.952 0 .952-.439 1.904-.439s.952.105 1.905.105c.951 0 .951.68 1.902.68.952 0 .952-.613 1.903-.613.95 0 .95.297 1.901.297.951 0 .951.402 1.902.402.95 0 .95-.356 1.901-.356.951 0 .951.082 1.902.082s.951-.278 1.903-.278c.952 0 .952.62 1.903.62.953 0 .953-.247 1.906-.247.952 0 .952-.319 1.904-.319s.952-.063 1.903-.063c.951 0 .951.284 1.903.284.951 0 .951-.104 1.902-.104.952 0 .952-.801 1.903-.801.951 0 .951.644 1.904.644.952 0 .952.366 1.904.366.953 0 .953.048 1.906.048.951 0 .951-.952 1.903-.952.952 0 .952.877 1.904.877.951 0 .951-.593 1.903-.593.952 0 .952.364 1.904.364.953 0 .953-.301 1.906-.301.952 0 .952-.016 1.905-.016.952 0 .952.435 1.904.435s.952-.424 1.904-.424.952-.363 1.905-.363c.953 0 .953-.047 1.906-.047.952 0 .952.977 1.905.977.952 0 .952.166 1.904.166.953 0 .953.018 1.905.018.954 0 .954-.629 1.906-.629.953 0 .953-.511 1.906-.511.952 0 .952 1.233 1.905 1.233.953 0 .953-1.003 1.906-1.003s.953 1.001 1.905 1.001c.953 0 .953-.186 1.906-.186s.953-.209 1.906-.209c.952 0 .952-.28 1.905-.28.952 0 .952-.63 1.904-.63s.952.568 1.904.568.952-.021 1.904-.021c.953 0 .953.367 1.906.367.952 0 .952-.441 1.905-.441.953 0 .953.102 1.906.102s.953.546 1.906.546.953-.49 1.907-.49c.953 0 .953.416 1.906.416.954 0 .954.012 1.907.012.954 0 .954-.153 1.908-.153s.954-.23 1.908-.23c.953 0 .953.032 1.905.032.955 0 .955-.664 1.908-.664.954 0 .954.678 1.908.678.955 0 .955.6 1.91.6s.955-.898 1.911-.898c.956 0 1.721-.906 2.384-.217.688.714-.933 1.447-.933 2.44 0 .994 1.03.994 1.03 1.987 0 .994-.384.994-.384 1.989 0 .994-.769.994-.769 1.988 0 .996.962.881 1.188 1.85.253 1.083.18 1.505-.508 2.225m.059 41.933c-.657.687-1.106.338-2.058.338-.951 0-.951-.336-1.902-.336s-.951.157-1.902.157-.951.045-1.903.045c-.951 0-.951-.681-1.902-.681-.952 0-.952.307-1.903.307-.952 0-.952.53-1.904.53s-.952-1.024-1.904-1.024-.952 1.134-1.904 1.134c-.951 0-.951-.116-1.903-.116-.952 0-.952.079-1.903.079-.951 0-.951-1.12-1.903-1.12-.951 0-.951 1.13-1.902 1.13-.952 0-.952-.033-1.903-.033-.952 0-.952.07-1.903.07-.951 0-.951-.742-1.903-.742-.952 0-.952-.117-1.904-.117s-.952.559-1.904.559-.952.162-1.904.162-.952.154-1.903.154c-.951 0-.951-.627-1.903-.627-.952 0-.952-.28-1.903-.28-.952 0-.952.447-1.903.447-.952 0-.952-.251-1.903-.251-.952 0-.952-.325-1.904-.325s-.952.65-1.904.65-.952-.13-1.904-.13-.952-.383-1.904-.383c-.951 0-.951.58-1.903.58-.951 0-.951-.485-1.903-.485-.95 0-.95-.49-1.9-.49-.951 0-.951.277-1.9.277-.95 0-.95.665-1.9.665s-.95.297-1.9.297-.95-.771-1.9-.771c-.951 0-.951.16-1.902.16s-.951-.372-1.902-.372-.951.789-1.903.789c-.952 0-.952.179-1.904.179s-.952-.9-1.904-.9-.952.409-1.903.409c-.951 0-.951-.045-1.902-.045s-.951.373-1.902.373c-.95 0-.95-.438-1.901-.438-.951 0-.951-.335-1.902-.335s-.951-.014-1.902-.014-.951-.275-1.902-.275c-.952 0-.952.199-1.904.199-.953 0-.953.217-1.905.217-.952 0-.952.213-1.904.213s-.952.494-1.904.494c-.951 0-.951.045-1.902.045s-.951-.403-1.902-.403c-.952 0-.952-.03-1.903-.03-.952 0-.952-.377-1.904-.377-.953 0-.953-.017-1.905-.017-.953 0-.953.247-1.905.247-.952 0-.952-.381-1.904-.381s-.952.016-1.903.016c-.952 0-.952-.018-1.904-.018s-.952.77-1.904.77c-.953 0-.953-.43-1.905-.43-.953 0-.953.13-1.905.13-.953 0-.953-.131-1.905-.131-.951 0-.951.56-1.904.56-.952 0-.952-.201-1.904-.201-.953 0-.953-.492-1.907-.492-.952 0-.952.847-1.904.847-.953 0-.953-.263-1.905-.263-.952 0-.952-.32-1.905-.32-.953 0-.953-.466-1.906-.466-.952 0-.952.956-1.905.956-.953 0-.953-1.136-1.905-1.136-.953 0-.953.625-1.907.625-.952 0-.952-.084-1.905-.084-.953 0-.953.213-1.906.213s-.953.266-1.905.266c-.953 0-.953-.564-1.906-.564-.952 0-.952.667-1.904.667s-.952-.635-1.903-.635c-.952 0-.952-.477-1.904-.477-.954 0-.954.034-1.907.034-.952 0-.952.799-1.904.799-.953 0-.953.037-1.907.037-.952 0-.952-.54-1.905-.54-.954 0-.954-.33-1.907-.33-.953 0-.953.865-1.907.865-.953 0-.953-.518-1.907-.518-.953 0-.953.694-1.907.694-.955 0-.955-.197-1.91-.197-.951 0-.951-.77-1.904-.77-.954 0-.954.993-1.908.993s-.954-.227-1.908-.227-.954.408-1.91.408c-.955 0-.955-.183-1.91-.183-.956 0-1.58.552-2.242-.136-.69-.716.514-1.312.514-2.304 0-.994-.063-.994-.063-1.987 0-.994.024-.994.024-1.988 0-.995-.13-.995-.13-1.99s-.442-.995-.442-1.991c0-.996.139-.89.827-1.61.657-.687.55.048 1.503.048.95 0 .95-.561 1.9-.561.953 0 .953.327 1.904.327.95 0 .95.228 1.903.228.95 0 .95.199 1.902.199s.952-1.14 1.903-1.14c.952 0 .952 1.125 1.904 1.125s.952-.98 1.904-.98.952.76 1.904.76c.95 0 .95-1.021 1.903-1.021.95 0 .95.556 1.903.556.95 0 .95-.51 1.903-.51.95 0 .95 1.023 1.902 1.023s.952-.067 1.903-.067c.95 0 .95-.665 1.903-.665.95 0 .95.55 1.903.55.952 0 .952-.645 1.904-.645s.952-.148 1.904-.148.952.2 1.904.2.952-.32 1.903-.32c.95 0 .95 1.142 1.903 1.142.952 0 .952-.877 1.903-.877.952 0 .952.248 1.903.248.95 0 .95.697 1.903.697.952 0 .952-.468 1.904-.468s.952-.226 1.904-.226.952.389 1.904.389.952-.166 1.904-.166c.95 0 .95-.106 1.903-.106.95 0 .95.145 1.903.145.95 0 .95-.376 1.9-.376s.95.643 1.9.643.95.007 1.9.007.95-.403 1.9-.403.95.123 1.9.123.95-.406 1.902-.406c.95 0 .95-.29 1.902-.29.95 0 .95.165 1.902.165.953 0 .953.108 1.905.108.952 0 .952.845 1.904.845s.952-.25 1.903-.25c.95 0 .95.018 1.902.018.95 0 .95-.792 1.902-.792.95 0 .95.694 1.9.694.952 0 .952-.06 1.902-.06s.95.095 1.902.095.952-.106 1.903-.106c.952 0 .952.224 1.904.224s.952.09 1.905.09c.952 0 .952-1.07 1.904-1.07s.952.509 1.904.509c.95 0 .95-.126 1.902-.126.95 0 .95.594 1.902.594s.952-.364 1.903-.364c.952 0 .952.616 1.904.616s.952.006 1.905.006c.952 0 .952-.504 1.905-.504.952 0 .952.09 1.904.09s.952-.39 1.903-.39c.952 0 .952-.345 1.904-.345s.952.126 1.904.126.952.954 1.905.954h1.905c.953 0 .953-1.072 1.904-1.072.952 0 .952.986 1.904.986.953 0 .953-.146 1.905-.146.953 0 .953.334 1.907.334.952 0 .952-.073 1.904-.073s.952-.817 1.905-.817c.952 0 .952-.254 1.905-.254.953 0 .953 1.074 1.906 1.074.952 0 .952-.271 1.905-.271.953 0 .953.295 1.905.295.953 0 .953-.192 1.906-.192s.953-.896 1.906-.896.953.772 1.905.772c.954 0 .954-.287 1.906-.287.953 0 .953-.484 1.906-.484.952 0 .952.842 1.904.842.95 0 .95-.945 1.903-.945.952 0 .952 1.224 1.904 1.224.954 0 .954-1.168 1.907-1.168.952 0 .952.45 1.904.45.953 0 .953.67 1.907.67.952 0 .952-.56 1.905-.56.954 0 .954-.01 1.907-.01.953 0 .953-.494 1.906-.494.954 0 .954.577 1.908.577.953 0 .953-.166 1.907-.166.954 0 .954.405 1.908.405.953 0 .953.059 1.906.059.954 0 .954-.67 1.908-.67s.954.252 1.908.252.954-.54 1.908-.54c.957 0 .957 1.055 1.912 1.055.956 0 1.184-1.12 1.847-.432.689.716.177.93.177 1.924 0 .994-.707.994-.707 1.988s1.054.994 1.054 1.988.127.994.127 1.988c0 .996-.266.887-.027 1.854.274 1.11.284 1.558-.404 2.278M181.7 178.431c-.667.691-.994-.126-1.953-.126-.959 0-.959.302-1.918.302-.96 0-.96.276-1.919.276-.96 0-.96-.57-1.919-.57-.96 0-.96-.517-1.92-.517-.962 0-.962.877-1.922.877-.962 0-.962-.379-1.924-.379-.96 0-.96.435-1.922.435-.96 0-.96-.523-1.92-.523-.962 0-.962.648-1.922.648s-.96-.226-1.92-.226-.96.26-1.92.26-.96-.83-1.92-.83-.96.463-1.92.463-.96-.561-1.92-.561c-.963 0-.963.4-1.924.4-.962 0-.962.34-1.924.34-.96 0-.96-.47-1.922-.47-.96 0-.96.472-1.922.472-.96 0-.96-.613-1.92-.613-.962 0-.962.149-1.922.149s-.96-.131-1.92-.131c-.962 0-.962.232-1.923.232-.962 0-.962-.256-1.924-.256s-.962.238-1.924.238c-.96 0-.96.163-1.922.163-.96 0-.96.016-1.922.016-.96 0-.96-.712-1.922-.712-.96 0-.96.725-1.922.725s-.962.035-1.924.035-.962-.388-1.924-.388c-.96 0-.96-.273-1.922-.273-.96 0-.96.749-1.923.749l-1.923-.001c-.963 0-.963-.327-1.925-.327-.96 0-.96.59-1.923.59-.962 0-.962-.53-1.923-.53-.962 0-.962-.401-1.924-.401s-.962.485-1.924.485-.962-.49-1.924-.49-.962.673-1.923.673c-.963 0-.963.151-1.925.151-.962 0-.962.249-1.924.249-.963 0-.963-1.264-1.925-1.264-.962 0-.962.234-1.924.234s-.962.037-1.924.037c-.96 0-.96.031-1.922.031-.96 0-.96.427-1.922.427-.96 0-.96-.594-1.923-.594-.962 0-.962.912-1.925.912-.96 0-.96-.018-1.923-.018-.962 0-.962-.127-1.925-.127-.962 0-.962-.697-1.923-.697-.964 0-.964.82-1.927.82-.962 0-.962-.803-1.924-.803-.963 0-.963.335-1.926.335s-.963-.34-1.926-.34-.963.555-1.927.555c-.962 0-.962-.232-1.924-.232-.963 0-.963.282-1.926.282s-.963-.308-1.927-.308c-.964 0-.964.56-1.927.56-.965 0-.965-.39-1.93-.39s-1.705 1.071-2.378.378c-.69-.712.93-1.425.93-2.42 0-.994-.137-.994-.137-1.987 0-.993.282-.993.282-1.987 0-.994-.94-.994-.94-1.988 0-.998.378-.998.378-1.993 0-.995-.807-1.322-.116-2.04.666-.69 1.01.129 1.97.129.958 0 .958-.249 1.918-.249h1.918c.96 0 .96.35 1.92.35s.96-.397 1.92-.397c.961 0 .961-.206 1.922-.206s.961-.204 1.923-.204c.961 0 .961.147 1.922.147s.961 1.042 1.922 1.042c.96 0 .96-.613 1.92-.613s.96-.082 1.92-.082.96-.17 1.92-.17.96.61 1.92.61.96-.438 1.92-.438c.961 0 .961-.52 1.921-.52.962 0 .962.065 1.923.065.962 0 .962.662 1.924.662.961 0 .961-.655 1.922-.655s.961.194 1.922.194.961-.012 1.921-.012c.961 0 .961.828 1.921.828.961 0 .961-.665 1.921-.665.961 0 .961-.019 1.922-.019.962 0 .962-.304 1.924-.304s.962.304 1.924.304c.96 0 .96-.102 1.922-.102.961 0 .961-.143 1.922-.143s.961.476 1.922.476.961.3 1.922.3c.962 0 .962-.558 1.924-.558s.962-.216 1.924-.216c.961 0 .961.222 1.922.222.962 0 .962.778 1.923.778.962 0 .962-.389 1.923-.389.963 0 .963.215 1.925.215.961 0 .961.103 1.923.103.962 0 .962-.962 1.923-.962.962 0 .962.262 1.924.262s.962.855 1.924.855.962-1.144 1.924-1.144.962.165 1.924.165.962.35 1.924.35.962.155 1.924.155c.963 0 .963-.007 1.925-.007.962 0 .962.439 1.924.439s.962-.416 1.924-.416c.961 0 .961.313 1.923.313.96 0 .96-1.047 1.921-1.047.962 0 .962.233 1.923.233.963 0 .963.983 1.925.983.961 0 .961-1.26 1.923-1.26.962 0 .962.794 1.925.794.962 0 .962-.547 1.924-.547.963 0 .963-.061 1.926-.061.962 0 .962-.032 1.924-.032.963 0 .963.906 1.926.906s.963-1.075 1.926-1.075.963 1.064 1.927 1.064c.962 0 .962-.233 1.924-.233.963 0 .963-.776 1.926-.776.964 0 .964.592 1.927.592.964 0 .964.64 1.927.64.965 0 .965-.695 1.93-.695s1.047-.417 1.72.275c.691.712.522.786.522 1.78s.157.994.157 1.988-1.127.994-1.127 1.988.152.994.152 1.988c0 .995.317 1.013.53 1.987.232 1.053.701 1.311.01 2.029" fill="#DAE0EC"/><path d="M291.664 284.145c-5.166-5.166-13.54-5.166-18.707 0-5.166 5.166-5.166 13.541 0 18.707s13.541 5.166 18.707 0 5.166-13.54 0-18.707" fill="#252B3A"/><g transform="translate(214 189.718)"><mask id="b" fill="#fff"><use xlink:href="#a"/></mask><path d="M76.202 19.012C52.764-4.426 30.028-4.66 12.684 12.683c-17.345 17.345-17.11 40.08 6.328 63.518 21.597 21.597 5.186 29.065 19.89 47.524 2.235 2.804 6.405 3.06 8.94.524l76.408-76.407c2.535-2.535 2.279-6.705-.525-8.939-18.46-14.705-25.927 1.705-47.523-19.89" fill="#2EA2FF" mask="url(#b)"/></g><path d="M210 282.872a3.952 3.952 0 0 1-2.262-.71c-9.866-6.836-13.74-17.653-9.868-27.56a3.978 3.978 0 0 1 7.41 2.898c-3.012 7.705 1.636 14.415 6.989 18.124a3.978 3.978 0 0 1-2.27 7.248m-16.345 15.064a3.954 3.954 0 0 1-1.962-.52c-15.348-8.726-22.064-26.85-16.333-44.075a3.978 3.978 0 1 1 7.549 2.512c-4.517 13.575.712 27.822 12.715 34.646a3.978 3.978 0 0 1-1.969 7.437m112.072-106.965c-1.3 0-2.574-.636-3.336-1.805-3.556-5.457-10.13-10.293-17.919-7.5a3.979 3.979 0 0 1-2.685-7.489c10.011-3.59 20.715.589 27.27 10.645a3.977 3.977 0 0 1-3.33 6.15m15.521-15.912a3.979 3.979 0 0 1-3.516-2.112c-6.48-12.192-20.575-17.82-34.272-13.693a3.978 3.978 0 0 1-2.297-7.616c17.38-5.244 35.307 1.986 43.594 17.574a3.979 3.979 0 0 1-3.509 5.846" fill="#252B3A"/></g></svg>