<svg width="123" height="60" xmlns="http://www.w3.org/2000/svg"><path d="M100.331 43.065c5.28 1.193 4.031 6.316 4.031 6.316s-7.322-2.348-16.693-4.219c-.37-.715-.642-1.59-.511-2.509.124-.877.585-1.619 1.104-2.198 4.832.918 9 1.917 12.07 2.61zm-74.987-8.903c0 6.521-6.7 12.883-14.304 12.883-3.096 0-3.134-3.134-3.052-4.234a.413.413 0 0 1 .407-.38c6.277-.124 11.864-3.403 11.864-7.343C20.26 29.562 0 32.583 0 18.303 0 8.282 9.308 0 20.615 0c4.352 0 6.505 3.08 6.505 6.97 0 7.018-5.062 14.139-7.512 14.139-2.883 0-3.873-1.716-4.13-2.307a.273.273 0 0 1 .084-.321C19.972 14.937 25.6 3.76 21.074 3.488c-5.66-.339-15.347 8.717-15.347 17.264 0 8.63 19.618 5.725 19.618 13.41zm28.864 1.623c-1.241-.187-4.539-.89-4.539-3.076 0-5.49 2.582-15.65 3.01-19.091.036-.29.293-.5.584-.478 1.256.097 4.286.642 4.286 3.653 0 .612-.157 1.73-.397 3.143 2.712-6.01 4.642-6.73 6.085-6.73.357 0 .7.02 1.025.057 1.503.17 2.662.71 3.456 1.465a4.01 4.01 0 0 1 1.28 2.938c0 .562-.23 1.885-.495 3.38 2.827-6.765 4.787-7.84 6.278-7.84.357 0 .7.02 1.025.057 1.504.17 2.662.71 3.456 1.465l.002.003a4.01 4.01 0 0 1 1.278 2.935c0 .587-.25 2.002-.53 3.577l-.09.516-.054.304c-.89 4.949-1.929 9.074-2.09 12.422a.548.548 0 0 1-.637.514c-1.34-.22-4.384-.952-4.384-3.051 0-3.256.692-6.092 1.616-10.828l.007-.036c.236-1.376.097-2.643-1.061-2.643-3.821 0-6.86 15.975-6.86 15.975l-.016-.006a.547.547 0 0 1-.635.496c-1.34-.22-4.384-.951-4.384-3.05 0-3.256.481-6 1.405-10.736l.006-.036c.237-1.376.098-2.643-1.06-2.643-3.821 0-6.967 15.347-6.967 15.347h-.002a24.943 24.943 0 0 0-.123 1.607.411.411 0 0 1-.475.39zm37.736.57c-1.997 0-3.596-.332-4.868-.816-1.131 6.38-2.188 13.078-2.26 18.432a.41.41 0 0 1-.563.375c-1.323-.527-4.538-2.076-4.538-4.697 0-1.71.162-3.67.428-5.784-4.087-.584-8.29-.97-12.255-.97-10.891 0-19.106.64-25.305 1.629-5.31 15.692-13.172 15.473-16.105 15.473-2.833 0-5.864-2.014-5.864-6.075 0-2.573.097-9.761 17.66-13.485.836-3.466 1.562-7.12 2.29-10.63-1.58 4.193-4.222 8.565-7.753 8.565-2.337 0-5.027-2.517-5.027-6.796 0-5.116 1.91-14.669 2.206-18.184a.41.41 0 0 1 .434-.375c1.162.07 4.414.542 4.414 3.662 0 2.608-1.924 12.769-1.924 13.821 0 1.053-.274 3.433 1.146 3.433 4.435 0 7.968-14.756 8.189-18.894 0-.58-.005-1.062-.008-1.429a.411.411 0 0 1 .416-.414c1.173.015 4.426.338 4.576 3.446.055 1.139-.211 3.735-.475 6.389-.654 6.565-1.584 11.963-2.694 16.404 5.826-.811 13.096-1.3 22.175-1.3 5.018 0 9.976.446 14.6 1.09 1.54-9.097 4.127-19.615 4.243-25.691a.41.41 0 0 1 .435-.401c1.183.074 4.391.562 4.391 3.66 0 1.065-.113 2.388-.304 3.904 3.103-6.708 4.852-7.23 7.041-7.23 3.78 0 5.94 3.257 5.94 8.08 0 8.656-4.148 14.807-10.641 14.807zm16.222 9.25c.986-.504 2.378.245 3.11 1.673.73 1.428.523 2.995-.463 3.498-.986.504-2.378-.245-3.109-1.673-.73-1.428-.524-2.994.462-3.498zm12.183-1.222c0 3.477 1.16 5.471 1.71 6.22a.274.274 0 0 1-.175.432c-3.477.598-6.735-.996-6.735-7.398 0-11.04 4.347-22.456.865-22.45-2.36.002-5.53 6.67-7.015 14.222-.297 1.813-.571 4.4-.68 5.474a.412.412 0 0 1-.532.351c-3.33-1.04-5.073-2.763-4.4-6.037 2.21-10.732 3.506-24.39 5.34-29.665 1.017-2.928 4.209-2.336 5.35-2.019.224.063.35.3.278.521-1.439 4.412-2.526 12.02-3.576 19.505 2.533-5.901 4.625-6.837 6.927-6.84 3.856-.005 5.28 2.68 5.28 5.84 0 5.352-2.637 11.396-2.637 21.844zM95.525 18.7c-2.42 0-5.182 3.983-7.154 9.672-.307 1.713-.637 3.506-.968 5.34.41.068.829.108 1.248.108 5.549 0 8.575-5.767 8.575-12.152 0-1.813-.543-2.968-1.701-2.968zM27.009 57.64c4.826 0 7.731-5.13 9.85-11.98-13.922 3.398-13.283 8.79-13.283 9.35 0 1.024.985 2.63 3.433 2.63z" fill="#FFF" fill-rule="evenodd" opacity=".1"/></svg>