<?xml version="1.0" encoding="UTF-8"?>
<svg width="183px" height="43px" viewBox="0 0 183 43" version="1.1" xmlns="http://www.w3.org/2000/svg" xmlns:xlink="http://www.w3.org/1999/xlink">
    <!-- Generator: Sketch 47.1 (45422) - http://www.bohemiancoding.com/sketch -->
    <title>Group</title>
    <desc>Created with Sketch.</desc>
    <defs>
        <linearGradient x1="50%" y1="34.2554209%" x2="50%" y2="100%" id="linearGradient-1">
            <stop stop-color="#EEEEEE" offset="0%"></stop>
            <stop stop-color="#D8D8D8" offset="100%"></stop>
        </linearGradient>
        <path d="M13,13 L20,13 L20,13 C24.418278,13 28,16.581722 28,21 L28,27 L28,27 C28,31.418278 24.418278,35 20,35 L13,35 L13,13 Z" id="path-2"></path>
    </defs>
    <g id="Page-1" stroke="none" stroke-width="1" fill="none" fill-rule="evenodd" opacity="0.136605525">
        <g id="Group" transform="translate(0.000000, -3.000000)">
            <rect id="Rectangle-3" fill="url(#linearGradient-1)" opacity="0.300328351" x="0" y="3" width="38" height="43" rx="4"></rect>
            <path d="M7,14 L32,14 L32,14 C33.1045695,14 34,14.8954305 34,16 L34,18 L34,18 C34,19.1045695 33.1045695,20 32,20 L7,20 L7,14 Z" id="Rectangle" fill="#FFFFFF"></path>
            <path d="M7,7 L26,7 L26,7 C27.6568542,7 29,8.34314575 29,10 L29,12 L29,12 C29,12.5522847 28.5522847,13 28,13 L7,13 L7,7 Z" id="Rectangle" fill="#FFFFFF"></path>
            <path d="M7,21 L33,21 L33,21 C34.1045695,21 35,21.8954305 35,23 L35,25 L35,25 C35,26.1045695 34.1045695,27 33,27 L7,27 L7,21 Z" id="Rectangle" fill="#FFFFFF"></path>
            <path d="M7,28 L32,28 L32,28 C33.1045695,28 34,28.8954305 34,30 L34,32 L34,32 C34,33.1045695 33.1045695,34 32,34 L7,34 L7,28 Z" id="Rectangle" fill="#FFFFFF"></path>
            <path d="M7,35 L28,35 L28,35 C28.5522847,35 29,35.4477153 29,36 L29,38 L29,38 C29,39.6568542 27.6568542,41 26,41 L7,41 L7,35 Z" id="Rectangle" fill="#FFFFFF"></path>
            <text id="devstack" font-family="Corbel-Bold, Corbel" font-size="40" font-weight="bold" letter-spacing="-1.60000002" fill="#FFFFFF">
                <tspan x="41.4691407" y="38">devstac</tspan>
                <tspan x="162.886328" y="38" letter-spacing="-3">k</tspan>
            </text>
            <g id="Rectangle-2">
                <use fill="#415975" fill-rule="evenodd" xlink:href="#path-2"></use>
                <path stroke-opacity="0.232761549" stroke="#F5A623" stroke-width="0.5" d="M13.25,13.25 L13.25,34.75 L20,34.75 C24.2802068,34.75 27.75,31.2802068 27.75,27 L27.75,21 C27.75,16.7197932 24.2802068,13.25 20,13.25 L13.25,13.25 Z"></path>
            </g>
        </g>
    </g>
</svg>