<svg width="123" height="60" xmlns="http://www.w3.org/2000/svg"><g fill="none" fill-rule="evenodd"><path d="M0 0h123v60H0z"/><path d="M100.331 43.065c-3.068-.693-7.237-1.692-12.07-2.61-.518.58-.98 1.32-1.103 2.198-.13.92.142 1.794.511 2.51 9.371 1.87 16.693 4.218 16.693 4.218s1.25-5.123-4.03-6.316m-74.988-8.903c0-7.685-19.618-4.78-19.618-13.41 0-8.547 9.688-17.603 15.347-17.264 4.526.272-1.102 11.45-5.512 14.993a.273.273 0 0 0-.083.32c.256.592 1.246 2.308 4.129 2.308 2.45 0 7.512-7.121 7.512-14.139 0-3.89-2.153-6.97-6.505-6.97C9.307 0 0 8.282 0 18.303c0 14.28 20.26 11.259 20.26 16.785 0 3.94-5.588 7.219-11.865 7.342a.413.413 0 0 0-.407.38c-.082 1.101-.044 4.235 3.052 4.235 7.605 0 14.304-6.362 14.304-12.883m28.864 1.623a.411.411 0 0 0 .475-.39c.019-.48.061-1.021.123-1.608l.002.001s3.146-15.347 6.966-15.347c1.159 0 1.298 1.267 1.061 2.643l-.006.036c-.924 4.736-1.405 7.48-1.405 10.735 0 2.1 3.044 2.831 4.384 3.051a.547.547 0 0 0 .635-.496l.015.006s3.04-15.975 6.86-15.975c1.16 0 1.298 1.267 1.062 2.643l-.007.036c-.924 4.736-1.616 7.572-1.616 10.828 0 2.1 3.044 2.83 4.384 3.05a.548.548 0 0 0 .637-.513c.161-3.348 1.2-7.473 2.09-12.422l.054-.304.09-.516c.28-1.575.53-2.99.53-3.577a4.01 4.01 0 0 0-1.278-2.935l-.002-.003c-.794-.755-1.952-1.296-3.456-1.465a9.106 9.106 0 0 0-1.025-.056c-1.49 0-3.45 1.074-6.278 7.84.265-1.496.495-2.819.495-3.38a4.01 4.01 0 0 0-1.278-2.936l-.002-.003c-.794-.755-1.953-1.296-3.456-1.465a9.105 9.105 0 0 0-1.025-.056c-1.443 0-3.373.72-6.085 6.729.24-1.413.397-2.531.397-3.143 0-3.01-3.03-3.556-4.286-3.653a.547.547 0 0 0-.584.478c-.428 3.44-3.01 13.601-3.01 19.091 0 2.186 3.298 2.89 4.54 3.076" fill="#0AA5FF"/><path d="M95.525 18.699c1.158 0 1.701 1.155 1.701 2.968 0 6.385-3.026 12.152-8.575 12.152-.419 0-.837-.04-1.248-.107.331-1.835.661-3.628.968-5.34 1.972-5.69 4.735-9.673 7.154-9.673m-68.516 38.94c-2.448 0-3.433-1.606-3.433-2.63 0-.56-.64-5.952 13.283-9.35-2.119 6.85-5.024 11.98-9.85 11.98m64.935-21.285c6.493 0 10.642-6.151 10.642-14.807 0-4.823-2.162-8.08-5.94-8.08-2.19 0-3.94.522-7.042 7.23.191-1.516.304-2.839.304-3.904 0-3.098-3.208-3.586-4.39-3.66a.41.41 0 0 0-.436.4c-.116 6.077-2.704 16.595-4.243 25.693-4.624-.645-9.582-1.092-14.6-1.092-9.079 0-16.35.49-22.175 1.3 1.11-4.44 2.04-9.838 2.694-16.403.264-2.654.53-5.25.475-6.39-.15-3.107-3.403-3.43-4.576-3.445a.411.411 0 0 0-.416.414c.003.367.008.85.008 1.429-.221 4.138-3.754 18.894-8.19 18.894-1.42 0-1.145-2.38-1.145-3.433 0-1.052 1.924-11.213 1.924-13.821 0-3.12-3.252-3.593-4.414-3.662a.41.41 0 0 0-.434.375c-.296 3.515-2.206 13.068-2.206 18.184 0 4.279 2.69 6.796 5.027 6.796 3.531 0 6.173-4.372 7.753-8.566-.728 3.51-1.454 7.165-2.29 10.63-17.563 3.725-17.66 10.913-17.66 13.486 0 4.061 3.031 6.075 5.864 6.075 2.933 0 10.794.219 16.105-15.473 6.199-.988 14.414-1.63 25.305-1.63 3.966 0 8.168.387 12.255.971-.266 2.114-.428 4.073-.428 5.784 0 2.62 3.215 4.17 4.538 4.697a.41.41 0 0 0 .563-.375c.072-5.354 1.129-12.053 2.26-18.432 1.272.484 2.87.815 4.868.815m16.222 9.251c-.986.504-1.193 2.07-.462 3.498.731 1.428 2.123 2.177 3.11 1.673.985-.503 1.192-2.07.461-3.498-.731-1.428-2.123-2.177-3.11-1.673m12.185-1.222c0-10.448 2.636-16.492 2.636-21.843 0-3.162-1.424-5.846-5.28-5.841-2.302.003-4.394.939-6.927 6.84 1.05-7.486 2.137-15.093 3.576-19.505a.408.408 0 0 0-.278-.52c-1.141-.318-4.333-.91-5.35 2.018-1.834 5.275-3.13 18.933-5.34 29.665-.673 3.274 1.07 4.996 4.4 6.037a.412.412 0 0 0 .533-.351c.108-1.073.382-3.661.679-5.474 1.485-7.551 4.656-14.22 7.015-14.223 3.482-.005-.865 11.411-.865 22.451 0 6.402 3.258 7.996 6.735 7.398a.274.274 0 0 0 .174-.433c-.548-.748-1.709-2.742-1.709-6.219" fill="#0AA5FF"/></g></svg>